<?xml version="1.0"?>
<svg version="1.1" xmlns="http://www.w3.org/2000/svg" xmlns:xlink="http://www.w3.org/1999/xlink" width="640" height="480">
    <desc iVinci="yes" version="4.6" gridStep="20" showGrid="yes" snapToGrid="no" codePlatform="0"/>
    <g id="Layer1" name="Layer 1" opacity="1">
        <g id="Shape1">
            <desc shapeID="1" type="0" basicInfo-basicType="0" basicInfo-roundedRectRadius="12" basicInfo-polygonSides="6" basicInfo-starPoints="5" bounding="rect(-73.9843,-20.6591,147.969,41.3182)" text="" font-familyName="Helvetica" font-pixelSize="20" font-bold="0" font-underline="0" font-alignment="1" strokeStyle="1" markerStart="0" markerEnd="1" shadowEnabled="0" shadowOffsetX="0" shadowOffsetY="2" shadowBlur="4" shadowOpacity="160" blurEnabled="0" blurRadius="4" transform="matrix(1,0,0,1,174.516,116.159)" pers-center="0,0" pers-size="0,0" pers-start="0,0" pers-end="0,0" locked="0" mesh="" flag=""/>
            <path id="shapePath1" d="M100.531,136.818 C100.531,136.818 248.5,95.5 248.5,95.5 " style="stroke:#e9181f;stroke-opacity:1;stroke-width:5;stroke-linejoin:miter;stroke-miterlimit:2;stroke-linecap:round;fill:none;"/>
            <path id="markerPath1" d="M215.353,125.521 L258.132,92.8105 L204.595,86.9948 L215.353,125.521 Z" style="stroke:none;fill-rule:evenodd;fill:#e9181f;fill-opacity:1;"/>
        </g>
        <g id="Shape2">
            <desc shapeID="2" type="0" basicInfo-basicType="0" basicInfo-roundedRectRadius="12" basicInfo-polygonSides="6" basicInfo-starPoints="5" bounding="rect(-187.548,-50,375.099,100)" text="" font-familyName="Helvetica" font-pixelSize="20" font-bold="0" font-underline="0" font-alignment="1" strokeStyle="1" markerStart="0" markerEnd="1" shadowEnabled="0" shadowOffsetX="0" shadowOffsetY="2" shadowBlur="4" shadowOpacity="160" blurEnabled="0" blurRadius="4" transform="matrix(0.690806,0,0,2,230.091,200.5)" pers-center="0,0" pers-size="0,0" pers-start="0,0" pers-end="0,0" locked="0" mesh="" flag=""/>
            <path id="shapePath2" d="M100.531,143.893 C100.531,143.893 152.411,300.5 152.411,300.5 C152.411,300.5 290.572,300.5 290.572,300.5 C290.572,300.5 359.652,100.5 359.652,100.5 " style="stroke:#1cdf10;stroke-opacity:1;stroke-width:5.5;stroke-linejoin:miter;stroke-miterlimit:2;stroke-linecap:round;fill:none;"/>
            <path id="markerPath2" d="M366.082,149.271 L363.243,90.1027 L324.493,134.907 L366.082,149.271 Z" style="stroke:none;fill-rule:evenodd;fill:#1cdf10;fill-opacity:1;"/>
        </g>
        <g id="Shape3">
            <desc shapeID="3" type="0" basicInfo-basicType="0" basicInfo-roundedRectRadius="12" basicInfo-polygonSides="6" basicInfo-starPoints="5" bounding="rect(-20.9233,-18.9945,41.8465,37.989)" text="" font-familyName="Helvetica" font-pixelSize="20" font-bold="0" font-underline="0" font-alignment="1" strokeStyle="0" markerStart="0" markerEnd="0" shadowEnabled="0" shadowOffsetX="0" shadowOffsetY="2" shadowBlur="4" shadowOpacity="160" blurEnabled="0" blurRadius="4" transform="matrix(0.863566,0,0,1,100.531,136.818)" pers-center="0,0" pers-size="0,0" pers-start="0,0" pers-end="0,0" locked="0" mesh="" flag=""/>
            <path id="shapePath3" d="M100.531,117.824 L106.115,130.329 L118.6,132.335 L109.566,142.069 L111.698,155.813 L100.531,149.324 L89.3645,155.813 L91.4966,142.069 L82.4628,132.334 L94.9474,130.329 L100.531,117.824 Z" style="stroke:#323232;stroke-opacity:1;stroke-width:5.5;stroke-linejoin:miter;stroke-miterlimit:2;stroke-linecap:round;fill-rule:evenodd;fill:#969696;fill-opacity:1;"/>
        </g>
        <g id="Shape4">
            <desc shapeID="4" type="0" basicInfo-basicType="5" basicInfo-roundedRectRadius="12" basicInfo-polygonSides="6" basicInfo-starPoints="5" bounding="rect(-28.125,-29.4451,56.2501,58.8902)" text="" font-familyName="Helvetica" font-pixelSize="20" font-bold="0" font-underline="0" font-alignment="1" strokeStyle="0" markerStart="0" markerEnd="0" shadowEnabled="0" shadowOffsetX="0" shadowOffsetY="2" shadowBlur="4" shadowOpacity="160" blurEnabled="0" blurRadius="4" transform="matrix(-1.35884e-06,0.606668,-0.434232,-2.69539e-06,255.991,74.5625)" pers-center="0,0" pers-size="0,0" pers-start="0,0" pers-end="0,0" locked="0" mesh="" flag=""/>
            <path id="shapePath4" d="M255.991,91.6251 L243.205,57.4999 L268.777,57.5003 L255.991,91.6251 Z" style="stroke:#323232;stroke-opacity:1;stroke-width:2;stroke-linejoin:miter;stroke-miterlimit:2;stroke-linecap:round;fill:none;"/>
        </g>
        <g id="Shape5">
            <desc shapeID="5" type="0" basicInfo-basicType="0" basicInfo-roundedRectRadius="12" basicInfo-polygonSides="6" basicInfo-starPoints="5" bounding="rect(-260.5,-13.0394,521.001,26.0787)" text="" font-familyName="Helvetica" font-pixelSize="20" font-bold="0" font-underline="0" font-alignment="1" strokeStyle="0" markerStart="0" markerEnd="0" shadowEnabled="0" shadowOffsetX="0" shadowOffsetY="2" shadowBlur="4" shadowOpacity="160" blurEnabled="0" blurRadius="4" transform="matrix(0.6007,0,0,1,224.194,93.5394)" pers-center="0,0" pers-size="0,0" pers-start="0,0" pers-end="0,0" locked="0" mesh="" flag=""/>
            <path id="shapePath5" d="M67.7119,97.5 C91.9165,95.5364 116.637,94.2932 140.997,96.5 C144.129,98.5021 145.875,103.557 148.806,106.5 C158.07,106.898 168.175,106.105 175.237,96.5 C190.425,97.5104 205.968,94.3349 220.891,98.5 C244.301,82.8124 269.586,94.936 293.575,99.5 C319.11,82.1233 356.672,104.773 380.677,80.5 " style="stroke:#323232;stroke-opacity:1;stroke-width:2;stroke-linejoin:miter;stroke-miterlimit:2;stroke-linecap:round;fill:none;"/>
        </g>
        <g id="Shape6">
            <desc shapeID="6" type="0" basicInfo-basicType="0" basicInfo-roundedRectRadius="12" basicInfo-polygonSides="6" basicInfo-starPoints="5" bounding="rect(-285.5,-8.17998,571,16.3601)" text="" font-familyName="Helvetica" font-pixelSize="20" font-bold="0" font-underline="0" font-alignment="1" strokeStyle="0" markerStart="0" markerEnd="0" shadowEnabled="0" shadowOffsetX="0" shadowOffsetY="2" shadowBlur="4" shadowOpacity="160" blurEnabled="0" blurRadius="4" transform="matrix(0.6007,0,0,1,229,298.68)" pers-center="0,0" pers-size="0,0" pers-start="0,0" pers-end="0,0" locked="0" mesh="" flag=""/>
            <path id="shapePath6" d="M57.5,301.5 C68.6512,295.564 81.608,302.795 91.7399,296.5 C105.175,298.035 119.186,294.707 131.386,305.5 L243.717,290.5 C294.031,296.657 345.042,287.187 394.493,306.5 C398.582,307.984 398.583,304.665 400.5,300.5 " style="stroke:#323232;stroke-opacity:1;stroke-width:2;stroke-linejoin:miter;stroke-miterlimit:2;stroke-linecap:round;fill:none;"/>
        </g>
        <g id="Shape7">
            <desc shapeID="7" type="0" basicInfo-basicType="5" basicInfo-roundedRectRadius="12" basicInfo-polygonSides="6" basicInfo-starPoints="5" bounding="rect(-28.125,-29.4439,56.2501,58.8878)" text="" font-familyName="Helvetica" font-pixelSize="20" font-bold="0" font-underline="0" font-alignment="1" strokeStyle="0" markerStart="0" markerEnd="0" shadowEnabled="0" shadowOffsetX="0" shadowOffsetY="2" shadowBlur="4" shadowOpacity="160" blurEnabled="0" blurRadius="4" transform="matrix(-1.35884e-06,0.606668,-0.434232,-2.69539e-06,358.88,77.5625)" pers-center="0,0" pers-size="0,0" pers-start="0,0" pers-end="0,0" locked="0" mesh="" flag=""/>
            <path id="shapePath7" d="M358.88,94.6251 L346.095,60.4999 L371.666,60.5003 L358.88,94.6251 Z" style="stroke:#323232;stroke-opacity:1;stroke-width:2;stroke-linejoin:miter;stroke-miterlimit:2;stroke-linecap:round;fill:none;"/>
        </g>
        <g id="Shape8">
            <desc shapeID="8" type="2" basicInfo-basicType="0" basicInfo-roundedRectRadius="12" basicInfo-polygonSides="6" basicInfo-starPoints="5" bounding="rect(-22,-17,44,34)" text="Pn" font-familyName="Helvetica" font-pixelSize="20" font-bold="0" font-underline="0" font-alignment="1" strokeStyle="0" markerStart="0" markerEnd="0" shadowEnabled="0" shadowOffsetX="0" shadowOffsetY="2" shadowBlur="4" shadowOpacity="160" blurEnabled="0" blurRadius="4" transform="matrix(1,0,0,1,344.794,213.557)" pers-center="0,0" pers-size="0,0" pers-start="0,0" pers-end="0,0" locked="0" mesh="" flag=""/>
            <path id="shapePath8" d="M334.284,204.602 L340.739,204.602 C342.015,204.602 343.044,204.962 343.825,205.681 C344.607,206.4 344.997,207.411 344.997,208.713 C344.997,209.833 344.649,210.808 343.952,211.638 C343.256,212.468 342.185,212.883 340.739,212.883 L336.228,212.883 L336.228,218.948 L334.284,218.948 L334.284,204.602 M341.862,206.575 C341.433,206.373 340.843,206.272 340.095,206.272 L336.228,206.272 L336.228,211.243 L340.095,211.243 C340.967,211.243 341.675,211.057 342.219,210.686 C342.762,210.315 343.034,209.661 343.034,208.723 C343.034,207.668 342.644,206.952 341.862,206.575 M347.192,208.489 L348.862,208.489 L348.862,209.973 C349.357,209.361 349.881,208.922 350.435,208.655 C350.988,208.388 351.603,208.254 352.28,208.254 C353.765,208.254 354.767,208.772 355.288,209.807 C355.575,210.373 355.718,211.184 355.718,212.239 L355.718,218.948 L353.931,218.948 L353.931,212.356 C353.931,211.718 353.836,211.203 353.648,210.813 C353.335,210.162 352.769,209.836 351.948,209.836 C351.532,209.836 351.19,209.879 350.923,209.963 C350.441,210.106 350.018,210.393 349.653,210.823 C349.36,211.168 349.17,211.524 349.082,211.892 C348.994,212.26 348.95,212.786 348.95,213.469 L348.95,218.948 L347.192,218.948 L347.192,208.489 Z" style="stroke:none;fill-rule:nonzero;fill:#000000;fill-opacity:1;"/>
        </g>
        <g id="Shape9">
            <desc shapeID="9" type="0" basicInfo-basicType="0" basicInfo-roundedRectRadius="12" basicInfo-polygonSides="6" basicInfo-starPoints="5" bounding="rect(-160,-50,320,100)" text="" font-familyName="Helvetica" font-pixelSize="20" font-bold="0" font-underline="0" font-alignment="1" strokeStyle="0" markerStart="0" markerEnd="0" shadowEnabled="0" shadowOffsetX="0" shadowOffsetY="2" shadowBlur="4" shadowOpacity="160" blurEnabled="0" blurRadius="4" transform="matrix(0.783049,0,0,1,222.434,370.5)" pers-center="0,0" pers-size="0,0" pers-start="0,0" pers-end="0,0" locked="0" mesh="" flag=""/>
            <path id="shapePath9" d="M97.1462,320.5 C97.1462,320.5 97.1462,420.5 97.1462,420.5 C97.1462,420.5 347.722,420.5 347.722,420.5 " style="stroke:#323232;stroke-opacity:1;stroke-width:2;stroke-linejoin:miter;stroke-miterlimit:2;stroke-linecap:round;fill:none;"/>
        </g>
        <g id="Shape10">
            <desc shapeID="10" type="0" basicInfo-basicType="0" basicInfo-roundedRectRadius="12" basicInfo-polygonSides="6" basicInfo-starPoints="5" bounding="rect(-266.752,-37,533.502,74)" text="" font-familyName="Helvetica" font-pixelSize="20" font-bold="0" font-underline="0" font-alignment="1" strokeStyle="0" markerStart="0" markerEnd="0" shadowEnabled="0" shadowOffsetX="0" shadowOffsetY="2" shadowBlur="4" shadowOpacity="160" blurEnabled="0" blurRadius="4" transform="matrix(0.6007,0,0,1,257.384,360.5)" pers-center="0,0" pers-size="0,0" pers-start="0,0" pers-end="0,0" locked="0" mesh="" flag=""/>
            <path id="shapePath10" d="M97.1462,397.5 C97.1462,397.5 417.621,323.5 417.621,323.5 " style="stroke:#323232;stroke-opacity:1;stroke-width:2;stroke-linejoin:miter;stroke-miterlimit:2;stroke-linecap:round;fill:none;"/>
        </g>
        <g id="Shape11">
            <desc shapeID="11" type="2" basicInfo-basicType="0" basicInfo-roundedRectRadius="12" basicInfo-polygonSides="6" basicInfo-starPoints="5" bounding="rect(-24.5,-17.5,49,35)" text="TT" font-familyName="Helvetica" font-pixelSize="20" font-bold="0" font-underline="0" font-alignment="1" strokeStyle="0" markerStart="0" markerEnd="0" shadowEnabled="0" shadowOffsetX="0" shadowOffsetY="2" shadowBlur="4" shadowOpacity="160" blurEnabled="0" blurRadius="4" transform="matrix(1,0,0,1,62.5371,369.955)" pers-center="0,0" pers-size="0,0" pers-start="0,0" pers-end="0,0" locked="0" mesh="" flag=""/>
            <path id="shapePath11" d="M62.2969,360.5 L62.2969,362.209 L57.4629,362.209 L57.4629,374.846 L55.4902,374.846 L55.4902,362.209 L50.6562,362.209 L50.6562,360.5 L62.2969,360.5 M74.5,360.5 L74.5,362.209 L69.666,362.209 L69.666,374.846 L67.6934,374.846 L67.6934,362.209 L62.8594,362.209 L62.8594,360.5 L74.5,360.5 Z" style="stroke:none;fill-rule:nonzero;fill:#000000;fill-opacity:1;"/>
        </g>
        <g id="Shape12">
            <desc shapeID="12" type="2" basicInfo-basicType="0" basicInfo-roundedRectRadius="12" basicInfo-polygonSides="6" basicInfo-starPoints="5" bounding="rect(-33.5,-18.5,67,37)" text="" font-familyName="Symbol" font-pixelSize="20" font-bold="0" font-underline="0" font-alignment="1" strokeStyle="0" markerStart="0" markerEnd="0" shadowEnabled="0" shadowOffsetX="0" shadowOffsetY="2" shadowBlur="4" shadowOpacity="160" blurEnabled="0" blurRadius="4" transform="matrix(1,0,0,1,329,449)" pers-center="0,0" pers-size="0,0" pers-start="0,0" pers-end="0,0" locked="0" mesh="" flag=""/>
            <path id="shapePath12" d="M329,449 Z" style="stroke:none;fill-rule:evenodd;fill:#000000;fill-opacity:1;"/>
        </g>
        <g id="Shape13">
            <desc shapeID="13" type="2" basicInfo-basicType="0" basicInfo-roundedRectRadius="12" basicInfo-polygonSides="6" basicInfo-starPoints="5" bounding="rect(-25.5,-15,51,30)" text="∆" font-familyName="Symbol" font-pixelSize="20" font-bold="0" font-underline="0" font-alignment="1" strokeStyle="0" markerStart="0" markerEnd="0" shadowEnabled="0" shadowOffsetX="0" shadowOffsetY="2" shadowBlur="4" shadowOpacity="160" blurEnabled="0" blurRadius="4" transform="matrix(1,0,0,1,344.975,442.672)" pers-center="0,0" pers-size="0,0" pers-start="0,0" pers-end="0,0" locked="0" mesh="" flag=""/>
            <path id="shapePath13" d="M338.454,449 L338.454,447.193 L343.971,434.547 L346.002,434.547 L351.5,447.193 L351.5,449 L338.454,449 M340.221,447.193 L349.284,447.193 L344.762,436.803 L340.221,447.193 Z" style="stroke:none;fill-rule:nonzero;fill:#000000;fill-opacity:1;"/>
        </g>
        <g id="Shape14">
            <desc shapeID="14" type="0" basicInfo-basicType="0" basicInfo-roundedRectRadius="12" basicInfo-polygonSides="6" basicInfo-starPoints="5" bounding="rect(-120.5,-7.09192,241,14.1837)" text="" font-familyName="Helvetica" font-pixelSize="20" font-bold="0" font-underline="0" font-alignment="1" strokeStyle="0" markerStart="0" markerEnd="0" shadowEnabled="0" shadowOffsetX="0" shadowOffsetY="2" shadowBlur="4" shadowOpacity="160" blurEnabled="0" blurRadius="4" transform="matrix(1,0,0,1,503,80.4082)" pers-center="0,0" pers-size="0,0" pers-start="0,0" pers-end="0,0" locked="0" mesh="" flag=""/>
            <path id="shapePath14" d="M382.5,81.5 C387.745,79.6329 397.396,82.525 399.5,75.5 C454.321,76.3939 510.746,66.1868 560.5,83.5 C574.018,82.3238 586.433,78.9174 601.5,80.5 C608.779,83.59 615.371,84.5673 623.5,87.5 " style="stroke:#323232;stroke-opacity:1;stroke-width:2;stroke-linejoin:miter;stroke-miterlimit:2;stroke-linecap:round;fill:none;"/>
        </g>
        <g id="Shape15">
            <desc shapeID="15" type="0" basicInfo-basicType="0" basicInfo-roundedRectRadius="12" basicInfo-polygonSides="6" basicInfo-starPoints="5" bounding="rect(-114,-4.23614,228,8.47228)" text="" font-familyName="Helvetica" font-pixelSize="20" font-bold="0" font-underline="0" font-alignment="1" strokeStyle="0" markerStart="0" markerEnd="0" shadowEnabled="0" shadowOffsetX="0" shadowOffsetY="2" shadowBlur="4" shadowOpacity="160" blurEnabled="0" blurRadius="4" transform="matrix(1,0,0,1,515.5,298.264)" pers-center="0,0" pers-size="0,0" pers-start="0,0" pers-end="0,0" locked="0" mesh="" flag=""/>
            <path id="shapePath15" d="M401.5,299.5 L604.5,302.5 C610.792,295.589 619.364,292.835 629.5,294.5 " style="stroke:#323232;stroke-opacity:1;stroke-width:2;stroke-linejoin:miter;stroke-miterlimit:2;stroke-linecap:round;fill:none;"/>
        </g>
        <g id="Shape16">
            <desc shapeID="16" type="0" basicInfo-basicType="0" basicInfo-roundedRectRadius="12" basicInfo-polygonSides="6" basicInfo-starPoints="5" bounding="rect(-133,-0.5,266,1)" text="" font-familyName="Helvetica" font-pixelSize="20" font-bold="0" font-underline="0" font-alignment="1" strokeStyle="0" markerStart="0" markerEnd="0" shadowEnabled="0" shadowOffsetX="0" shadowOffsetY="2" shadowBlur="4" shadowOpacity="160" blurEnabled="0" blurRadius="4" transform="matrix(1,0,0,1,484.5,420)" pers-center="0,0" pers-size="0,0" pers-start="0,0" pers-end="0,0" locked="0" mesh="" flag=""/>
            <path id="shapePath16" d="M351.5,420.5 C351.5,420.5 617.5,419.5 617.5,419.5 " style="stroke:#323232;stroke-opacity:1;stroke-width:2;stroke-linejoin:miter;stroke-miterlimit:2;stroke-linecap:round;fill:none;"/>
        </g>
        <g id="Shape17">
            <desc shapeID="17" type="0" basicInfo-basicType="0" basicInfo-roundedRectRadius="12" basicInfo-polygonSides="6" basicInfo-starPoints="5" bounding="rect(-196,-27.0001,392,54.0002)" text="" font-familyName="Helvetica" font-pixelSize="20" font-bold="0" font-underline="0" font-alignment="1" strokeStyle="0" markerStart="0" markerEnd="0" shadowEnabled="0" shadowOffsetX="0" shadowOffsetY="2" shadowBlur="4" shadowOpacity="160" blurEnabled="0" blurRadius="4" transform="matrix(0.840496,0,0,0.344628,437.5,338.695)" pers-center="0,0" pers-size="0,0" pers-start="0,0" pers-end="0,0" locked="0" mesh="" flag=""/>
            <path id="shapePath17" d="M272.763,348 C272.763,348 602.237,329.39 602.237,329.39 " style="stroke:#2aef18;stroke-opacity:1;stroke-width:3;stroke-linejoin:miter;stroke-miterlimit:2;stroke-linecap:round;fill:none;"/>
        </g>
        <g id="Shape18">
            <desc shapeID="18" type="0" basicInfo-basicType="0" basicInfo-roundedRectRadius="12" basicInfo-polygonSides="6" basicInfo-starPoints="5" bounding="rect(-76,-109.5,152,219)" text="" font-familyName="Helvetica" font-pixelSize="20" font-bold="0" font-underline="0" font-alignment="1" strokeStyle="1" markerStart="0" markerEnd="1" shadowEnabled="0" shadowOffsetX="0" shadowOffsetY="2" shadowBlur="4" shadowOpacity="160" blurEnabled="0" blurRadius="4" transform="matrix(1,0,0,1,376.5,190)" pers-center="0,0" pers-size="0,0" pers-start="0,0" pers-end="0,0" locked="0" mesh="" flag=""/>
            <path id="shapePath18" d="M300.5,299.5 C300.5,299.5 377.5,299.5 377.5,299.5 C377.5,299.5 452.5,80.5 452.5,80.5 " style="stroke:#29d914;stroke-opacity:1;stroke-width:5;stroke-linejoin:miter;stroke-miterlimit:2;stroke-linecap:round;fill:none;"/>
            <path id="markerPath18" d="M458.461,124.822 L455.74,71.0394 L420.619,111.863 L458.461,124.822 Z" style="stroke:none;fill-rule:evenodd;fill:#29d914;fill-opacity:1;"/>
        </g>
        <g id="Shape19">
            <desc shapeID="19" type="0" basicInfo-basicType="0" basicInfo-roundedRectRadius="12" basicInfo-polygonSides="6" basicInfo-starPoints="5" bounding="rect(-76,-109.5,152,219)" text="" font-familyName="Helvetica" font-pixelSize="20" font-bold="0" font-underline="0" font-alignment="1" strokeStyle="1" markerStart="0" markerEnd="1" shadowEnabled="0" shadowOffsetX="0" shadowOffsetY="2" shadowBlur="4" shadowOpacity="160" blurEnabled="0" blurRadius="4" transform="matrix(1,0,0,1,462,189.18)" pers-center="0,0" pers-size="0,0" pers-start="0,0" pers-end="0,0" locked="0" mesh="" flag=""/>
            <path id="shapePath19" d="M386,298.68 C386,298.68 463,298.68 463,298.68 C463,298.68 538,79.6801 538,79.6801 " style="stroke:#29d914;stroke-opacity:1;stroke-width:5;stroke-linejoin:miter;stroke-miterlimit:2;stroke-linecap:round;fill:none;"/>
            <path id="markerPath19" d="M543.961,124.002 L541.24,70.2195 L506.119,111.043 L543.961,124.002 Z" style="stroke:none;fill-rule:evenodd;fill:#29d914;fill-opacity:1;"/>
        </g>
        <g id="Shape20">
            <desc shapeID="20" type="0" basicInfo-basicType="0" basicInfo-roundedRectRadius="12" basicInfo-polygonSides="6" basicInfo-starPoints="5" bounding="rect(-73.5,-106,147,212)" text="" font-familyName="Helvetica" font-pixelSize="20" font-bold="0" font-underline="0" font-alignment="1" strokeStyle="1" markerStart="0" markerEnd="1" shadowEnabled="0" shadowOffsetX="0" shadowOffsetY="2" shadowBlur="4" shadowOpacity="160" blurEnabled="0" blurRadius="4" transform="matrix(1,0,0,1,539,193.5)" pers-center="0,0" pers-size="0,0" pers-start="0,0" pers-end="0,0" locked="0" mesh="" flag=""/>
            <path id="shapePath20" d="M465.5,299.5 C465.5,299.5 542.5,299.5 542.5,299.5 C542.5,299.5 612.5,87.5 612.5,87.5 " style="stroke:#29d914;stroke-opacity:1;stroke-width:5;stroke-linejoin:miter;stroke-miterlimit:2;stroke-linecap:round;fill:none;"/>
            <path id="markerPath20" d="M618.95,131.754 L615.635,78.0042 L580.967,119.212 L618.95,131.754 Z" style="stroke:none;fill-rule:evenodd;fill:#29d914;fill-opacity:1;"/>
        </g>
        <g id="Shape21">
            <desc shapeID="21" type="0" basicInfo-basicType="5" basicInfo-roundedRectRadius="12" basicInfo-polygonSides="6" basicInfo-starPoints="5" bounding="rect(-28.125,-29.4451,56.2501,58.8902)" text="" font-familyName="Helvetica" font-pixelSize="20" font-bold="0" font-underline="0" font-alignment="1" strokeStyle="0" markerStart="0" markerEnd="0" shadowEnabled="0" shadowOffsetX="0" shadowOffsetY="2" shadowBlur="4" shadowOpacity="160" blurEnabled="0" blurRadius="4" transform="matrix(-1.35884e-06,0.606668,-0.434232,-2.69539e-06,449.214,56.2537)" pers-center="0,0" pers-size="0,0" pers-start="0,0" pers-end="0,0" locked="0" mesh="" flag=""/>
            <path id="shapePath21" d="M449.214,73.3163 L436.428,39.1911 L462,39.1915 L449.214,73.3163 Z" style="stroke:#323232;stroke-opacity:1;stroke-width:2;stroke-linejoin:miter;stroke-miterlimit:2;stroke-linecap:round;fill:none;"/>
        </g>
        <g id="Shape22">
            <desc shapeID="22" type="0" basicInfo-basicType="5" basicInfo-roundedRectRadius="12" basicInfo-polygonSides="6" basicInfo-starPoints="5" bounding="rect(-28.125,-29.4451,56.2501,58.8903)" text="" font-familyName="Helvetica" font-pixelSize="20" font-bold="0" font-underline="0" font-alignment="1" strokeStyle="0" markerStart="0" markerEnd="0" shadowEnabled="0" shadowOffsetX="0" shadowOffsetY="2" shadowBlur="4" shadowOpacity="160" blurEnabled="0" blurRadius="4" transform="matrix(-1.35884e-06,0.606668,-0.434232,-2.69539e-06,538,56.2537)" pers-center="0,0" pers-size="0,0" pers-start="0,0" pers-end="0,0" locked="0" mesh="" flag=""/>
            <path id="shapePath22" d="M538,73.3163 L525.214,39.1911 L550.786,39.1915 L538,73.3163 Z" style="stroke:#323232;stroke-opacity:1;stroke-width:2;stroke-linejoin:miter;stroke-miterlimit:2;stroke-linecap:round;fill:none;"/>
        </g>
        <g id="Shape23">
            <desc shapeID="23" type="0" basicInfo-basicType="5" basicInfo-roundedRectRadius="12" basicInfo-polygonSides="6" basicInfo-starPoints="5" bounding="rect(-28.125,-29.4451,56.2501,58.8903)" text="" font-familyName="Helvetica" font-pixelSize="20" font-bold="0" font-underline="0" font-alignment="1" strokeStyle="0" markerStart="0" markerEnd="0" shadowEnabled="0" shadowOffsetX="0" shadowOffsetY="2" shadowBlur="4" shadowOpacity="160" blurEnabled="0" blurRadius="4" transform="matrix(-1.35884e-06,0.606668,-0.434232,-2.69539e-06,615.023,63.4374)" pers-center="0,0" pers-size="0,0" pers-start="0,0" pers-end="0,0" locked="0" mesh="" flag=""/>
            <path id="shapePath23" d="M615.023,80.5 L602.237,46.3748 L627.809,46.3752 L615.023,80.5 Z" style="stroke:#323232;stroke-opacity:1;stroke-width:2;stroke-linejoin:miter;stroke-miterlimit:2;stroke-linecap:round;fill:none;"/>
        </g>
        <g id="Shape24">
            <desc shapeID="24" type="2" basicInfo-basicType="0" basicInfo-roundedRectRadius="12" basicInfo-polygonSides="6" basicInfo-starPoints="5" bounding="rect(-22,-17,44,34)" text="Pn" font-familyName="Helvetica" font-pixelSize="20" font-bold="0" font-underline="0" font-alignment="1" strokeStyle="0" markerStart="0" markerEnd="0" shadowEnabled="0" shadowOffsetX="0" shadowOffsetY="2" shadowBlur="4" shadowOpacity="160" blurEnabled="0" blurRadius="4" transform="matrix(1,0,0,1,472.51,349.782)" pers-center="0,0" pers-size="0,0" pers-start="0,0" pers-end="0,0" locked="0" mesh="" flag=""/>
            <path id="shapePath24" d="M462,340.827 L468.455,340.827 C469.731,340.827 470.76,341.187 471.541,341.906 C472.323,342.625 472.713,343.636 472.713,344.938 C472.713,346.058 472.365,347.033 471.668,347.863 C470.972,348.693 469.901,349.108 468.455,349.108 L463.944,349.108 L463.944,355.173 L462,355.173 L462,340.827 M469.578,342.8 C469.149,342.598 468.559,342.497 467.811,342.497 L463.944,342.497 L463.944,347.468 L467.811,347.468 C468.683,347.468 469.391,347.282 469.935,346.911 C470.478,346.54 470.75,345.886 470.75,344.948 C470.75,343.893 470.36,343.177 469.578,342.8 M474.908,344.714 L476.578,344.714 L476.578,346.198 C477.073,345.586 477.597,345.147 478.151,344.88 C478.704,344.613 479.319,344.479 479.996,344.479 C481.481,344.479 482.483,344.997 483.004,346.032 C483.291,346.598 483.434,347.409 483.434,348.464 L483.434,355.173 L481.647,355.173 L481.647,348.581 C481.647,347.943 481.552,347.428 481.364,347.038 C481.051,346.387 480.485,346.061 479.664,346.061 C479.248,346.061 478.906,346.104 478.639,346.188 C478.157,346.331 477.734,346.618 477.369,347.048 C477.076,347.393 476.886,347.749 476.798,348.117 C476.71,348.485 476.666,349.011 476.666,349.694 L476.666,355.173 L474.908,355.173 L474.908,344.714 Z" style="stroke:none;fill-rule:nonzero;fill:#000000;fill-opacity:1;"/>
        </g>
        <g id="Shape25">
            <desc shapeID="25" type="0" basicInfo-basicType="4" basicInfo-roundedRectRadius="12" basicInfo-polygonSides="6" basicInfo-starPoints="5" bounding="rect(-7,-7,14,14)" text="" font-familyName="Helvetica" font-pixelSize="20" font-bold="0" font-underline="0" font-alignment="1" strokeStyle="0" markerStart="0" markerEnd="0" shadowEnabled="0" shadowOffsetX="0" shadowOffsetY="2" shadowBlur="4" shadowOpacity="160" blurEnabled="0" blurRadius="4" transform="matrix(1,0,0,1,538.5,334.5)" pers-center="0,0" pers-size="0,0" pers-start="0,0" pers-end="0,0" locked="0" mesh="" flag=""/>
            <path id="shapePath25" d="M531.5,334.5 C531.5,330.634 534.634,327.5 538.5,327.5 C542.366,327.5 545.5,330.634 545.5,334.5 C545.5,338.366 542.366,341.5 538.5,341.5 C534.634,341.5 531.5,338.366 531.5,334.5 Z" style="stroke:#323232;stroke-opacity:1;stroke-width:1;stroke-linejoin:miter;stroke-miterlimit:2;stroke-linecap:round;fill-rule:evenodd;fill:#1bdc16;fill-opacity:1;"/>
        </g>
        <g id="Shape26">
            <desc shapeID="26" type="0" basicInfo-basicType="4" basicInfo-roundedRectRadius="12" basicInfo-polygonSides="6" basicInfo-starPoints="5" bounding="rect(-7,-7,14,14)" text="" font-familyName="Helvetica" font-pixelSize="20" font-bold="0" font-underline="0" font-alignment="1" strokeStyle="0" markerStart="0" markerEnd="0" shadowEnabled="0" shadowOffsetX="0" shadowOffsetY="2" shadowBlur="4" shadowOpacity="160" blurEnabled="0" blurRadius="4" transform="matrix(1,0,0,1,449,339)" pers-center="0,0" pers-size="0,0" pers-start="0,0" pers-end="0,0" locked="0" mesh="" flag=""/>
            <path id="shapePath26" d="M442,339 C442,335.134 445.134,332 449,332 C452.866,332 456,335.134 456,339 C456,342.866 452.866,346 449,346 C445.134,346 442,342.866 442,339 Z" style="stroke:#323232;stroke-opacity:1;stroke-width:1;stroke-linejoin:miter;stroke-miterlimit:2;stroke-linecap:round;fill-rule:evenodd;fill:#1bdc16;fill-opacity:1;"/>
        </g>
        <g id="Shape27">
            <desc shapeID="27" type="0" basicInfo-basicType="4" basicInfo-roundedRectRadius="12" basicInfo-polygonSides="6" basicInfo-starPoints="5" bounding="rect(-7,-7,14,14)" text="" font-familyName="Helvetica" font-pixelSize="20" font-bold="0" font-underline="0" font-alignment="1" strokeStyle="0" markerStart="0" markerEnd="0" shadowEnabled="0" shadowOffsetX="0" shadowOffsetY="2" shadowBlur="4" shadowOpacity="160" blurEnabled="0" blurRadius="4" transform="matrix(1,0,0,1,357,345)" pers-center="0,0" pers-size="0,0" pers-start="0,0" pers-end="0,0" locked="0" mesh="" flag=""/>
            <path id="shapePath27" d="M350,345 C350,341.134 353.134,338 357,338 C360.866,338 364,341.134 364,345 C364,348.866 360.866,352 357,352 C353.134,352 350,348.866 350,345 Z" style="stroke:#323232;stroke-opacity:1;stroke-width:1;stroke-linejoin:miter;stroke-miterlimit:2;stroke-linecap:round;fill-rule:evenodd;fill:#1bdc16;fill-opacity:1;"/>
        </g>
        <g id="Shape28">
            <desc shapeID="28" type="0" basicInfo-basicType="4" basicInfo-roundedRectRadius="12" basicInfo-polygonSides="6" basicInfo-starPoints="5" bounding="rect(-7,-7,14,14)" text="" font-familyName="Helvetica" font-pixelSize="20" font-bold="0" font-underline="0" font-alignment="1" strokeStyle="0" markerStart="0" markerEnd="0" shadowEnabled="0" shadowOffsetX="0" shadowOffsetY="2" shadowBlur="4" shadowOpacity="160" blurEnabled="0" blurRadius="4" transform="matrix(1,0,0,1,614,330)" pers-center="0,0" pers-size="0,0" pers-start="0,0" pers-end="0,0" locked="0" mesh="" flag=""/>
            <path id="shapePath28" d="M607,330 C607,326.134 610.134,323 614,323 C617.866,323 621,326.134 621,330 C621,333.866 617.866,337 614,337 C610.134,337 607,333.866 607,330 Z" style="stroke:#323232;stroke-opacity:1;stroke-width:1;stroke-linejoin:miter;stroke-miterlimit:2;stroke-linecap:round;fill-rule:evenodd;fill:#1bdc16;fill-opacity:1;"/>
        </g>
        <g id="Shape29">
            <desc shapeID="29" type="2" basicInfo-basicType="0" basicInfo-roundedRectRadius="12" basicInfo-polygonSides="6" basicInfo-starPoints="5" bounding="rect(-69.7527,-19.1108,139.505,38.2215)" text="Pg (∂t/∂h ~ 0)" font-familyName="Helvetica" font-pixelSize="20" font-bold="0" font-underline="0" font-alignment="1" strokeStyle="0" markerStart="0" markerEnd="0" shadowEnabled="0" shadowOffsetX="0" shadowOffsetY="2" shadowBlur="4" shadowOpacity="160" blurEnabled="0" blurRadius="4" transform="matrix(1,0,0,1,221.108,137.448)" pers-center="0,0" pers-size="0,0" pers-start="0,0" pers-end="0,0" locked="0" mesh="" flag=""/>
            <path id="shapePath29" d="M163.255,128.384 L169.71,128.384 C170.986,128.384 172.014,128.743 172.796,129.463 C173.577,130.182 173.968,131.193 173.968,132.495 C173.968,133.615 173.619,134.59 172.923,135.42 C172.226,136.25 171.155,136.665 169.71,136.665 L165.198,136.665 L165.198,142.729 L163.255,142.729 L163.255,128.384 M170.833,130.356 C170.403,130.154 169.814,130.054 169.065,130.054 L165.198,130.054 L165.198,135.024 L169.065,135.024 C169.938,135.024 170.646,134.839 171.189,134.468 C171.733,134.097 172.005,133.442 172.005,132.505 C172.005,131.45 171.614,130.734 170.833,130.356 M182.003,132.69 C182.335,132.918 182.673,133.25 183.018,133.686 L183.018,132.368 L184.639,132.368 L184.639,141.88 C184.639,143.208 184.444,144.256 184.054,145.024 C183.324,146.444 181.947,147.153 179.923,147.153 C178.796,147.153 177.849,146.901 177.081,146.396 C176.313,145.892 175.883,145.102 175.792,144.028 L177.579,144.028 C177.664,144.497 177.833,144.858 178.087,145.112 C178.484,145.503 179.109,145.698 179.962,145.698 C181.309,145.698 182.192,145.223 182.608,144.272 C182.856,143.712 182.97,142.713 182.95,141.274 C182.598,141.808 182.175,142.205 181.681,142.466 C181.186,142.726 180.531,142.856 179.718,142.856 C178.585,142.856 177.594,142.454 176.744,141.65 C175.894,140.846 175.47,139.516 175.47,137.661 C175.47,135.91 175.898,134.542 176.754,133.559 C177.61,132.576 178.643,132.085 179.854,132.085 C180.675,132.085 181.391,132.287 182.003,132.69 M182.218,134.575 C181.684,133.95 181.003,133.638 180.177,133.638 C178.94,133.638 178.093,134.217 177.638,135.376 C177.397,135.994 177.276,136.805 177.276,137.807 C177.276,138.986 177.515,139.883 177.994,140.498 C178.473,141.113 179.115,141.421 179.923,141.421 C181.186,141.421 182.074,140.851 182.589,139.712 C182.875,139.067 183.018,138.315 183.018,137.456 C183.018,136.16 182.751,135.2 182.218,134.575 M197.448,128.149 C196.426,130.135 195.762,131.597 195.456,132.534 C194.994,133.96 194.763,135.607 194.763,137.475 C194.763,139.363 195.026,141.089 195.554,142.651 C195.879,143.615 196.52,145.001 197.477,146.811 L196.296,146.811 C195.345,145.327 194.756,144.38 194.528,143.97 C194.3,143.559 194.053,143.003 193.786,142.3 C193.421,141.336 193.167,140.307 193.024,139.214 C192.953,138.647 192.917,138.107 192.917,137.593 C192.917,135.666 193.22,133.95 193.825,132.446 C194.209,131.489 195.01,130.057 196.227,128.149 L197.448,128.149 M201.18,140.849 C201.593,141.334 202.083,141.577 202.649,141.577 C203.339,141.577 203.937,141.224 204.441,140.517 C204.946,139.811 205.198,139.025 205.198,138.159 C205.198,137.365 204.988,136.753 204.568,136.323 C204.148,135.893 203.658,135.679 203.098,135.679 C202.35,135.679 201.739,136.024 201.267,136.714 C200.795,137.404 200.559,138.153 200.559,138.96 C200.559,139.735 200.766,140.364 201.18,140.849 M204.632,134.497 C205.087,134.829 205.468,135.314 205.774,135.952 C205.781,135.685 205.789,135.428 205.799,135.181 C205.808,134.933 205.813,134.744 205.813,134.614 C205.813,133.735 205.729,132.886 205.559,132.065 C205.214,130.444 204.612,129.634 203.753,129.634 C203.518,129.634 203.317,129.679 203.147,129.77 C202.978,129.861 202.806,129.985 202.63,130.141 L201.36,128.589 C201.731,128.387 202.031,128.247 202.259,128.169 C202.636,128.039 203.04,127.973 203.47,127.973 C204.85,127.973 205.911,128.696 206.653,130.141 C207.311,131.417 207.639,133.068 207.639,135.093 C207.639,137.117 207.216,138.895 206.37,140.425 C205.374,142.209 204.026,143.1 202.327,143.1 C201.253,143.1 200.371,142.692 199.681,141.875 C198.99,141.058 198.645,140.05 198.645,138.852 C198.645,137.694 199.036,136.595 199.817,135.556 C200.598,134.518 201.617,133.999 202.874,133.999 C203.59,133.999 204.176,134.165 204.632,134.497 M209.702,129.35 L211.479,129.35 L211.479,132.27 L213.149,132.27 L213.149,133.706 L211.479,133.706 L211.479,140.532 C211.479,140.897 211.603,141.141 211.85,141.264 C211.987,141.336 212.215,141.372 212.534,141.372 C212.619,141.372 212.71,141.37 212.807,141.367 C212.905,141.364 213.019,141.356 213.149,141.343 L213.149,142.729 C212.947,142.788 212.737,142.83 212.519,142.856 C212.301,142.882 212.065,142.895 211.811,142.895 C210.991,142.895 210.434,142.685 210.141,142.265 C209.848,141.846 209.702,141.3 209.702,140.63 L209.702,133.706 L208.286,133.706 L208.286,132.27 L209.702,132.27 L209.702,129.35 M218.159,128.384 L219.643,128.384 L215.093,142.729 L213.608,142.729 L218.159,128.384 M222.148,140.849 C222.562,141.334 223.052,141.577 223.618,141.577 C224.308,141.577 224.905,141.224 225.41,140.517 C225.915,139.811 226.167,139.025 226.167,138.159 C226.167,137.365 225.957,136.753 225.537,136.323 C225.117,135.893 224.627,135.679 224.067,135.679 C223.319,135.679 222.708,136.024 222.236,136.714 C221.764,137.404 221.528,138.153 221.528,138.96 C221.528,139.735 221.735,140.364 222.148,140.849 M225.6,134.497 C226.056,134.829 226.437,135.314 226.743,135.952 C226.75,135.685 226.758,135.428 226.767,135.181 C226.777,134.933 226.782,134.744 226.782,134.614 C226.782,133.735 226.697,132.886 226.528,132.065 C226.183,130.444 225.581,129.634 224.722,129.634 C224.487,129.634 224.285,129.679 224.116,129.77 C223.947,129.861 223.774,129.985 223.598,130.141 L222.329,128.589 C222.7,128.387 223,128.247 223.227,128.169 C223.605,128.039 224.009,127.973 224.438,127.973 C225.819,127.973 226.88,128.696 227.622,130.141 C228.279,131.417 228.608,133.068 228.608,135.093 C228.608,137.117 228.185,138.895 227.339,140.425 C226.343,142.209 224.995,143.1 223.296,143.1 C222.222,143.1 221.339,142.692 220.649,141.875 C219.959,141.058 219.614,140.05 219.614,138.852 C219.614,137.694 220.005,136.595 220.786,135.556 C221.567,134.518 222.586,133.999 223.843,133.999 C224.559,133.999 225.145,134.165 225.6,134.497 M230.319,128.335 L232.077,128.335 L232.077,133.686 C232.494,133.159 232.868,132.788 233.2,132.573 C233.766,132.202 234.473,132.016 235.319,132.016 C236.836,132.016 237.865,132.547 238.405,133.608 C238.698,134.188 238.845,134.992 238.845,136.02 L238.845,142.729 L237.038,142.729 L237.038,136.138 C237.038,135.369 236.94,134.806 236.745,134.448 C236.426,133.875 235.827,133.589 234.948,133.589 C234.219,133.589 233.558,133.839 232.966,134.341 C232.373,134.842 232.077,135.789 232.077,137.182 L232.077,142.729 L230.319,142.729 L230.319,128.335 M249.495,136.02 C249.866,136.072 250.224,136.167 250.569,136.304 L252.737,137.153 C253.069,137.283 253.343,137.381 253.557,137.446 C253.903,137.544 254.205,137.593 254.466,137.593 C254.941,137.593 255.345,137.405 255.677,137.031 C256.009,136.657 256.233,136.196 256.35,135.649 L257.483,135.649 C257.32,136.574 257,137.417 256.521,138.179 C256.043,138.94 255.319,139.321 254.348,139.321 C254.056,139.321 253.707,139.263 253.304,139.145 C253.069,139.074 252.721,138.95 252.259,138.774 L250.266,138.013 C250.019,137.915 249.764,137.84 249.5,137.788 C249.236,137.736 249.02,137.71 248.85,137.71 C248.304,137.71 247.874,137.921 247.561,138.345 C247.379,138.592 247.194,139.012 247.005,139.604 L245.862,139.604 C245.973,139.064 246.093,138.603 246.223,138.223 C246.354,137.842 246.582,137.41 246.907,136.929 C247.181,136.603 247.475,136.362 247.791,136.206 C248.107,136.05 248.476,135.972 248.899,135.972 C249.088,135.972 249.287,135.988 249.495,136.02 M272.241,130.981 C272.866,132.134 273.179,133.712 273.179,135.718 C273.179,137.619 272.895,139.191 272.329,140.434 C271.509,142.218 270.167,143.11 268.306,143.11 C266.626,143.11 265.376,142.381 264.556,140.923 C263.872,139.705 263.53,138.071 263.53,136.02 C263.53,134.432 263.735,133.068 264.145,131.929 C264.914,129.806 266.304,128.745 268.315,128.745 C270.125,128.745 271.434,129.49 272.241,130.981 M270.473,140.298 C271.014,139.49 271.284,137.986 271.284,135.786 C271.284,134.197 271.089,132.89 270.698,131.865 C270.307,130.84 269.549,130.327 268.423,130.327 C267.388,130.327 266.631,130.814 266.152,131.787 C265.674,132.76 265.434,134.194 265.434,136.089 C265.434,137.514 265.587,138.66 265.893,139.526 C266.362,140.848 267.163,141.509 268.296,141.509 C269.207,141.509 269.933,141.105 270.473,140.298 M274.708,146.811 C275.743,144.793 276.41,143.322 276.71,142.397 C277.166,140.998 277.393,139.357 277.393,137.475 C277.393,135.594 277.13,133.872 276.602,132.309 C276.277,131.346 275.636,129.959 274.679,128.149 L275.86,128.149 C276.863,129.751 277.47,130.739 277.681,131.113 C277.893,131.487 278.123,132.003 278.37,132.661 C278.682,133.475 278.905,134.279 279.039,135.073 C279.172,135.867 279.239,136.632 279.239,137.368 C279.239,139.295 278.933,141.014 278.321,142.524 C277.937,143.494 277.139,144.923 275.929,146.811 L274.708,146.811 Z" style="stroke:none;fill-rule:nonzero;fill:#000000;fill-opacity:1;"/>
        </g>
        <g id="Shape30">
            <desc shapeID="30" type="2" basicInfo-basicType="0" basicInfo-roundedRectRadius="12" basicInfo-polygonSides="6" basicInfo-starPoints="5" bounding="rect(-69.7527,-19.1108,139.505,38.2215)" text="Pn (∂t/∂h &lt;&lt; 0)" font-familyName="Helvetica" font-pixelSize="20" font-bold="0" font-underline="0" font-alignment="1" strokeStyle="0" markerStart="0" markerEnd="0" shadowEnabled="0" shadowOffsetX="0" shadowOffsetY="2" shadowBlur="4" shadowOpacity="160" blurEnabled="0" blurRadius="4" transform="matrix(1,0,0,1,211.39,248.538)" pers-center="0,0" pers-size="0,0" pers-start="0,0" pers-end="0,0" locked="0" mesh="" flag=""/>
            <path id="shapePath30" d="M147.709,239.474 L154.164,239.474 C155.44,239.474 156.469,239.834 157.25,240.553 C158.031,241.272 158.422,242.283 158.422,243.585 C158.422,244.705 158.073,245.68 157.377,246.51 C156.68,247.34 155.609,247.755 154.164,247.755 L149.652,247.755 L149.652,253.82 L147.709,253.82 L147.709,239.474 M155.287,241.447 C154.857,241.245 154.268,241.144 153.519,241.144 L149.652,241.144 L149.652,246.115 L153.519,246.115 C154.392,246.115 155.1,245.929 155.643,245.558 C156.187,245.187 156.459,244.533 156.459,243.595 C156.459,242.54 156.068,241.824 155.287,241.447 M160.617,243.361 L162.287,243.361 L162.287,244.845 C162.782,244.233 163.306,243.794 163.859,243.527 C164.413,243.26 165.028,243.126 165.705,243.126 C167.189,243.126 168.192,243.644 168.713,244.679 C168.999,245.245 169.142,246.056 169.142,247.111 L169.142,253.82 L167.355,253.82 L167.355,247.228 C167.355,246.59 167.261,246.075 167.072,245.685 C166.76,245.034 166.193,244.708 165.373,244.708 C164.956,244.708 164.614,244.751 164.348,244.835 C163.866,244.978 163.443,245.265 163.078,245.695 C162.785,246.04 162.595,246.396 162.507,246.764 C162.419,247.132 162.375,247.658 162.375,248.341 L162.375,253.82 L160.617,253.82 L160.617,243.361 M181.902,239.24 C180.88,241.225 180.216,242.687 179.91,243.624 C179.448,245.05 179.217,246.697 179.217,248.566 C179.217,250.454 179.48,252.179 180.008,253.742 C180.333,254.705 180.974,256.092 181.931,257.902 L180.75,257.902 C179.799,256.417 179.21,255.47 178.982,255.06 C178.754,254.65 178.507,254.093 178.24,253.39 C177.876,252.426 177.622,251.398 177.478,250.304 C177.407,249.738 177.371,249.197 177.371,248.683 C177.371,246.756 177.674,245.04 178.279,243.536 C178.663,242.579 179.464,241.147 180.681,239.24 L181.902,239.24 M185.634,251.94 C186.047,252.425 186.537,252.667 187.103,252.667 C187.793,252.667 188.391,252.314 188.895,251.608 C189.4,250.901 189.652,250.115 189.652,249.249 C189.652,248.455 189.442,247.843 189.022,247.413 C188.602,246.984 188.112,246.769 187.553,246.769 C186.804,246.769 186.194,247.114 185.722,247.804 C185.25,248.494 185.014,249.243 185.014,250.05 C185.014,250.825 185.22,251.455 185.634,251.94 M189.086,245.587 C189.542,245.919 189.922,246.404 190.228,247.042 C190.235,246.775 190.243,246.518 190.253,246.271 C190.263,246.023 190.267,245.835 190.267,245.704 C190.267,244.825 190.183,243.976 190.014,243.156 C189.668,241.534 189.066,240.724 188.207,240.724 C187.973,240.724 187.771,240.77 187.601,240.861 C187.432,240.952 187.26,241.075 187.084,241.232 L185.814,239.679 C186.185,239.477 186.485,239.337 186.713,239.259 C187.09,239.129 187.494,239.064 187.924,239.064 C189.304,239.064 190.365,239.786 191.107,241.232 C191.765,242.508 192.094,244.158 192.094,246.183 C192.094,248.208 191.67,249.985 190.824,251.515 C189.828,253.299 188.48,254.191 186.781,254.191 C185.707,254.191 184.825,253.782 184.135,252.965 C183.445,252.148 183.099,251.141 183.099,249.943 C183.099,248.784 183.49,247.685 184.271,246.647 C185.053,245.608 186.071,245.089 187.328,245.089 C188.044,245.089 188.63,245.255 189.086,245.587 M194.156,240.441 L195.933,240.441 L195.933,243.361 L197.603,243.361 L197.603,244.796 L195.933,244.796 L195.933,251.622 C195.933,251.987 196.057,252.231 196.305,252.355 C196.441,252.426 196.669,252.462 196.988,252.462 C197.073,252.462 197.164,252.461 197.262,252.457 C197.359,252.454 197.473,252.446 197.603,252.433 L197.603,253.82 C197.402,253.878 197.192,253.921 196.973,253.947 C196.755,253.973 196.519,253.986 196.265,253.986 C195.445,253.986 194.889,253.776 194.596,253.356 C194.303,252.936 194.156,252.391 194.156,251.72 L194.156,244.796 L192.74,244.796 L192.74,243.361 L194.156,243.361 L194.156,240.441 M202.613,239.474 L204.098,239.474 L199.547,253.82 L198.062,253.82 L202.613,239.474 M206.602,251.94 C207.016,252.425 207.506,252.667 208.072,252.667 C208.762,252.667 209.36,252.314 209.864,251.608 C210.369,250.901 210.621,250.115 210.621,249.249 C210.621,248.455 210.411,247.843 209.991,247.413 C209.571,246.984 209.081,246.769 208.521,246.769 C207.773,246.769 207.162,247.114 206.69,247.804 C206.218,248.494 205.982,249.243 205.982,250.05 C205.982,250.825 206.189,251.455 206.602,251.94 M210.055,245.587 C210.51,245.919 210.891,246.404 211.197,247.042 C211.204,246.775 211.212,246.518 211.222,246.271 C211.231,246.023 211.236,245.835 211.236,245.704 C211.236,244.825 211.152,243.976 210.982,243.156 C210.637,241.534 210.035,240.724 209.176,240.724 C208.941,240.724 208.739,240.77 208.57,240.861 C208.401,240.952 208.228,241.075 208.053,241.232 L206.783,239.679 C207.154,239.477 207.454,239.337 207.681,239.259 C208.059,239.129 208.463,239.064 208.892,239.064 C210.273,239.064 211.334,239.786 212.076,241.232 C212.734,242.508 213.062,244.158 213.062,246.183 C213.062,248.208 212.639,249.985 211.793,251.515 C210.797,253.299 209.449,254.191 207.75,254.191 C206.676,254.191 205.793,253.782 205.103,252.965 C204.413,252.148 204.068,251.141 204.068,249.943 C204.068,248.784 204.459,247.685 205.24,246.647 C206.021,245.608 207.04,245.089 208.297,245.089 C209.013,245.089 209.599,245.255 210.055,245.587 M214.773,239.425 L216.531,239.425 L216.531,244.777 C216.948,244.249 217.322,243.878 217.654,243.663 C218.221,243.292 218.927,243.107 219.773,243.107 C221.29,243.107 222.319,243.637 222.859,244.699 C223.152,245.278 223.299,246.082 223.299,247.111 L223.299,253.82 L221.492,253.82 L221.492,247.228 C221.492,246.46 221.394,245.896 221.199,245.538 C220.88,244.965 220.281,244.679 219.402,244.679 C218.673,244.679 218.012,244.93 217.42,245.431 C216.827,245.932 216.531,246.88 216.531,248.273 L216.531,253.82 L214.773,253.82 L214.773,239.425 M230.414,247.902 L241.83,243.429 L241.83,245.187 L232.494,248.712 L241.83,252.247 L241.83,254.005 L230.414,249.523 L230.414,247.902 M242.086,247.902 L253.502,243.429 L253.502,245.187 L244.166,248.712 L253.502,252.247 L253.502,254.005 L242.086,249.523 L242.086,247.902 M268.367,242.072 C268.992,243.224 269.305,244.803 269.305,246.808 C269.305,248.709 269.021,250.281 268.455,251.525 C267.635,253.309 266.293,254.2 264.431,254.2 C262.752,254.2 261.502,253.471 260.681,252.013 C259.998,250.796 259.656,249.161 259.656,247.111 C259.656,245.522 259.861,244.158 260.271,243.019 C261.04,240.896 262.43,239.835 264.441,239.835 C266.251,239.835 267.56,240.581 268.367,242.072 M266.599,251.388 C267.14,250.581 267.41,249.077 267.41,246.876 C267.41,245.288 267.215,243.981 266.824,242.955 C266.433,241.93 265.675,241.417 264.549,241.417 C263.514,241.417 262.757,241.904 262.278,242.877 C261.8,243.851 261.56,245.284 261.56,247.179 C261.56,248.605 261.713,249.751 262.019,250.617 C262.488,251.938 263.289,252.599 264.422,252.599 C265.333,252.599 266.059,252.195 266.599,251.388 M270.834,257.902 C271.869,255.883 272.536,254.412 272.836,253.488 C273.292,252.088 273.519,250.447 273.519,248.566 C273.519,246.684 273.256,244.962 272.728,243.4 C272.403,242.436 271.762,241.049 270.805,239.24 L271.986,239.24 C272.989,240.841 273.596,241.829 273.807,242.203 C274.019,242.578 274.249,243.094 274.496,243.751 C274.808,244.565 275.031,245.369 275.165,246.163 C275.298,246.958 275.365,247.723 275.365,248.458 C275.365,250.385 275.059,252.104 274.447,253.615 C274.063,254.585 273.265,256.014 272.055,257.902 L270.834,257.902 Z" style="stroke:none;fill-rule:nonzero;fill:#000000;fill-opacity:1;"/>
        </g>
        <g id="Shape31">
            <desc shapeID="31" type="0" basicInfo-basicType="4" basicInfo-roundedRectRadius="12" basicInfo-polygonSides="6" basicInfo-starPoints="5" bounding="rect(-7,-7,14,14)" text="" font-familyName="Helvetica" font-pixelSize="20" font-bold="0" font-underline="0" font-alignment="1" strokeStyle="0" markerStart="0" markerEnd="0" shadowEnabled="0" shadowOffsetX="0" shadowOffsetY="2" shadowBlur="4" shadowOpacity="160" blurEnabled="0" blurRadius="4" transform="matrix(1,0,0,1,255.613,360.868)" pers-center="0,0" pers-size="0,0" pers-start="0,0" pers-end="0,0" locked="0" mesh="" flag=""/>
            <path id="shapePath31" d="M248.613,360.868 C248.613,357.002 251.747,353.868 255.613,353.868 C259.479,353.868 262.613,357.002 262.613,360.868 C262.613,364.734 259.479,367.868 255.613,367.868 C251.747,367.868 248.613,364.734 248.613,360.868 Z" style="stroke:#323232;stroke-opacity:1;stroke-width:1;stroke-linejoin:miter;stroke-miterlimit:2;stroke-linecap:round;fill-rule:evenodd;fill:#dc1a22;fill-opacity:1;"/>
        </g>
        <g id="Shape32">
            <desc shapeID="32" type="2" basicInfo-basicType="0" basicInfo-roundedRectRadius="12" basicInfo-polygonSides="6" basicInfo-starPoints="5" bounding="rect(-201.935,-15.9206,403.869,31.8412)" text="OT is driven by the fit to the more numerous Pn arrivals for the assumed depth" font-familyName="Helvetica" font-pixelSize="20" font-bold="0" font-underline="0" font-alignment="1" strokeStyle="0" markerStart="0" markerEnd="0" shadowEnabled="0" shadowOffsetX="0" shadowOffsetY="2" shadowBlur="4" shadowOpacity="160" blurEnabled="0" blurRadius="4" transform="matrix(1,0,0,1,418.527,395.804)" pers-center="0,0" pers-size="0,0" pers-start="0,0" pers-end="0,0" locked="0" mesh="" flag=""/>
            <path id="shapePath32" d="M237.164,378.994 C238.115,380.263 238.59,381.888 238.59,383.867 C238.59,386.009 238.046,387.789 236.959,389.209 C235.683,390.875 233.863,391.709 231.5,391.709 C229.293,391.709 227.558,390.979 226.295,389.521 C225.169,388.115 224.605,386.337 224.605,384.189 C224.605,382.249 225.087,380.589 226.051,379.209 C227.288,377.438 229.117,376.552 231.539,376.552 C234.072,376.552 235.947,377.366 237.164,378.994 M235.45,388.129 C236.215,386.902 236.598,385.491 236.598,383.896 C236.598,382.21 236.157,380.852 235.274,379.824 C234.392,378.795 233.186,378.281 231.656,378.281 C230.172,378.281 228.961,378.79 228.023,379.809 C227.086,380.828 226.617,382.33 226.617,384.316 C226.617,385.905 227.019,387.244 227.823,388.335 C228.627,389.425 229.931,389.97 231.734,389.97 C233.447,389.97 234.685,389.357 235.45,388.129 M251.334,376.943 L251.334,378.652 L246.5,378.652 L246.5,391.289 L244.527,391.289 L244.527,378.652 L239.693,378.652 L239.693,376.943 L251.334,376.943 M258.066,380.879 L259.853,380.879 L259.853,391.289 L258.066,391.289 L258.066,380.879 M258.066,376.943 L259.853,376.943 L259.853,378.935 L258.066,378.935 L258.066,376.943 M263.549,388.007 C263.601,388.593 263.747,389.043 263.988,389.355 C264.431,389.921 265.199,390.205 266.293,390.205 C266.944,390.205 267.517,390.063 268.012,389.78 C268.506,389.497 268.754,389.059 268.754,388.466 C268.754,388.017 268.555,387.675 268.158,387.441 C267.904,387.298 267.403,387.132 266.654,386.943 L265.258,386.591 C264.366,386.37 263.708,386.123 263.285,385.849 C262.53,385.374 262.152,384.716 262.152,383.877 C262.152,382.887 262.509,382.086 263.222,381.474 C263.935,380.862 264.893,380.556 266.098,380.556 C267.673,380.556 268.809,381.018 269.506,381.943 C269.942,382.529 270.154,383.16 270.141,383.837 L268.48,383.837 C268.448,383.44 268.308,383.079 268.06,382.754 C267.657,382.291 266.957,382.06 265.961,382.06 C265.297,382.06 264.794,382.187 264.452,382.441 C264.11,382.695 263.939,383.03 263.939,383.447 C263.939,383.903 264.164,384.267 264.613,384.541 C264.874,384.703 265.258,384.847 265.766,384.97 L266.928,385.254 C268.191,385.56 269.037,385.856 269.467,386.142 C270.15,386.591 270.492,387.298 270.492,388.261 C270.492,389.192 270.139,389.996 269.433,390.673 C268.726,391.351 267.65,391.689 266.205,391.689 C264.649,391.689 263.547,391.336 262.899,390.629 C262.252,389.923 261.905,389.049 261.859,388.007 L263.549,388.007 M279.877,388.994 C280.352,389.749 281.114,390.127 282.162,390.127 C282.976,390.127 283.645,389.777 284.169,389.077 C284.693,388.377 284.955,387.373 284.955,386.064 C284.955,384.742 284.685,383.764 284.144,383.129 C283.604,382.495 282.937,382.177 282.143,382.177 C281.257,382.177 280.539,382.516 279.989,383.193 C279.439,383.87 279.164,384.866 279.164,386.181 C279.164,387.301 279.402,388.239 279.877,388.994 M283.822,381.152 C284.135,381.347 284.49,381.689 284.887,382.177 L284.887,376.894 L286.576,376.894 L286.576,391.289 L284.994,391.289 L284.994,389.834 C284.584,390.478 284.099,390.944 283.539,391.23 C282.979,391.517 282.338,391.66 281.615,391.66 C280.45,391.66 279.441,391.17 278.588,390.19 C277.735,389.21 277.309,387.906 277.309,386.279 C277.309,384.755 277.698,383.435 278.476,382.319 C279.254,381.202 280.365,380.644 281.81,380.644 C282.611,380.644 283.282,380.813 283.822,381.152 M289.209,380.83 L290.879,380.83 L290.879,382.636 C291.016,382.285 291.351,381.857 291.885,381.352 C292.419,380.848 293.034,380.595 293.73,380.595 C293.763,380.595 293.818,380.599 293.896,380.605 C293.975,380.612 294.108,380.625 294.297,380.644 L294.297,382.5 C294.193,382.48 294.097,382.467 294.009,382.461 C293.921,382.454 293.825,382.451 293.721,382.451 C292.835,382.451 292.155,382.736 291.68,383.305 C291.204,383.875 290.967,384.531 290.967,385.273 L290.967,391.289 L289.209,391.289 L289.209,380.83 M295.816,380.879 L297.603,380.879 L297.603,391.289 L295.816,391.289 L295.816,380.879 M295.816,376.943 L297.603,376.943 L297.603,378.935 L295.816,378.935 L295.816,376.943 M301.113,380.83 L303.906,389.345 L306.826,380.83 L308.75,380.83 L304.805,391.289 L302.93,391.289 L299.072,380.83 L301.113,380.83 M316.768,381.118 C317.464,381.466 317.995,381.917 318.359,382.47 C318.711,382.998 318.945,383.613 319.062,384.316 C319.167,384.798 319.219,385.566 319.219,386.621 L311.553,386.621 C311.585,387.682 311.836,388.533 312.305,389.174 C312.773,389.816 313.499,390.136 314.482,390.136 C315.4,390.136 316.133,389.834 316.68,389.228 C316.992,388.877 317.213,388.47 317.344,388.007 L319.072,388.007 C319.027,388.392 318.875,388.82 318.618,389.292 C318.361,389.764 318.073,390.149 317.754,390.449 C317.22,390.97 316.559,391.321 315.771,391.504 C315.348,391.608 314.87,391.66 314.336,391.66 C313.034,391.66 311.93,391.186 311.025,390.239 C310.12,389.292 309.668,387.965 309.668,386.259 C309.668,384.58 310.124,383.216 311.035,382.168 C311.947,381.119 313.138,380.595 314.609,380.595 C315.352,380.595 316.071,380.769 316.768,381.118 M317.412,385.224 C317.34,384.462 317.174,383.854 316.914,383.398 C316.432,382.552 315.628,382.129 314.502,382.129 C313.695,382.129 313.018,382.42 312.471,383.003 C311.924,383.585 311.634,384.326 311.602,385.224 L317.412,385.224 M321.363,380.83 L323.033,380.83 L323.033,382.314 C323.528,381.702 324.052,381.263 324.605,380.996 C325.159,380.729 325.774,380.595 326.451,380.595 C327.935,380.595 328.938,381.113 329.459,382.148 C329.745,382.714 329.889,383.525 329.889,384.58 L329.889,391.289 L328.102,391.289 L328.102,384.697 C328.102,384.059 328.007,383.545 327.818,383.154 C327.506,382.503 326.939,382.177 326.119,382.177 C325.702,382.177 325.361,382.22 325.094,382.304 C324.612,382.448 324.189,382.734 323.824,383.164 C323.531,383.509 323.341,383.865 323.253,384.233 C323.165,384.601 323.121,385.127 323.121,385.81 L323.121,391.289 L321.363,391.289 L321.363,380.83 M337.883,376.894 L339.592,376.894 L339.592,382.099 C339.976,381.598 340.435,381.215 340.969,380.952 C341.503,380.688 342.082,380.556 342.707,380.556 C344.009,380.556 345.065,381.004 345.876,381.899 C346.686,382.794 347.092,384.114 347.092,385.859 C347.092,387.513 346.691,388.886 345.891,389.98 C345.09,391.074 343.98,391.621 342.56,391.621 C341.766,391.621 341.096,391.429 340.549,391.045 C340.223,390.817 339.875,390.452 339.504,389.951 L339.504,391.289 L337.883,391.289 L337.883,376.894 M344.587,388.935 C345.059,388.18 345.295,387.184 345.295,385.947 C345.295,384.847 345.059,383.935 344.587,383.212 C344.115,382.49 343.42,382.129 342.502,382.129 C341.701,382.129 341,382.425 340.397,383.017 C339.795,383.61 339.494,384.586 339.494,385.947 C339.494,386.93 339.618,387.727 339.865,388.339 C340.327,389.492 341.19,390.068 342.453,390.068 C343.404,390.068 344.115,389.69 344.587,388.935 M355.662,380.83 L357.605,380.83 C357.358,381.5 356.808,383.03 355.955,385.42 C355.317,387.216 354.783,388.681 354.353,389.814 C353.338,392.483 352.622,394.111 352.205,394.697 C351.788,395.283 351.072,395.576 350.057,395.576 C349.809,395.576 349.619,395.566 349.485,395.546 C349.352,395.527 349.187,395.491 348.992,395.439 L348.992,393.837 C349.298,393.922 349.519,393.974 349.656,393.994 C349.793,394.013 349.913,394.023 350.018,394.023 C350.343,394.023 350.582,393.969 350.735,393.862 C350.888,393.754 351.017,393.623 351.121,393.466 C351.154,393.414 351.271,393.147 351.473,392.666 C351.674,392.184 351.821,391.826 351.912,391.591 L348.045,380.83 L350.037,380.83 L352.84,389.345 L355.662,380.83 M365.027,377.91 L366.805,377.91 L366.805,380.83 L368.475,380.83 L368.475,382.265 L366.805,382.265 L366.805,389.091 C366.805,389.456 366.928,389.7 367.176,389.824 C367.312,389.895 367.54,389.931 367.859,389.931 C367.944,389.931 368.035,389.93 368.133,389.926 C368.23,389.923 368.344,389.915 368.475,389.902 L368.475,391.289 C368.273,391.347 368.063,391.39 367.845,391.416 C367.627,391.442 367.391,391.455 367.137,391.455 C366.316,391.455 365.76,391.245 365.467,390.825 C365.174,390.405 365.027,389.86 365.027,389.189 L365.027,382.265 L363.611,382.265 L363.611,380.83 L365.027,380.83 L365.027,377.91 M370.223,376.894 L371.98,376.894 L371.98,382.246 C372.397,381.718 372.771,381.347 373.103,381.132 C373.67,380.761 374.376,380.576 375.223,380.576 C376.74,380.576 377.768,381.106 378.309,382.168 C378.602,382.747 378.748,383.551 378.748,384.58 L378.748,391.289 L376.941,391.289 L376.941,384.697 C376.941,383.929 376.844,383.365 376.648,383.007 C376.329,382.435 375.73,382.148 374.852,382.148 C374.122,382.148 373.462,382.399 372.869,382.9 C372.277,383.401 371.98,384.349 371.98,385.742 L371.98,391.289 L370.223,391.289 L370.223,376.894 M387.846,381.118 C388.542,381.466 389.073,381.917 389.437,382.47 C389.789,382.998 390.023,383.613 390.141,384.316 C390.245,384.798 390.297,385.566 390.297,386.621 L382.631,386.621 C382.663,387.682 382.914,388.533 383.383,389.174 C383.852,389.816 384.577,390.136 385.56,390.136 C386.478,390.136 387.211,389.834 387.758,389.228 C388.07,388.877 388.292,388.47 388.422,388.007 L390.15,388.007 C390.105,388.392 389.953,388.82 389.696,389.292 C389.439,389.764 389.151,390.149 388.832,390.449 C388.298,390.97 387.637,391.321 386.85,391.504 C386.426,391.608 385.948,391.66 385.414,391.66 C384.112,391.66 383.008,391.186 382.103,390.239 C381.199,389.292 380.746,387.965 380.746,386.259 C380.746,384.58 381.202,383.216 382.113,382.168 C383.025,381.119 384.216,380.595 385.687,380.595 C386.43,380.595 387.149,380.769 387.846,381.118 M388.49,385.224 C388.419,384.462 388.253,383.854 387.992,383.398 C387.51,382.552 386.706,382.129 385.58,382.129 C384.773,382.129 384.096,382.42 383.549,383.003 C383.002,383.585 382.712,384.326 382.68,385.224 L388.49,385.224 M398.809,377.636 C399.219,377.037 400.01,376.738 401.182,376.738 C401.292,376.738 401.406,376.741 401.523,376.748 C401.641,376.754 401.774,376.764 401.924,376.777 L401.924,378.379 C401.741,378.365 401.61,378.357 401.528,378.354 C401.447,378.351 401.37,378.349 401.299,378.349 C400.765,378.349 400.446,378.488 400.342,378.764 C400.238,379.041 400.185,379.746 400.185,380.879 L401.924,380.879 L401.924,382.265 L400.166,382.265 L400.166,391.289 L398.428,391.289 L398.428,382.265 L396.973,382.265 L396.973,380.879 L398.428,380.879 L398.428,379.238 C398.454,378.509 398.581,377.975 398.809,377.636 M403.613,378.935 L403.613,376.943 L405.371,376.943 L405.371,378.935 L403.613,378.935 M403.613,380.879 L405.371,380.879 L405.371,391.289 L403.613,391.289 L403.613,380.879 M408.34,377.91 L410.117,377.91 L410.117,380.83 L411.787,380.83 L411.787,382.265 L410.117,382.265 L410.117,389.091 C410.117,389.456 410.241,389.7 410.488,389.824 C410.625,389.895 410.853,389.931 411.172,389.931 C411.256,389.931 411.348,389.93 411.445,389.926 C411.543,389.923 411.657,389.915 411.787,389.902 L411.787,391.289 C411.585,391.347 411.375,391.39 411.157,391.416 C410.939,391.442 410.703,391.455 410.449,391.455 C409.629,391.455 409.072,391.245 408.779,390.825 C408.486,390.405 408.34,389.86 408.34,389.189 L408.34,382.265 L406.924,382.265 L406.924,380.83 L408.34,380.83 L408.34,377.91 M419.434,377.91 L421.211,377.91 L421.211,380.83 L422.881,380.83 L422.881,382.265 L421.211,382.265 L421.211,389.091 C421.211,389.456 421.335,389.7 421.582,389.824 C421.719,389.895 421.947,389.931 422.266,389.931 C422.35,389.931 422.441,389.93 422.539,389.926 C422.637,389.923 422.751,389.915 422.881,389.902 L422.881,391.289 C422.679,391.347 422.469,391.39 422.251,391.416 C422.033,391.442 421.797,391.455 421.543,391.455 C420.723,391.455 420.166,391.245 419.873,390.825 C419.58,390.405 419.434,389.86 419.434,389.189 L419.434,382.265 L418.018,382.265 L418.018,380.83 L419.434,380.83 L419.434,377.91 M431.177,388.833 C431.61,387.95 431.826,386.969 431.826,385.888 C431.826,384.912 431.67,384.117 431.357,383.505 C430.863,382.542 430.01,382.06 428.799,382.06 C427.725,382.06 426.943,382.47 426.455,383.291 C425.967,384.111 425.723,385.101 425.723,386.259 C425.723,387.373 425.967,388.3 426.455,389.043 C426.943,389.785 427.718,390.156 428.779,390.156 C429.945,390.156 430.744,389.715 431.177,388.833 M432.266,381.875 C433.197,382.773 433.662,384.095 433.662,385.839 C433.662,387.526 433.252,388.919 432.432,390.019 C431.611,391.119 430.338,391.67 428.613,391.67 C427.174,391.67 426.032,391.183 425.185,390.21 C424.339,389.236 423.916,387.929 423.916,386.289 C423.916,384.531 424.362,383.131 425.254,382.089 C426.146,381.048 427.344,380.527 428.848,380.527 C430.195,380.527 431.335,380.976 432.266,381.875 M441.637,377.91 L443.414,377.91 L443.414,380.83 L445.084,380.83 L445.084,382.265 L443.414,382.265 L443.414,389.091 C443.414,389.456 443.538,389.7 443.785,389.824 C443.922,389.895 444.15,389.931 444.469,389.931 C444.553,389.931 444.644,389.93 444.742,389.926 C444.84,389.923 444.954,389.915 445.084,389.902 L445.084,391.289 C444.882,391.347 444.672,391.39 444.454,391.416 C444.236,391.442 444,391.455 443.746,391.455 C442.926,391.455 442.369,391.245 442.076,390.825 C441.783,390.405 441.637,389.86 441.637,389.189 L441.637,382.265 L440.221,382.265 L440.221,380.83 L441.637,380.83 L441.637,377.91 M446.832,376.894 L448.59,376.894 L448.59,382.246 C449.006,381.718 449.381,381.347 449.713,381.132 C450.279,380.761 450.986,380.576 451.832,380.576 C453.349,380.576 454.378,381.106 454.918,382.168 C455.211,382.747 455.357,383.551 455.357,384.58 L455.357,391.289 L453.551,391.289 L453.551,384.697 C453.551,383.929 453.453,383.365 453.258,383.007 C452.939,382.435 452.34,382.148 451.461,382.148 C450.732,382.148 450.071,382.399 449.478,382.9 C448.886,383.401 448.59,384.349 448.59,385.742 L448.59,391.289 L446.832,391.289 L446.832,376.894 M464.455,381.118 C465.152,381.466 465.682,381.917 466.047,382.47 C466.398,382.998 466.633,383.613 466.75,384.316 C466.854,384.798 466.906,385.566 466.906,386.621 L459.24,386.621 C459.273,387.682 459.523,388.533 459.992,389.174 C460.461,389.816 461.187,390.136 462.17,390.136 C463.088,390.136 463.82,389.834 464.367,389.228 C464.68,388.877 464.901,388.47 465.031,388.007 L466.76,388.007 C466.714,388.392 466.563,388.82 466.306,389.292 C466.048,389.764 465.76,390.149 465.441,390.449 C464.908,390.97 464.247,391.321 463.459,391.504 C463.036,391.608 462.557,391.66 462.023,391.66 C460.721,391.66 459.618,391.186 458.713,390.239 C457.808,389.292 457.355,387.965 457.355,386.259 C457.355,384.58 457.811,383.216 458.723,382.168 C459.634,381.119 460.825,380.595 462.297,380.595 C463.039,380.595 463.758,380.769 464.455,381.118 M465.1,385.224 C465.028,384.462 464.862,383.854 464.602,383.398 C464.12,382.552 463.316,382.129 462.189,382.129 C461.382,382.129 460.705,382.42 460.158,383.003 C459.611,383.585 459.322,384.326 459.289,385.224 L465.1,385.224 M474.598,380.83 L476.336,380.83 L476.336,382.314 C476.753,381.8 477.13,381.425 477.469,381.191 C478.048,380.794 478.706,380.595 479.441,380.595 C480.275,380.595 480.945,380.8 481.453,381.211 C481.74,381.445 482,381.79 482.234,382.246 C482.625,381.686 483.084,381.271 483.611,381.001 C484.139,380.73 484.731,380.595 485.389,380.595 C486.795,380.595 487.752,381.103 488.26,382.119 C488.533,382.666 488.67,383.401 488.67,384.326 L488.67,391.289 L486.844,391.289 L486.844,384.023 C486.844,383.326 486.67,382.848 486.321,382.587 C485.973,382.327 485.548,382.197 485.047,382.197 C484.357,382.197 483.763,382.428 483.265,382.89 C482.767,383.352 482.518,384.124 482.518,385.205 L482.518,391.289 L480.73,391.289 L480.73,384.462 C480.73,383.753 480.646,383.235 480.477,382.91 C480.21,382.421 479.712,382.177 478.982,382.177 C478.318,382.177 477.714,382.435 477.171,382.949 C476.627,383.463 476.355,384.394 476.355,385.742 L476.355,391.289 L474.598,391.289 L474.598,380.83 M497.802,388.833 C498.235,387.95 498.451,386.969 498.451,385.888 C498.451,384.912 498.295,384.117 497.982,383.505 C497.488,382.542 496.635,382.06 495.424,382.06 C494.35,382.06 493.568,382.47 493.08,383.291 C492.592,384.111 492.348,385.101 492.348,386.259 C492.348,387.373 492.592,388.3 493.08,389.043 C493.568,389.785 494.343,390.156 495.404,390.156 C496.57,390.156 497.369,389.715 497.802,388.833 M498.891,381.875 C499.822,382.773 500.287,384.095 500.287,385.839 C500.287,387.526 499.877,388.919 499.057,390.019 C498.236,391.119 496.963,391.67 495.238,391.67 C493.799,391.67 492.657,391.183 491.81,390.21 C490.964,389.236 490.541,387.929 490.541,386.289 C490.541,384.531 490.987,383.131 491.879,382.089 C492.771,381.048 493.969,380.527 495.473,380.527 C496.82,380.527 497.96,380.976 498.891,381.875 M502.412,380.83 L504.082,380.83 L504.082,382.636 C504.219,382.285 504.554,381.857 505.088,381.352 C505.622,380.848 506.237,380.595 506.934,380.595 C506.966,380.595 507.021,380.599 507.1,380.605 C507.178,380.612 507.311,380.625 507.5,380.644 L507.5,382.5 C507.396,382.48 507.3,382.467 507.212,382.461 C507.124,382.454 507.028,382.451 506.924,382.451 C506.038,382.451 505.358,382.736 504.883,383.305 C504.408,383.875 504.17,384.531 504.17,385.273 L504.17,391.289 L502.412,391.289 L502.412,380.83 M515.533,381.118 C516.23,381.466 516.76,381.917 517.125,382.47 C517.477,382.998 517.711,383.613 517.828,384.316 C517.932,384.798 517.984,385.566 517.984,386.621 L510.318,386.621 C510.351,387.682 510.602,388.533 511.07,389.174 C511.539,389.816 512.265,390.136 513.248,390.136 C514.166,390.136 514.898,389.834 515.445,389.228 C515.758,388.877 515.979,388.47 516.109,388.007 L517.838,388.007 C517.792,388.392 517.641,388.82 517.384,389.292 C517.127,389.764 516.839,390.149 516.519,390.449 C515.986,390.97 515.325,391.321 514.537,391.504 C514.114,391.608 513.635,391.66 513.102,391.66 C511.799,391.66 510.696,391.186 509.791,390.239 C508.886,389.292 508.434,387.965 508.434,386.259 C508.434,384.58 508.889,383.216 509.801,382.168 C510.712,381.119 511.904,380.595 513.375,380.595 C514.117,380.595 514.837,380.769 515.533,381.118 M516.178,385.224 C516.106,384.462 515.94,383.854 515.68,383.398 C515.198,382.552 514.394,382.129 513.268,382.129 C512.46,382.129 511.783,382.42 511.236,383.003 C510.689,383.585 510.4,384.326 510.367,385.224 L516.178,385.224 M525.676,380.83 L527.346,380.83 L527.346,382.314 C527.84,381.702 528.365,381.263 528.918,380.996 C529.471,380.729 530.087,380.595 530.764,380.595 C532.248,380.595 533.251,381.113 533.771,382.148 C534.058,382.714 534.201,383.525 534.201,384.58 L534.201,391.289 L532.414,391.289 L532.414,384.697 C532.414,384.059 532.32,383.545 532.131,383.154 C531.818,382.503 531.252,382.177 530.432,382.177 C530.015,382.177 529.673,382.22 529.406,382.304 C528.924,382.448 528.501,382.734 528.137,383.164 C527.844,383.509 527.653,383.865 527.565,384.233 C527.477,384.601 527.434,385.127 527.434,385.81 L527.434,391.289 L525.676,391.289 L525.676,380.83 M538.543,380.83 L538.543,387.773 C538.543,388.307 538.628,388.743 538.797,389.082 C539.109,389.707 539.692,390.019 540.545,390.019 C541.769,390.019 542.602,389.472 543.045,388.379 C543.286,387.793 543.406,386.989 543.406,385.966 L543.406,380.83 L545.164,380.83 L545.164,391.289 L543.504,391.289 L543.523,389.746 C543.296,390.143 543.012,390.478 542.674,390.752 C542.003,391.298 541.189,391.572 540.232,391.572 C538.741,391.572 537.726,391.074 537.185,390.078 C536.893,389.544 536.746,388.831 536.746,387.939 L536.746,380.83 L538.543,380.83 M547.894,380.83 L549.633,380.83 L549.633,382.314 C550.049,381.8 550.427,381.425 550.766,381.191 C551.345,380.794 552.003,380.595 552.738,380.595 C553.572,380.595 554.242,380.8 554.75,381.211 C555.036,381.445 555.297,381.79 555.531,382.246 C555.922,381.686 556.381,381.271 556.908,381.001 C557.435,380.73 558.028,380.595 558.685,380.595 C560.092,380.595 561.049,381.103 561.557,382.119 C561.83,382.666 561.967,383.401 561.967,384.326 L561.967,391.289 L560.141,391.289 L560.141,384.023 C560.141,383.326 559.966,382.848 559.618,382.587 C559.27,382.327 558.845,382.197 558.344,382.197 C557.654,382.197 557.06,382.428 556.561,382.89 C556.063,383.352 555.814,384.124 555.814,385.205 L555.814,391.289 L554.027,391.289 L554.027,384.462 C554.027,383.753 553.943,383.235 553.773,382.91 C553.506,382.421 553.008,382.177 552.279,382.177 C551.615,382.177 551.011,382.435 550.468,382.949 C549.924,383.463 549.652,384.394 549.652,385.742 L549.652,391.289 L547.894,391.289 L547.894,380.83 M571.064,381.118 C571.761,381.466 572.292,381.917 572.656,382.47 C573.008,382.998 573.242,383.613 573.359,384.316 C573.464,384.798 573.516,385.566 573.516,386.621 L565.85,386.621 C565.882,387.682 566.133,388.533 566.602,389.174 C567.07,389.816 567.796,390.136 568.779,390.136 C569.697,390.136 570.43,389.834 570.977,389.228 C571.289,388.877 571.51,388.47 571.641,388.007 L573.369,388.007 C573.323,388.392 573.172,388.82 572.915,389.292 C572.658,389.764 572.37,390.149 572.051,390.449 C571.517,390.97 570.856,391.321 570.068,391.504 C569.645,391.608 569.167,391.66 568.633,391.66 C567.331,391.66 566.227,391.186 565.322,390.239 C564.417,389.292 563.965,387.965 563.965,386.259 C563.965,384.58 564.421,383.216 565.332,382.168 C566.243,381.119 567.435,380.595 568.906,380.595 C569.648,380.595 570.368,380.769 571.064,381.118 M571.709,385.224 C571.637,384.462 571.471,383.854 571.211,383.398 C570.729,382.552 569.925,382.129 568.799,382.129 C567.991,382.129 567.314,382.42 566.768,383.003 C566.221,383.585 565.931,384.326 565.898,385.224 L571.709,385.224 M575.709,380.83 L577.379,380.83 L577.379,382.636 C577.516,382.285 577.851,381.857 578.385,381.352 C578.919,380.848 579.534,380.595 580.23,380.595 C580.263,380.595 580.318,380.599 580.396,380.605 C580.475,380.612 580.608,380.625 580.797,380.644 L580.797,382.5 C580.693,382.48 580.597,382.467 580.509,382.461 C580.421,382.454 580.325,382.451 580.221,382.451 C579.335,382.451 578.655,382.736 578.18,383.305 C577.704,383.875 577.467,384.531 577.467,385.273 L577.467,391.289 L575.709,391.289 L575.709,380.83 M588.864,388.833 C589.297,387.95 589.514,386.969 589.514,385.888 C589.514,384.912 589.357,384.117 589.045,383.505 C588.55,382.542 587.697,382.06 586.486,382.06 C585.412,382.06 584.631,382.47 584.143,383.291 C583.654,384.111 583.41,385.101 583.41,386.259 C583.41,387.373 583.654,388.3 584.143,389.043 C584.631,389.785 585.406,390.156 586.467,390.156 C587.632,390.156 588.431,389.715 588.864,388.833 M589.953,381.875 C590.884,382.773 591.35,384.095 591.35,385.839 C591.35,387.526 590.939,388.919 590.119,390.019 C589.299,391.119 588.026,391.67 586.301,391.67 C584.862,391.67 583.719,391.183 582.873,390.21 C582.027,389.236 581.603,387.929 581.603,386.289 C581.603,384.531 582.049,383.131 582.941,382.089 C583.833,381.048 585.031,380.527 586.535,380.527 C587.883,380.527 589.022,380.976 589.953,381.875 M595.184,380.83 L595.184,387.773 C595.184,388.307 595.268,388.743 595.437,389.082 C595.75,389.707 596.333,390.019 597.185,390.019 C598.409,390.019 599.243,389.472 599.685,388.379 C599.926,387.793 600.047,386.989 600.047,385.966 L600.047,380.83 L601.805,380.83 L601.805,391.289 L600.144,391.289 L600.164,389.746 C599.936,390.143 599.653,390.478 599.314,390.752 C598.644,391.298 597.83,391.572 596.873,391.572 C595.382,391.572 594.366,391.074 593.826,390.078 C593.533,389.544 593.387,388.831 593.387,387.939 L593.387,380.83 L595.184,380.83 M605.58,388.007 C605.632,388.593 605.779,389.043 606.019,389.355 C606.462,389.921 607.23,390.205 608.324,390.205 C608.975,390.205 609.548,390.063 610.043,389.78 C610.538,389.497 610.785,389.059 610.785,388.466 C610.785,388.017 610.587,387.675 610.189,387.441 C609.935,387.298 609.434,387.132 608.685,386.943 L607.289,386.591 C606.397,386.37 605.74,386.123 605.316,385.849 C604.561,385.374 604.184,384.716 604.184,383.877 C604.184,382.887 604.54,382.086 605.253,381.474 C605.966,380.862 606.924,380.556 608.129,380.556 C609.704,380.556 610.84,381.018 611.537,381.943 C611.973,382.529 612.185,383.16 612.172,383.837 L610.512,383.837 C610.479,383.44 610.339,383.079 610.092,382.754 C609.688,382.291 608.988,382.06 607.992,382.06 C607.328,382.06 606.825,382.187 606.483,382.441 C606.142,382.695 605.971,383.03 605.971,383.447 C605.971,383.903 606.195,384.267 606.644,384.541 C606.905,384.703 607.289,384.847 607.797,384.97 L608.959,385.254 C610.222,385.56 611.068,385.856 611.498,386.142 C612.182,386.591 612.523,387.298 612.523,388.261 C612.523,389.192 612.17,389.996 611.464,390.673 C610.757,391.351 609.682,391.689 608.236,391.689 C606.68,391.689 605.578,391.336 604.931,390.629 C604.283,389.923 603.936,389.049 603.891,388.007 L605.58,388.007 M270.877,396.943 L277.332,396.943 C278.608,396.943 279.637,397.303 280.418,398.022 C281.199,398.741 281.59,399.752 281.59,401.054 C281.59,402.174 281.241,403.149 280.545,403.979 C279.848,404.809 278.777,405.224 277.332,405.224 L272.82,405.224 L272.82,411.289 L270.877,411.289 L270.877,396.943 M278.455,398.916 C278.025,398.714 277.436,398.613 276.687,398.613 L272.82,398.613 L272.82,403.584 L276.687,403.584 C277.56,403.584 278.268,403.398 278.811,403.027 C279.355,402.656 279.627,402.002 279.627,401.064 C279.627,400.009 279.236,399.293 278.455,398.916 M283.785,400.83 L285.455,400.83 L285.455,402.314 C285.95,401.702 286.474,401.263 287.027,400.996 C287.581,400.729 288.196,400.595 288.873,400.595 C290.357,400.595 291.36,401.113 291.881,402.148 C292.167,402.714 292.31,403.525 292.31,404.58 L292.31,411.289 L290.523,411.289 L290.523,404.697 C290.523,404.059 290.429,403.545 290.24,403.154 C289.928,402.503 289.361,402.177 288.541,402.177 C288.124,402.177 287.782,402.22 287.516,402.304 C287.034,402.448 286.611,402.734 286.246,403.164 C285.953,403.509 285.763,403.865 285.675,404.233 C285.587,404.601 285.543,405.127 285.543,405.81 L285.543,411.289 L283.785,411.289 L283.785,400.83 M302.346,409.707 C302.717,410 303.156,410.146 303.664,410.146 C304.283,410.146 304.881,410.003 305.461,409.716 C306.437,409.241 306.926,408.463 306.926,407.382 L306.926,405.966 C306.711,406.103 306.434,406.217 306.096,406.308 C305.757,406.399 305.425,406.464 305.1,406.504 L304.035,406.64 C303.397,406.725 302.919,406.858 302.6,407.041 C302.059,407.347 301.789,407.835 301.789,408.505 C301.789,409.013 301.975,409.414 302.346,409.707 M306.047,404.951 C306.45,404.899 306.721,404.729 306.857,404.443 C306.935,404.287 306.975,404.062 306.975,403.769 C306.975,403.17 306.761,402.736 306.335,402.465 C305.908,402.195 305.298,402.06 304.504,402.06 C303.586,402.06 302.935,402.308 302.551,402.802 C302.336,403.076 302.196,403.483 302.131,404.023 L300.49,404.023 C300.523,402.734 300.941,401.837 301.745,401.333 C302.549,400.828 303.482,400.576 304.543,400.576 C305.773,400.576 306.773,400.81 307.541,401.279 C308.303,401.748 308.684,402.477 308.684,403.466 L308.684,409.492 C308.684,409.674 308.721,409.821 308.796,409.931 C308.871,410.042 309.029,410.097 309.269,410.097 C309.348,410.097 309.435,410.092 309.533,410.083 C309.631,410.073 309.735,410.058 309.846,410.039 L309.846,411.337 C309.572,411.416 309.364,411.464 309.221,411.484 C309.077,411.504 308.882,411.513 308.635,411.513 C308.029,411.513 307.59,411.298 307.316,410.869 C307.173,410.641 307.072,410.319 307.014,409.902 C306.656,410.371 306.141,410.778 305.471,411.123 C304.8,411.468 304.061,411.64 303.254,411.64 C302.284,411.64 301.491,411.346 300.876,410.756 C300.261,410.167 299.953,409.43 299.953,408.545 C299.953,407.574 300.256,406.823 300.861,406.289 C301.467,405.755 302.261,405.426 303.244,405.302 L306.047,404.951 M311.6,400.83 L313.269,400.83 L313.269,402.636 C313.406,402.285 313.741,401.857 314.275,401.352 C314.809,400.848 315.424,400.595 316.121,400.595 C316.154,400.595 316.209,400.599 316.287,400.605 C316.365,400.612 316.499,400.625 316.687,400.644 L316.687,402.5 C316.583,402.48 316.487,402.467 316.399,402.461 C316.311,402.454 316.215,402.451 316.111,402.451 C315.226,402.451 314.546,402.736 314.07,403.305 C313.595,403.875 313.357,404.531 313.357,405.273 L313.357,411.289 L311.6,411.289 L311.6,400.83 M318.256,400.83 L319.926,400.83 L319.926,402.636 C320.062,402.285 320.398,401.857 320.932,401.352 C321.465,400.848 322.081,400.595 322.777,400.595 C322.81,400.595 322.865,400.599 322.943,400.605 C323.021,400.612 323.155,400.625 323.344,400.644 L323.344,402.5 C323.24,402.48 323.143,402.467 323.056,402.461 C322.968,402.454 322.872,402.451 322.768,402.451 C321.882,402.451 321.202,402.736 320.727,403.305 C320.251,403.875 320.014,404.531 320.014,405.273 L320.014,411.289 L318.256,411.289 L318.256,400.83 M324.863,400.879 L326.65,400.879 L326.65,411.289 L324.863,411.289 L324.863,400.879 M324.863,396.943 L326.65,396.943 L326.65,398.935 L324.863,398.935 L324.863,396.943 M330.16,400.83 L332.953,409.345 L335.873,400.83 L337.797,400.83 L333.852,411.289 L331.977,411.289 L328.119,400.83 L330.16,400.83 M341.205,409.707 C341.576,410 342.016,410.146 342.523,410.146 C343.142,410.146 343.741,410.003 344.32,409.716 C345.297,409.241 345.785,408.463 345.785,407.382 L345.785,405.966 C345.57,406.103 345.294,406.217 344.955,406.308 C344.616,406.399 344.284,406.464 343.959,406.504 L342.894,406.64 C342.256,406.725 341.778,406.858 341.459,407.041 C340.919,407.347 340.648,407.835 340.648,408.505 C340.648,409.013 340.834,409.414 341.205,409.707 M344.906,404.951 C345.31,404.899 345.58,404.729 345.717,404.443 C345.795,404.287 345.834,404.062 345.834,403.769 C345.834,403.17 345.621,402.736 345.194,402.465 C344.768,402.195 344.158,402.06 343.363,402.06 C342.445,402.06 341.794,402.308 341.41,402.802 C341.195,403.076 341.055,403.483 340.99,404.023 L339.35,404.023 C339.382,402.734 339.8,401.837 340.604,401.333 C341.408,400.828 342.341,400.576 343.402,400.576 C344.633,400.576 345.632,400.81 346.4,401.279 C347.162,401.748 347.543,402.477 347.543,403.466 L347.543,409.492 C347.543,409.674 347.58,409.821 347.655,409.931 C347.73,410.042 347.888,410.097 348.129,410.097 C348.207,410.097 348.295,410.092 348.393,410.083 C348.49,410.073 348.594,410.058 348.705,410.039 L348.705,411.337 C348.432,411.416 348.223,411.464 348.08,411.484 C347.937,411.504 347.741,411.513 347.494,411.513 C346.889,411.513 346.449,411.298 346.176,410.869 C346.033,410.641 345.932,410.319 345.873,409.902 C345.515,410.371 345.001,410.778 344.33,411.123 C343.659,411.468 342.921,411.64 342.113,411.64 C341.143,411.64 340.351,411.346 339.735,410.756 C339.12,410.167 338.812,409.43 338.812,408.545 C338.812,407.574 339.115,406.823 339.721,406.289 C340.326,405.755 341.12,405.426 342.103,405.302 L344.906,404.951 M350.459,396.943 L352.217,396.943 L352.217,411.289 L350.459,411.289 L350.459,396.943 M355.893,408.007 C355.945,408.593 356.091,409.043 356.332,409.355 C356.775,409.921 357.543,410.205 358.637,410.205 C359.288,410.205 359.861,410.063 360.355,409.78 C360.85,409.497 361.098,409.059 361.098,408.466 C361.098,408.017 360.899,407.675 360.502,407.441 C360.248,407.298 359.747,407.132 358.998,406.943 L357.602,406.591 C356.71,406.37 356.052,406.123 355.629,405.849 C354.874,405.374 354.496,404.716 354.496,403.877 C354.496,402.887 354.852,402.086 355.565,401.474 C356.278,400.862 357.237,400.556 358.441,400.556 C360.017,400.556 361.153,401.018 361.85,401.943 C362.286,402.529 362.497,403.16 362.484,403.837 L360.824,403.837 C360.792,403.44 360.652,403.079 360.404,402.754 C360.001,402.291 359.301,402.06 358.305,402.06 C357.641,402.06 357.138,402.187 356.796,402.441 C356.454,402.695 356.283,403.03 356.283,403.447 C356.283,403.903 356.508,404.267 356.957,404.541 C357.217,404.703 357.602,404.847 358.109,404.97 L359.271,405.254 C360.534,405.56 361.381,405.856 361.81,406.142 C362.494,406.591 362.836,407.298 362.836,408.261 C362.836,409.192 362.483,409.996 361.776,410.673 C361.07,411.351 359.994,411.689 358.549,411.689 C356.993,411.689 355.891,411.336 355.243,410.629 C354.595,409.923 354.249,409.049 354.203,408.007 L355.893,408.007 M371.215,397.636 C371.625,397.037 372.416,396.738 373.588,396.738 C373.699,396.738 373.812,396.741 373.93,396.748 C374.047,396.754 374.18,396.764 374.33,396.777 L374.33,398.379 C374.148,398.365 374.016,398.357 373.935,398.354 C373.853,398.351 373.777,398.349 373.705,398.349 C373.171,398.349 372.852,398.488 372.748,398.764 C372.644,399.041 372.592,399.746 372.592,400.879 L374.33,400.879 L374.33,402.265 L372.572,402.265 L372.572,411.289 L370.834,411.289 L370.834,402.265 L369.379,402.265 L369.379,400.879 L370.834,400.879 L370.834,399.238 C370.86,398.509 370.987,397.975 371.215,397.636 M382.489,408.833 C382.922,407.95 383.139,406.969 383.139,405.888 C383.139,404.912 382.982,404.117 382.67,403.505 C382.175,402.542 381.322,402.06 380.111,402.06 C379.037,402.06 378.256,402.47 377.768,403.291 C377.279,404.111 377.035,405.101 377.035,406.259 C377.035,407.373 377.279,408.3 377.768,409.043 C378.256,409.785 379.031,410.156 380.092,410.156 C381.257,410.156 382.056,409.715 382.489,408.833 M383.578,401.875 C384.509,402.773 384.975,404.095 384.975,405.839 C384.975,407.526 384.564,408.919 383.744,410.019 C382.924,411.119 381.651,411.67 379.926,411.67 C378.487,411.67 377.344,411.183 376.498,410.21 C375.652,409.236 375.228,407.929 375.228,406.289 C375.228,404.531 375.674,403.131 376.566,402.089 C377.458,401.048 378.656,400.527 380.16,400.527 C381.508,400.527 382.647,400.976 383.578,401.875 M387.1,400.83 L388.769,400.83 L388.769,402.636 C388.906,402.285 389.241,401.857 389.775,401.352 C390.309,400.848 390.924,400.595 391.621,400.595 C391.654,400.595 391.709,400.599 391.787,400.605 C391.865,400.612 391.999,400.625 392.187,400.644 L392.187,402.5 C392.083,402.48 391.987,402.467 391.899,402.461 C391.811,402.454 391.715,402.451 391.611,402.451 C390.726,402.451 390.046,402.736 389.57,403.305 C389.095,403.875 388.857,404.531 388.857,405.273 L388.857,411.289 L387.1,411.289 L387.1,400.83 M399.605,397.91 L401.383,397.91 L401.383,400.83 L403.053,400.83 L403.053,402.265 L401.383,402.265 L401.383,409.091 C401.383,409.456 401.506,409.7 401.754,409.824 C401.891,409.895 402.118,409.931 402.437,409.931 C402.522,409.931 402.613,409.93 402.711,409.926 C402.809,409.923 402.922,409.915 403.053,409.902 L403.053,411.289 C402.851,411.347 402.641,411.39 402.423,411.416 C402.205,411.442 401.969,411.455 401.715,411.455 C400.894,411.455 400.338,411.245 400.045,410.825 C399.752,410.405 399.605,409.86 399.605,409.189 L399.605,402.265 L398.189,402.265 L398.189,400.83 L399.605,400.83 L399.605,397.91 M404.801,396.894 L406.559,396.894 L406.559,402.246 C406.975,401.718 407.35,401.347 407.682,401.132 C408.248,400.761 408.954,400.576 409.801,400.576 C411.318,400.576 412.346,401.106 412.887,402.168 C413.18,402.747 413.326,403.551 413.326,404.58 L413.326,411.289 L411.519,411.289 L411.519,404.697 C411.519,403.929 411.422,403.365 411.227,403.007 C410.908,402.435 410.309,402.148 409.43,402.148 C408.7,402.148 408.04,402.399 407.447,402.9 C406.855,403.401 406.559,404.349 406.559,405.742 L406.559,411.289 L404.801,411.289 L404.801,396.894 M422.424,401.118 C423.12,401.466 423.651,401.917 424.016,402.47 C424.367,402.998 424.602,403.613 424.719,404.316 C424.823,404.798 424.875,405.566 424.875,406.621 L417.209,406.621 C417.241,407.682 417.492,408.533 417.961,409.174 C418.43,409.816 419.156,410.136 420.139,410.136 C421.057,410.136 421.789,409.834 422.336,409.228 C422.648,408.877 422.87,408.47 423,408.007 L424.728,408.007 C424.683,408.392 424.532,408.82 424.274,409.292 C424.017,409.764 423.729,410.149 423.41,410.449 C422.876,410.97 422.215,411.321 421.428,411.504 C421.004,411.608 420.526,411.66 419.992,411.66 C418.69,411.66 417.587,411.186 416.682,410.239 C415.777,409.292 415.324,407.965 415.324,406.259 C415.324,404.58 415.78,403.216 416.691,402.168 C417.603,401.119 418.794,400.595 420.266,400.595 C421.008,400.595 421.727,400.769 422.424,401.118 M423.068,405.224 C422.997,404.462 422.831,403.854 422.57,403.398 C422.088,402.552 421.284,402.129 420.158,402.129 C419.351,402.129 418.674,402.42 418.127,403.003 C417.58,403.585 417.29,404.326 417.258,405.224 L423.068,405.224 M434.471,409.707 C434.842,410 435.281,410.146 435.789,410.146 C436.408,410.146 437.006,410.003 437.586,409.716 C438.562,409.241 439.051,408.463 439.051,407.382 L439.051,405.966 C438.836,406.103 438.559,406.217 438.221,406.308 C437.882,406.399 437.55,406.464 437.225,406.504 L436.16,406.64 C435.522,406.725 435.044,406.858 434.725,407.041 C434.184,407.347 433.914,407.835 433.914,408.505 C433.914,409.013 434.1,409.414 434.471,409.707 M438.172,404.951 C438.575,404.899 438.846,404.729 438.982,404.443 C439.06,404.287 439.1,404.062 439.1,403.769 C439.1,403.17 438.886,402.736 438.46,402.465 C438.033,402.195 437.423,402.06 436.629,402.06 C435.711,402.06 435.06,402.308 434.676,402.802 C434.461,403.076 434.321,403.483 434.256,404.023 L432.615,404.023 C432.648,402.734 433.066,401.837 433.87,401.333 C434.674,400.828 435.607,400.576 436.668,400.576 C437.898,400.576 438.898,400.81 439.666,401.279 C440.428,401.748 440.809,402.477 440.809,403.466 L440.809,409.492 C440.809,409.674 440.846,409.821 440.921,409.931 C440.996,410.042 441.154,410.097 441.394,410.097 C441.473,410.097 441.56,410.092 441.658,410.083 C441.756,410.073 441.86,410.058 441.971,410.039 L441.971,411.337 C441.697,411.416 441.489,411.464 441.346,411.484 C441.202,411.504 441.007,411.513 440.76,411.513 C440.154,411.513 439.715,411.298 439.441,410.869 C439.298,410.641 439.197,410.319 439.139,409.902 C438.781,410.371 438.266,410.778 437.596,411.123 C436.925,411.468 436.186,411.64 435.379,411.64 C434.409,411.64 433.616,411.346 433.001,410.756 C432.386,410.167 432.078,409.43 432.078,408.545 C432.078,407.574 432.381,406.823 432.986,406.289 C433.592,405.755 434.386,405.426 435.369,405.302 L438.172,404.951 M444.721,408.007 C444.773,408.593 444.919,409.043 445.16,409.355 C445.603,409.921 446.371,410.205 447.465,410.205 C448.116,410.205 448.689,410.063 449.184,409.78 C449.678,409.497 449.926,409.059 449.926,408.466 C449.926,408.017 449.727,407.675 449.33,407.441 C449.076,407.298 448.575,407.132 447.826,406.943 L446.43,406.591 C445.538,406.37 444.88,406.123 444.457,405.849 C443.702,405.374 443.324,404.716 443.324,403.877 C443.324,402.887 443.681,402.086 444.393,401.474 C445.106,400.862 446.065,400.556 447.269,400.556 C448.845,400.556 449.981,401.018 450.678,401.943 C451.114,402.529 451.325,403.16 451.312,403.837 L449.652,403.837 C449.62,403.44 449.48,403.079 449.232,402.754 C448.829,402.291 448.129,402.06 447.133,402.06 C446.469,402.06 445.966,402.187 445.624,402.441 C445.282,402.695 445.111,403.03 445.111,403.447 C445.111,403.903 445.336,404.267 445.785,404.541 C446.046,404.703 446.43,404.847 446.937,404.97 L448.1,405.254 C449.363,405.56 450.209,405.856 450.639,406.142 C451.322,406.591 451.664,407.298 451.664,408.261 C451.664,409.192 451.311,409.996 450.604,410.673 C449.898,411.351 448.822,411.689 447.377,411.689 C445.821,411.689 444.719,411.336 444.071,410.629 C443.423,409.923 443.077,409.049 443.031,408.007 L444.721,408.007 M454.721,408.007 C454.773,408.593 454.919,409.043 455.16,409.355 C455.603,409.921 456.371,410.205 457.465,410.205 C458.116,410.205 458.689,410.063 459.184,409.78 C459.678,409.497 459.926,409.059 459.926,408.466 C459.926,408.017 459.727,407.675 459.33,407.441 C459.076,407.298 458.575,407.132 457.826,406.943 L456.43,406.591 C455.538,406.37 454.88,406.123 454.457,405.849 C453.702,405.374 453.324,404.716 453.324,403.877 C453.324,402.887 453.681,402.086 454.393,401.474 C455.106,400.862 456.065,400.556 457.269,400.556 C458.845,400.556 459.981,401.018 460.678,401.943 C461.114,402.529 461.325,403.16 461.312,403.837 L459.652,403.837 C459.62,403.44 459.48,403.079 459.232,402.754 C458.829,402.291 458.129,402.06 457.133,402.06 C456.469,402.06 455.966,402.187 455.624,402.441 C455.282,402.695 455.111,403.03 455.111,403.447 C455.111,403.903 455.336,404.267 455.785,404.541 C456.046,404.703 456.43,404.847 456.937,404.97 L458.1,405.254 C459.363,405.56 460.209,405.856 460.639,406.142 C461.322,406.591 461.664,407.298 461.664,408.261 C461.664,409.192 461.311,409.996 460.604,410.673 C459.898,411.351 458.822,411.689 457.377,411.689 C455.821,411.689 454.719,411.336 454.071,410.629 C453.423,409.923 453.077,409.049 453.031,408.007 L454.721,408.007 M465.434,400.83 L465.434,407.773 C465.434,408.307 465.518,408.743 465.687,409.082 C466,409.707 466.583,410.019 467.435,410.019 C468.659,410.019 469.493,409.472 469.935,408.379 C470.176,407.793 470.297,406.989 470.297,405.966 L470.297,400.83 L472.055,400.83 L472.055,411.289 L470.394,411.289 L470.414,409.746 C470.186,410.143 469.903,410.478 469.564,410.752 C468.894,411.298 468.08,411.572 467.123,411.572 C465.632,411.572 464.616,411.074 464.076,410.078 C463.783,409.544 463.637,408.831 463.637,407.939 L463.637,400.83 L465.434,400.83 M474.785,400.83 L476.523,400.83 L476.523,402.314 C476.94,401.8 477.318,401.425 477.656,401.191 C478.236,400.794 478.893,400.595 479.629,400.595 C480.462,400.595 481.133,400.8 481.641,401.211 C481.927,401.445 482.187,401.79 482.422,402.246 C482.812,401.686 483.271,401.271 483.799,401.001 C484.326,400.73 484.919,400.595 485.576,400.595 C486.982,400.595 487.939,401.103 488.447,402.119 C488.721,402.666 488.857,403.401 488.857,404.326 L488.857,411.289 L487.031,411.289 L487.031,404.023 C487.031,403.326 486.857,402.848 486.509,402.587 C486.16,402.327 485.736,402.197 485.234,402.197 C484.544,402.197 483.95,402.428 483.452,402.89 C482.954,403.352 482.705,404.124 482.705,405.205 L482.705,411.289 L480.918,411.289 L480.918,404.462 C480.918,403.753 480.833,403.235 480.664,402.91 C480.397,402.421 479.899,402.177 479.17,402.177 C478.506,402.177 477.902,402.435 477.358,402.949 C476.815,403.463 476.543,404.394 476.543,405.742 L476.543,411.289 L474.785,411.289 L474.785,400.83 M497.955,401.118 C498.652,401.466 499.182,401.917 499.547,402.47 C499.898,402.998 500.133,403.613 500.25,404.316 C500.354,404.798 500.406,405.566 500.406,406.621 L492.74,406.621 C492.773,407.682 493.023,408.533 493.492,409.174 C493.961,409.816 494.687,410.136 495.67,410.136 C496.588,410.136 497.32,409.834 497.867,409.228 C498.18,408.877 498.401,408.47 498.531,408.007 L500.26,408.007 C500.214,408.392 500.063,408.82 499.806,409.292 C499.548,409.764 499.26,410.149 498.941,410.449 C498.408,410.97 497.747,411.321 496.959,411.504 C496.536,411.608 496.057,411.66 495.523,411.66 C494.221,411.66 493.118,411.186 492.213,410.239 C491.308,409.292 490.855,407.965 490.855,406.259 C490.855,404.58 491.311,403.216 492.223,402.168 C493.134,401.119 494.325,400.595 495.797,400.595 C496.539,400.595 497.258,400.769 497.955,401.118 M498.6,405.224 C498.528,404.462 498.362,403.854 498.102,403.398 C497.62,402.552 496.816,402.129 495.689,402.129 C494.882,402.129 494.205,402.42 493.658,403.003 C493.111,403.585 492.822,404.326 492.789,405.224 L498.6,405.224 M504.377,408.994 C504.852,409.749 505.614,410.127 506.662,410.127 C507.476,410.127 508.145,409.777 508.669,409.077 C509.193,408.377 509.455,407.373 509.455,406.064 C509.455,404.742 509.185,403.764 508.644,403.129 C508.104,402.495 507.437,402.177 506.643,402.177 C505.757,402.177 505.039,402.516 504.489,403.193 C503.939,403.87 503.664,404.866 503.664,406.181 C503.664,407.301 503.902,408.239 504.377,408.994 M508.322,401.152 C508.635,401.347 508.99,401.689 509.387,402.177 L509.387,396.894 L511.076,396.894 L511.076,411.289 L509.494,411.289 L509.494,409.834 C509.084,410.478 508.599,410.944 508.039,411.23 C507.479,411.517 506.838,411.66 506.115,411.66 C504.95,411.66 503.941,411.17 503.088,410.19 C502.235,409.21 501.809,407.906 501.809,406.279 C501.809,404.755 502.198,403.435 502.976,402.319 C503.754,401.202 504.865,400.644 506.31,400.644 C507.111,400.644 507.782,400.813 508.322,401.152 M521.033,408.994 C521.508,409.749 522.27,410.127 523.318,410.127 C524.132,410.127 524.801,409.777 525.325,409.077 C525.849,408.377 526.111,407.373 526.111,406.064 C526.111,404.742 525.841,403.764 525.301,403.129 C524.76,402.495 524.093,402.177 523.299,402.177 C522.413,402.177 521.696,402.516 521.145,403.193 C520.595,403.87 520.32,404.866 520.32,406.181 C520.32,407.301 520.558,408.239 521.033,408.994 M524.978,401.152 C525.291,401.347 525.646,401.689 526.043,402.177 L526.043,396.894 L527.732,396.894 L527.732,411.289 L526.15,411.289 L526.15,409.834 C525.74,410.478 525.255,410.944 524.695,411.23 C524.135,411.517 523.494,411.66 522.771,411.66 C521.606,411.66 520.597,411.17 519.744,410.19 C518.891,409.21 518.465,407.906 518.465,406.279 C518.465,404.755 518.854,403.435 519.632,402.319 C520.41,401.202 521.521,400.644 522.967,400.644 C523.768,400.644 524.438,400.813 524.978,401.152 M536.83,401.118 C537.527,401.466 538.057,401.917 538.422,402.47 C538.773,402.998 539.008,403.613 539.125,404.316 C539.229,404.798 539.281,405.566 539.281,406.621 L531.615,406.621 C531.648,407.682 531.898,408.533 532.367,409.174 C532.836,409.816 533.562,410.136 534.545,410.136 C535.463,410.136 536.195,409.834 536.742,409.228 C537.055,408.877 537.276,408.47 537.406,408.007 L539.135,408.007 C539.089,408.392 538.938,408.82 538.681,409.292 C538.423,409.764 538.135,410.149 537.816,410.449 C537.282,410.97 536.622,411.321 535.834,411.504 C535.411,411.608 534.932,411.66 534.398,411.66 C533.096,411.66 531.993,411.186 531.088,410.239 C530.183,409.292 529.73,407.965 529.73,406.259 C529.73,404.58 530.186,403.216 531.098,402.168 C532.009,401.119 533.2,400.595 534.672,400.595 C535.414,400.595 536.133,400.769 536.83,401.118 M537.475,405.224 C537.403,404.462 537.237,403.854 536.977,403.398 C536.495,402.552 535.691,402.129 534.564,402.129 C533.757,402.129 533.08,402.42 532.533,403.003 C531.986,403.585 531.697,404.326 531.664,405.224 L537.475,405.224 M547.886,409.077 C548.429,408.39 548.701,407.363 548.701,405.996 C548.701,405.162 548.581,404.446 548.34,403.847 C547.884,402.695 547.051,402.119 545.84,402.119 C544.622,402.119 543.789,402.727 543.34,403.945 C543.099,404.596 542.978,405.423 542.978,406.425 C542.978,407.233 543.099,407.92 543.34,408.486 C543.796,409.567 544.629,410.107 545.84,410.107 C546.66,410.107 547.342,409.764 547.886,409.077 M541.289,400.879 L542.998,400.879 L542.998,402.265 C543.35,401.79 543.734,401.422 544.15,401.162 C544.743,400.771 545.439,400.576 546.24,400.576 C547.425,400.576 548.431,401.03 549.258,401.938 C550.085,402.846 550.498,404.143 550.498,405.83 C550.498,408.108 549.902,409.736 548.711,410.712 C547.956,411.331 547.077,411.64 546.074,411.64 C545.286,411.64 544.626,411.468 544.092,411.123 C543.779,410.927 543.431,410.592 543.047,410.117 L543.047,415.459 L541.289,415.459 L541.289,400.879 M552.887,397.91 L554.664,397.91 L554.664,400.83 L556.334,400.83 L556.334,402.265 L554.664,402.265 L554.664,409.091 C554.664,409.456 554.788,409.7 555.035,409.824 C555.172,409.895 555.4,409.931 555.719,409.931 C555.803,409.931 555.894,409.93 555.992,409.926 C556.09,409.923 556.204,409.915 556.334,409.902 L556.334,411.289 C556.132,411.347 555.922,411.39 555.704,411.416 C555.486,411.442 555.25,411.455 554.996,411.455 C554.176,411.455 553.619,411.245 553.326,410.825 C553.033,410.405 552.887,409.86 552.887,409.189 L552.887,402.265 L551.471,402.265 L551.471,400.83 L552.887,400.83 L552.887,397.91 M558.082,396.894 L559.84,396.894 L559.84,402.246 C560.256,401.718 560.631,401.347 560.963,401.132 C561.529,400.761 562.236,400.576 563.082,400.576 C564.599,400.576 565.628,401.106 566.168,402.168 C566.461,402.747 566.607,403.551 566.607,404.58 L566.607,411.289 L564.801,411.289 L564.801,404.697 C564.801,403.929 564.703,403.365 564.508,403.007 C564.189,402.435 563.59,402.148 562.711,402.148 C561.982,402.148 561.321,402.399 560.728,402.9 C560.136,403.401 559.84,404.349 559.84,405.742 L559.84,411.289 L558.082,411.289 L558.082,396.894 Z" style="stroke:none;fill-rule:nonzero;fill:#000000;fill-opacity:1;"/>
        </g>
    </g>
</svg>
