<?xml version="1.0"?>
<svg version="1.1" xmlns="http://www.w3.org/2000/svg" xmlns:xlink="http://www.w3.org/1999/xlink" width="640" height="480">
    <desc iVinci="yes" version="4.6" gridStep="20" showGrid="no" snapToGrid="no" codePlatform="0"/>
    <g id="Layer1" name="Layer 1" opacity="1">
        <g id="Shape1">
            <desc shapeID="1" type="0" basicInfo-basicType="0" basicInfo-roundedRectRadius="12" basicInfo-polygonSides="6" basicInfo-starPoints="5" bounding="rect(-25.5,-71,51,142)" text="" font-familyName="Helvetica" font-pixelSize="20" font-bold="0" font-underline="0" font-alignment="1" strokeStyle="0" markerStart="0" markerEnd="0" shadowEnabled="0" shadowOffsetX="0" shadowOffsetY="2" shadowBlur="4" shadowOpacity="160" blurEnabled="0" blurRadius="4" transform="matrix(1,0,0,1,126,228.5)" pers-center="0,0" pers-size="0,0" pers-start="0,0" pers-end="0,0" locked="0" mesh="" flag=""/>
            <path id="shapePath1" d="M100.5,157.5 C100.5,157.5 151.5,299.5 151.5,299.5 " style="stroke:#0fe90e;stroke-opacity:1;stroke-width:5;stroke-linejoin:miter;stroke-miterlimit:2;stroke-linecap:round;fill:none;"/>
        </g>
        <g id="Shape2">
            <desc shapeID="2" type="0" basicInfo-basicType="0" basicInfo-roundedRectRadius="12" basicInfo-polygonSides="6" basicInfo-starPoints="5" bounding="rect(-73.9843,-18.6592,147.969,37.3185)" text="" font-familyName="Helvetica" font-pixelSize="20" font-bold="0" font-underline="0" font-alignment="1" strokeStyle="1" markerStart="0" markerEnd="1" shadowEnabled="0" shadowOffsetX="0" shadowOffsetY="2" shadowBlur="4" shadowOpacity="160" blurEnabled="0" blurRadius="4" transform="matrix(1,0,0,1,174.515,114.159)" pers-center="0,0" pers-size="0,0" pers-start="0,0" pers-end="0,0" locked="0" mesh="" flag=""/>
            <path id="shapePath2" d="M100.531,132.818 C100.531,132.818 248.5,95.5 248.5,95.5 " style="stroke:#e9181f;stroke-opacity:1;stroke-width:5;stroke-linejoin:miter;stroke-miterlimit:2;stroke-linecap:round;fill:none;"/>
            <path id="markerPath2" d="M214.605,124.675 L258.196,93.0545 L204.824,85.8891 L214.605,124.675 Z" style="stroke:none;fill-rule:evenodd;fill:#e9181f;fill-opacity:1;"/>
        </g>
        <g id="Shape3">
            <desc shapeID="3" type="0" basicInfo-basicType="0" basicInfo-roundedRectRadius="12" basicInfo-polygonSides="6" basicInfo-starPoints="5" bounding="rect(-187.548,-50,375.1,100)" text="" font-familyName="Helvetica" font-pixelSize="20" font-bold="0" font-underline="0" font-alignment="1" strokeStyle="1" markerStart="0" markerEnd="1" shadowEnabled="0" shadowOffsetX="0" shadowOffsetY="2" shadowBlur="4" shadowOpacity="160" blurEnabled="0" blurRadius="4" transform="matrix(0.690806,0,0,2,230.09,200.5)" pers-center="0,0" pers-size="0,0" pers-start="0,0" pers-end="0,0" locked="0" mesh="" flag=""/>
            <path id="shapePath3" d="M100.531,136.893 C100.531,136.893 152.411,300.5 152.411,300.5 C152.411,300.5 290.572,300.5 290.572,300.5 C290.572,300.5 359.652,100.5 359.652,100.5 " style="stroke:#1cdf10;stroke-opacity:1;stroke-width:5.5;stroke-linejoin:miter;stroke-miterlimit:2;stroke-linecap:round;fill:none;"/>
            <path id="markerPath3" d="M366.082,149.271 L363.243,90.1027 L324.493,134.907 L366.082,149.271 Z" style="stroke:none;fill-rule:evenodd;fill:#1cdf10;fill-opacity:1;"/>
        </g>
        <g id="Shape4">
            <desc shapeID="4" type="0" basicInfo-basicType="0" basicInfo-roundedRectRadius="12" basicInfo-polygonSides="6" basicInfo-starPoints="5" bounding="rect(-20.9233,-18.9945,41.8465,37.989)" text="" font-familyName="Helvetica" font-pixelSize="20" font-bold="0" font-underline="0" font-alignment="1" strokeStyle="0" markerStart="0" markerEnd="0" shadowEnabled="0" shadowOffsetX="0" shadowOffsetY="2" shadowBlur="4" shadowOpacity="160" blurEnabled="0" blurRadius="4" transform="matrix(0.863566,0,0,1,100.531,132.818)" pers-center="0,0" pers-size="0,0" pers-start="0,0" pers-end="0,0" locked="0" mesh="" flag=""/>
            <path id="shapePath4" d="M100.531,113.824 L106.115,126.329 L118.6,128.335 L109.566,138.069 L111.698,151.813 L100.531,145.324 L89.3645,151.813 L91.4966,138.069 L82.4628,128.334 L94.9474,126.329 L100.531,113.824 Z" style="stroke:#323232;stroke-opacity:1;stroke-width:5.5;stroke-linejoin:miter;stroke-miterlimit:2;stroke-linecap:round;fill-rule:evenodd;fill:#969696;fill-opacity:1;"/>
        </g>
        <g id="Shape5">
            <desc shapeID="5" type="0" basicInfo-basicType="5" basicInfo-roundedRectRadius="12" basicInfo-polygonSides="6" basicInfo-starPoints="5" bounding="rect(-28.125,-29.4451,56.2501,58.8902)" text="" font-familyName="Helvetica" font-pixelSize="20" font-bold="0" font-underline="0" font-alignment="1" strokeStyle="0" markerStart="0" markerEnd="0" shadowEnabled="0" shadowOffsetX="0" shadowOffsetY="2" shadowBlur="4" shadowOpacity="160" blurEnabled="0" blurRadius="4" transform="matrix(-1.35884e-06,0.606668,-0.434232,-2.69539e-06,255.991,74.5625)" pers-center="0,0" pers-size="0,0" pers-start="0,0" pers-end="0,0" locked="0" mesh="" flag=""/>
            <path id="shapePath5" d="M255.991,91.6251 L243.205,57.4999 L268.777,57.5003 L255.991,91.6251 Z" style="stroke:#323232;stroke-opacity:1;stroke-width:2;stroke-linejoin:miter;stroke-miterlimit:2;stroke-linecap:round;fill:none;"/>
        </g>
        <g id="Shape6">
            <desc shapeID="6" type="0" basicInfo-basicType="0" basicInfo-roundedRectRadius="12" basicInfo-polygonSides="6" basicInfo-starPoints="5" bounding="rect(-260.5,-13.0394,521.001,26.0787)" text="" font-familyName="Helvetica" font-pixelSize="20" font-bold="0" font-underline="0" font-alignment="1" strokeStyle="0" markerStart="0" markerEnd="0" shadowEnabled="0" shadowOffsetX="0" shadowOffsetY="2" shadowBlur="4" shadowOpacity="160" blurEnabled="0" blurRadius="4" transform="matrix(0.6007,0,0,1,224.194,93.5394)" pers-center="0,0" pers-size="0,0" pers-start="0,0" pers-end="0,0" locked="0" mesh="" flag=""/>
            <path id="shapePath6" d="M67.7119,97.5 C91.9165,95.5364 116.637,94.2932 140.997,96.5 C144.129,98.5021 145.875,103.557 148.806,106.5 C158.07,106.898 168.175,106.105 175.237,96.5 C190.425,97.5104 205.968,94.3349 220.891,98.5 C244.301,82.8124 269.586,94.936 293.575,99.5 C319.11,82.1233 356.672,104.773 380.677,80.5 " style="stroke:#323232;stroke-opacity:1;stroke-width:2;stroke-linejoin:miter;stroke-miterlimit:2;stroke-linecap:round;fill:none;"/>
        </g>
        <g id="Shape7">
            <desc shapeID="7" type="0" basicInfo-basicType="0" basicInfo-roundedRectRadius="12" basicInfo-polygonSides="6" basicInfo-starPoints="5" bounding="rect(-285.5,-8.17997,571,16.3601)" text="" font-familyName="Helvetica" font-pixelSize="20" font-bold="0" font-underline="0" font-alignment="1" strokeStyle="0" markerStart="0" markerEnd="0" shadowEnabled="0" shadowOffsetX="0" shadowOffsetY="2" shadowBlur="4" shadowOpacity="160" blurEnabled="0" blurRadius="4" transform="matrix(0.6007,0,0,1,229,298.68)" pers-center="0,0" pers-size="0,0" pers-start="0,0" pers-end="0,0" locked="0" mesh="" flag=""/>
            <path id="shapePath7" d="M57.5,301.5 C68.6512,295.564 81.608,302.795 91.7399,296.5 C105.175,298.035 119.186,294.707 131.386,305.5 L243.717,290.5 C294.031,296.657 345.042,287.187 394.493,306.5 C398.582,307.984 398.583,304.665 400.5,300.5 " style="stroke:#323232;stroke-opacity:1;stroke-width:2;stroke-linejoin:miter;stroke-miterlimit:2;stroke-linecap:round;fill:none;"/>
        </g>
        <g id="Shape8">
            <desc shapeID="8" type="0" basicInfo-basicType="5" basicInfo-roundedRectRadius="12" basicInfo-polygonSides="6" basicInfo-starPoints="5" bounding="rect(-28.125,-29.4439,56.2501,58.8878)" text="" font-familyName="Helvetica" font-pixelSize="20" font-bold="0" font-underline="0" font-alignment="1" strokeStyle="0" markerStart="0" markerEnd="0" shadowEnabled="0" shadowOffsetX="0" shadowOffsetY="2" shadowBlur="4" shadowOpacity="160" blurEnabled="0" blurRadius="4" transform="matrix(-1.35884e-06,0.606668,-0.434232,-2.69539e-06,358.88,77.5625)" pers-center="0,0" pers-size="0,0" pers-start="0,0" pers-end="0,0" locked="0" mesh="" flag=""/>
            <path id="shapePath8" d="M358.88,94.6251 L346.095,60.4999 L371.666,60.5003 L358.88,94.6251 Z" style="stroke:#323232;stroke-opacity:1;stroke-width:2;stroke-linejoin:miter;stroke-miterlimit:2;stroke-linecap:round;fill:none;"/>
        </g>
        <g id="Shape9">
            <desc shapeID="9" type="2" basicInfo-basicType="0" basicInfo-roundedRectRadius="12" basicInfo-polygonSides="6" basicInfo-starPoints="5" bounding="rect(-22,-17,44,34)" text="Pn" font-familyName="Helvetica" font-pixelSize="20" font-bold="0" font-underline="0" font-alignment="1" strokeStyle="0" markerStart="0" markerEnd="0" shadowEnabled="0" shadowOffsetX="0" shadowOffsetY="2" shadowBlur="4" shadowOpacity="160" blurEnabled="0" blurRadius="4" transform="matrix(1,0,0,1,344.794,213.557)" pers-center="0,0" pers-size="0,0" pers-start="0,0" pers-end="0,0" locked="0" mesh="" flag=""/>
            <path id="shapePath9" d="M334.284,204.602 L340.739,204.602 C342.015,204.602 343.044,204.962 343.825,205.681 C344.607,206.4 344.997,207.411 344.997,208.713 C344.997,209.833 344.649,210.808 343.952,211.638 C343.256,212.468 342.185,212.883 340.739,212.883 L336.228,212.883 L336.228,218.948 L334.284,218.948 L334.284,204.602 M341.862,206.575 C341.433,206.373 340.843,206.272 340.095,206.272 L336.228,206.272 L336.228,211.243 L340.095,211.243 C340.967,211.243 341.675,211.057 342.219,210.686 C342.762,210.315 343.034,209.661 343.034,208.723 C343.034,207.668 342.644,206.952 341.862,206.575 M347.192,208.489 L348.862,208.489 L348.862,209.973 C349.357,209.361 349.881,208.922 350.435,208.655 C350.988,208.388 351.603,208.254 352.28,208.254 C353.765,208.254 354.767,208.772 355.288,209.807 C355.575,210.373 355.718,211.184 355.718,212.239 L355.718,218.948 L353.931,218.948 L353.931,212.356 C353.931,211.718 353.836,211.203 353.648,210.813 C353.335,210.162 352.769,209.836 351.948,209.836 C351.532,209.836 351.19,209.879 350.923,209.963 C350.441,210.106 350.018,210.393 349.653,210.823 C349.36,211.168 349.17,211.524 349.082,211.892 C348.994,212.26 348.95,212.786 348.95,213.469 L348.95,218.948 L347.192,218.948 L347.192,208.489 Z" style="stroke:none;fill-rule:nonzero;fill:#000000;fill-opacity:1;"/>
        </g>
        <g id="Shape10">
            <desc shapeID="10" type="0" basicInfo-basicType="0" basicInfo-roundedRectRadius="12" basicInfo-polygonSides="6" basicInfo-starPoints="5" bounding="rect(-160,-50,320,100)" text="" font-familyName="Helvetica" font-pixelSize="20" font-bold="0" font-underline="0" font-alignment="1" strokeStyle="0" markerStart="0" markerEnd="0" shadowEnabled="0" shadowOffsetX="0" shadowOffsetY="2" shadowBlur="4" shadowOpacity="160" blurEnabled="0" blurRadius="4" transform="matrix(0.783049,0,0,1,222.434,370.5)" pers-center="0,0" pers-size="0,0" pers-start="0,0" pers-end="0,0" locked="0" mesh="" flag=""/>
            <path id="shapePath10" d="M97.1462,320.5 C97.1462,320.5 97.1462,420.5 97.1462,420.5 C97.1462,420.5 347.722,420.5 347.722,420.5 " style="stroke:#323232;stroke-opacity:1;stroke-width:2;stroke-linejoin:miter;stroke-miterlimit:2;stroke-linecap:round;fill:none;"/>
        </g>
        <g id="Shape11">
            <desc shapeID="11" type="0" basicInfo-basicType="0" basicInfo-roundedRectRadius="12" basicInfo-polygonSides="6" basicInfo-starPoints="5" bounding="rect(-266.752,-37,533.502,74)" text="" font-familyName="Helvetica" font-pixelSize="20" font-bold="0" font-underline="0" font-alignment="1" strokeStyle="0" markerStart="0" markerEnd="0" shadowEnabled="0" shadowOffsetX="0" shadowOffsetY="2" shadowBlur="4" shadowOpacity="160" blurEnabled="0" blurRadius="4" transform="matrix(0.6007,0,0,1,257.384,360.5)" pers-center="0,0" pers-size="0,0" pers-start="0,0" pers-end="0,0" locked="0" mesh="" flag=""/>
            <path id="shapePath11" d="M97.1462,397.5 C97.1462,397.5 417.621,323.5 417.621,323.5 " style="stroke:#323232;stroke-opacity:1;stroke-width:2;stroke-linejoin:miter;stroke-miterlimit:2;stroke-linecap:round;fill:none;"/>
        </g>
        <g id="Shape12">
            <desc shapeID="12" type="2" basicInfo-basicType="0" basicInfo-roundedRectRadius="12" basicInfo-polygonSides="6" basicInfo-starPoints="5" bounding="rect(-24.5,-17.5,49,35)" text="TT" font-familyName="Helvetica" font-pixelSize="20" font-bold="0" font-underline="0" font-alignment="1" strokeStyle="0" markerStart="0" markerEnd="0" shadowEnabled="0" shadowOffsetX="0" shadowOffsetY="2" shadowBlur="4" shadowOpacity="160" blurEnabled="0" blurRadius="4" transform="matrix(1,0,0,1,62.5371,369.955)" pers-center="0,0" pers-size="0,0" pers-start="0,0" pers-end="0,0" locked="0" mesh="" flag=""/>
            <path id="shapePath12" d="M62.2969,360.5 L62.2969,362.209 L57.4629,362.209 L57.4629,374.846 L55.4902,374.846 L55.4902,362.209 L50.6562,362.209 L50.6562,360.5 L62.2969,360.5 M74.5,360.5 L74.5,362.209 L69.666,362.209 L69.666,374.846 L67.6934,374.846 L67.6934,362.209 L62.8594,362.209 L62.8594,360.5 L74.5,360.5 Z" style="stroke:none;fill-rule:nonzero;fill:#000000;fill-opacity:1;"/>
        </g>
        <g id="Shape13">
            <desc shapeID="13" type="2" basicInfo-basicType="0" basicInfo-roundedRectRadius="12" basicInfo-polygonSides="6" basicInfo-starPoints="5" bounding="rect(-33.5,-18.5,67,37)" text="" font-familyName="Symbol" font-pixelSize="20" font-bold="0" font-underline="0" font-alignment="1" strokeStyle="0" markerStart="0" markerEnd="0" shadowEnabled="0" shadowOffsetX="0" shadowOffsetY="2" shadowBlur="4" shadowOpacity="160" blurEnabled="0" blurRadius="4" transform="matrix(1,0,0,1,329,449)" pers-center="0,0" pers-size="0,0" pers-start="0,0" pers-end="0,0" locked="0" mesh="" flag=""/>
            <path id="shapePath13" d="M329,449 Z" style="stroke:none;fill-rule:evenodd;fill:#000000;fill-opacity:1;"/>
        </g>
        <g id="Shape14">
            <desc shapeID="14" type="2" basicInfo-basicType="0" basicInfo-roundedRectRadius="12" basicInfo-polygonSides="6" basicInfo-starPoints="5" bounding="rect(-25.5,-15,51,30)" text="∆" font-familyName="Symbol" font-pixelSize="20" font-bold="0" font-underline="0" font-alignment="1" strokeStyle="0" markerStart="0" markerEnd="0" shadowEnabled="0" shadowOffsetX="0" shadowOffsetY="2" shadowBlur="4" shadowOpacity="160" blurEnabled="0" blurRadius="4" transform="matrix(1,0,0,1,344.975,442.672)" pers-center="0,0" pers-size="0,0" pers-start="0,0" pers-end="0,0" locked="0" mesh="" flag=""/>
            <path id="shapePath14" d="M338.454,449 L338.454,447.193 L343.971,434.547 L346.002,434.547 L351.5,447.193 L351.5,449 L338.454,449 M340.221,447.193 L349.284,447.193 L344.762,436.803 L340.221,447.193 Z" style="stroke:none;fill-rule:nonzero;fill:#000000;fill-opacity:1;"/>
        </g>
        <g id="Shape15">
            <desc shapeID="15" type="0" basicInfo-basicType="0" basicInfo-roundedRectRadius="12" basicInfo-polygonSides="6" basicInfo-starPoints="5" bounding="rect(-120.5,-7.09194,241,14.1837)" text="" font-familyName="Helvetica" font-pixelSize="20" font-bold="0" font-underline="0" font-alignment="1" strokeStyle="0" markerStart="0" markerEnd="0" shadowEnabled="0" shadowOffsetX="0" shadowOffsetY="2" shadowBlur="4" shadowOpacity="160" blurEnabled="0" blurRadius="4" transform="matrix(1,0,0,1,503,80.4082)" pers-center="0,0" pers-size="0,0" pers-start="0,0" pers-end="0,0" locked="0" mesh="" flag=""/>
            <path id="shapePath15" d="M382.5,81.5 C387.745,79.6329 397.396,82.525 399.5,75.5 C454.321,76.3939 510.746,66.1868 560.5,83.5 C574.018,82.3238 586.433,78.9174 601.5,80.5 C608.779,83.59 615.371,84.5673 623.5,87.5 " style="stroke:#323232;stroke-opacity:1;stroke-width:2;stroke-linejoin:miter;stroke-miterlimit:2;stroke-linecap:round;fill:none;"/>
        </g>
        <g id="Shape16">
            <desc shapeID="16" type="0" basicInfo-basicType="0" basicInfo-roundedRectRadius="12" basicInfo-polygonSides="6" basicInfo-starPoints="5" bounding="rect(-114,-4.23614,228,8.47228)" text="" font-familyName="Helvetica" font-pixelSize="20" font-bold="0" font-underline="0" font-alignment="1" strokeStyle="0" markerStart="0" markerEnd="0" shadowEnabled="0" shadowOffsetX="0" shadowOffsetY="2" shadowBlur="4" shadowOpacity="160" blurEnabled="0" blurRadius="4" transform="matrix(1,0,0,1,515.5,298.264)" pers-center="0,0" pers-size="0,0" pers-start="0,0" pers-end="0,0" locked="0" mesh="" flag=""/>
            <path id="shapePath16" d="M401.5,299.5 L604.5,302.5 C610.792,295.589 619.364,292.835 629.5,294.5 " style="stroke:#323232;stroke-opacity:1;stroke-width:2;stroke-linejoin:miter;stroke-miterlimit:2;stroke-linecap:round;fill:none;"/>
        </g>
        <g id="Shape17">
            <desc shapeID="17" type="0" basicInfo-basicType="0" basicInfo-roundedRectRadius="12" basicInfo-polygonSides="6" basicInfo-starPoints="5" bounding="rect(-133,-0.5,266,1)" text="" font-familyName="Helvetica" font-pixelSize="20" font-bold="0" font-underline="0" font-alignment="1" strokeStyle="0" markerStart="0" markerEnd="0" shadowEnabled="0" shadowOffsetX="0" shadowOffsetY="2" shadowBlur="4" shadowOpacity="160" blurEnabled="0" blurRadius="4" transform="matrix(1,0,0,1,484.5,420)" pers-center="0,0" pers-size="0,0" pers-start="0,0" pers-end="0,0" locked="0" mesh="" flag=""/>
            <path id="shapePath17" d="M351.5,420.5 C351.5,420.5 617.5,419.5 617.5,419.5 " style="stroke:#323232;stroke-opacity:1;stroke-width:2;stroke-linejoin:miter;stroke-miterlimit:2;stroke-linecap:round;fill:none;"/>
        </g>
        <g id="Shape18">
            <desc shapeID="18" type="0" basicInfo-basicType="0" basicInfo-roundedRectRadius="12" basicInfo-polygonSides="6" basicInfo-starPoints="5" bounding="rect(-196,-27.0001,392,54.0002)" text="" font-familyName="Helvetica" font-pixelSize="20" font-bold="0" font-underline="0" font-alignment="1" strokeStyle="0" markerStart="0" markerEnd="0" shadowEnabled="0" shadowOffsetX="0" shadowOffsetY="2" shadowBlur="4" shadowOpacity="160" blurEnabled="0" blurRadius="4" transform="matrix(0.840496,0,0,0.344628,437.5,338.695)" pers-center="0,0" pers-size="0,0" pers-start="0,0" pers-end="0,0" locked="0" mesh="" flag=""/>
            <path id="shapePath18" d="M272.763,348 C272.763,348 602.237,329.39 602.237,329.39 " style="stroke:#2aef18;stroke-opacity:1;stroke-width:3;stroke-linejoin:miter;stroke-miterlimit:2;stroke-linecap:round;fill:none;"/>
        </g>
        <g id="Shape19">
            <desc shapeID="19" type="0" basicInfo-basicType="0" basicInfo-roundedRectRadius="12" basicInfo-polygonSides="6" basicInfo-starPoints="5" bounding="rect(-76,-109.5,152,219)" text="" font-familyName="Helvetica" font-pixelSize="20" font-bold="0" font-underline="0" font-alignment="1" strokeStyle="1" markerStart="0" markerEnd="1" shadowEnabled="0" shadowOffsetX="0" shadowOffsetY="2" shadowBlur="4" shadowOpacity="160" blurEnabled="0" blurRadius="4" transform="matrix(1,0,0,1,376.5,190)" pers-center="0,0" pers-size="0,0" pers-start="0,0" pers-end="0,0" locked="0" mesh="" flag=""/>
            <path id="shapePath19" d="M300.5,299.5 C300.5,299.5 377.5,299.5 377.5,299.5 C377.5,299.5 452.5,80.5 452.5,80.5 " style="stroke:#29d914;stroke-opacity:1;stroke-width:5;stroke-linejoin:miter;stroke-miterlimit:2;stroke-linecap:round;fill:none;"/>
            <path id="markerPath19" d="M458.461,124.822 L455.74,71.0394 L420.619,111.863 L458.461,124.822 Z" style="stroke:none;fill-rule:evenodd;fill:#29d914;fill-opacity:1;"/>
        </g>
        <g id="Shape20">
            <desc shapeID="20" type="0" basicInfo-basicType="0" basicInfo-roundedRectRadius="12" basicInfo-polygonSides="6" basicInfo-starPoints="5" bounding="rect(-76,-109.5,152,219)" text="" font-familyName="Helvetica" font-pixelSize="20" font-bold="0" font-underline="0" font-alignment="1" strokeStyle="1" markerStart="0" markerEnd="1" shadowEnabled="0" shadowOffsetX="0" shadowOffsetY="2" shadowBlur="4" shadowOpacity="160" blurEnabled="0" blurRadius="4" transform="matrix(1,0,0,1,462,189.18)" pers-center="0,0" pers-size="0,0" pers-start="0,0" pers-end="0,0" locked="0" mesh="" flag=""/>
            <path id="shapePath20" d="M386,298.68 C386,298.68 463,298.68 463,298.68 C463,298.68 538,79.6801 538,79.6801 " style="stroke:#29d914;stroke-opacity:1;stroke-width:5;stroke-linejoin:miter;stroke-miterlimit:2;stroke-linecap:round;fill:none;"/>
            <path id="markerPath20" d="M543.961,124.002 L541.24,70.2195 L506.119,111.043 L543.961,124.002 Z" style="stroke:none;fill-rule:evenodd;fill:#29d914;fill-opacity:1;"/>
        </g>
        <g id="Shape21">
            <desc shapeID="21" type="0" basicInfo-basicType="0" basicInfo-roundedRectRadius="12" basicInfo-polygonSides="6" basicInfo-starPoints="5" bounding="rect(-73.5,-106,147,212)" text="" font-familyName="Helvetica" font-pixelSize="20" font-bold="0" font-underline="0" font-alignment="1" strokeStyle="1" markerStart="0" markerEnd="1" shadowEnabled="0" shadowOffsetX="0" shadowOffsetY="2" shadowBlur="4" shadowOpacity="160" blurEnabled="0" blurRadius="4" transform="matrix(1,0,0,1,539,193.5)" pers-center="0,0" pers-size="0,0" pers-start="0,0" pers-end="0,0" locked="0" mesh="" flag=""/>
            <path id="shapePath21" d="M465.5,299.5 C465.5,299.5 542.5,299.5 542.5,299.5 C542.5,299.5 612.5,87.5 612.5,87.5 " style="stroke:#29d914;stroke-opacity:1;stroke-width:5;stroke-linejoin:miter;stroke-miterlimit:2;stroke-linecap:round;fill:none;"/>
            <path id="markerPath21" d="M618.95,131.754 L615.635,78.0042 L580.967,119.212 L618.95,131.754 Z" style="stroke:none;fill-rule:evenodd;fill:#29d914;fill-opacity:1;"/>
        </g>
        <g id="Shape22">
            <desc shapeID="22" type="0" basicInfo-basicType="5" basicInfo-roundedRectRadius="12" basicInfo-polygonSides="6" basicInfo-starPoints="5" bounding="rect(-28.125,-29.4451,56.2501,58.8902)" text="" font-familyName="Helvetica" font-pixelSize="20" font-bold="0" font-underline="0" font-alignment="1" strokeStyle="0" markerStart="0" markerEnd="0" shadowEnabled="0" shadowOffsetX="0" shadowOffsetY="2" shadowBlur="4" shadowOpacity="160" blurEnabled="0" blurRadius="4" transform="matrix(-1.35884e-06,0.606668,-0.434232,-2.69539e-06,449.214,56.2537)" pers-center="0,0" pers-size="0,0" pers-start="0,0" pers-end="0,0" locked="0" mesh="" flag=""/>
            <path id="shapePath22" d="M449.214,73.3163 L436.428,39.1911 L462,39.1915 L449.214,73.3163 Z" style="stroke:#323232;stroke-opacity:1;stroke-width:2;stroke-linejoin:miter;stroke-miterlimit:2;stroke-linecap:round;fill:none;"/>
        </g>
        <g id="Shape23">
            <desc shapeID="23" type="0" basicInfo-basicType="5" basicInfo-roundedRectRadius="12" basicInfo-polygonSides="6" basicInfo-starPoints="5" bounding="rect(-28.125,-29.4451,56.2501,58.8903)" text="" font-familyName="Helvetica" font-pixelSize="20" font-bold="0" font-underline="0" font-alignment="1" strokeStyle="0" markerStart="0" markerEnd="0" shadowEnabled="0" shadowOffsetX="0" shadowOffsetY="2" shadowBlur="4" shadowOpacity="160" blurEnabled="0" blurRadius="4" transform="matrix(-1.35884e-06,0.606668,-0.434232,-2.69539e-06,538,56.2537)" pers-center="0,0" pers-size="0,0" pers-start="0,0" pers-end="0,0" locked="0" mesh="" flag=""/>
            <path id="shapePath23" d="M538,73.3163 L525.214,39.1911 L550.786,39.1915 L538,73.3163 Z" style="stroke:#323232;stroke-opacity:1;stroke-width:2;stroke-linejoin:miter;stroke-miterlimit:2;stroke-linecap:round;fill:none;"/>
        </g>
        <g id="Shape24">
            <desc shapeID="24" type="0" basicInfo-basicType="5" basicInfo-roundedRectRadius="12" basicInfo-polygonSides="6" basicInfo-starPoints="5" bounding="rect(-28.125,-29.4451,56.2501,58.8903)" text="" font-familyName="Helvetica" font-pixelSize="20" font-bold="0" font-underline="0" font-alignment="1" strokeStyle="0" markerStart="0" markerEnd="0" shadowEnabled="0" shadowOffsetX="0" shadowOffsetY="2" shadowBlur="4" shadowOpacity="160" blurEnabled="0" blurRadius="4" transform="matrix(-1.35884e-06,0.606668,-0.434232,-2.69539e-06,615.023,63.4374)" pers-center="0,0" pers-size="0,0" pers-start="0,0" pers-end="0,0" locked="0" mesh="" flag=""/>
            <path id="shapePath24" d="M615.023,80.5 L602.237,46.3748 L627.809,46.3752 L615.023,80.5 Z" style="stroke:#323232;stroke-opacity:1;stroke-width:2;stroke-linejoin:miter;stroke-miterlimit:2;stroke-linecap:round;fill:none;"/>
        </g>
        <g id="Shape25">
            <desc shapeID="25" type="0" basicInfo-basicType="4" basicInfo-roundedRectRadius="12" basicInfo-polygonSides="6" basicInfo-starPoints="5" bounding="rect(-7,-7,14,14)" text="" font-familyName="Helvetica" font-pixelSize="20" font-bold="0" font-underline="0" font-alignment="1" strokeStyle="0" markerStart="0" markerEnd="0" shadowEnabled="0" shadowOffsetX="0" shadowOffsetY="2" shadowBlur="4" shadowOpacity="160" blurEnabled="0" blurRadius="4" transform="matrix(1,0,0,1,538.5,334.5)" pers-center="0,0" pers-size="0,0" pers-start="0,0" pers-end="0,0" locked="0" mesh="" flag=""/>
            <path id="shapePath25" d="M531.5,334.5 C531.5,330.634 534.634,327.5 538.5,327.5 C542.366,327.5 545.5,330.634 545.5,334.5 C545.5,338.366 542.366,341.5 538.5,341.5 C534.634,341.5 531.5,338.366 531.5,334.5 Z" style="stroke:#323232;stroke-opacity:1;stroke-width:1;stroke-linejoin:miter;stroke-miterlimit:2;stroke-linecap:round;fill-rule:evenodd;fill:#1bdc16;fill-opacity:1;"/>
        </g>
        <g id="Shape26">
            <desc shapeID="26" type="0" basicInfo-basicType="4" basicInfo-roundedRectRadius="12" basicInfo-polygonSides="6" basicInfo-starPoints="5" bounding="rect(-7,-7,14,14)" text="" font-familyName="Helvetica" font-pixelSize="20" font-bold="0" font-underline="0" font-alignment="1" strokeStyle="0" markerStart="0" markerEnd="0" shadowEnabled="0" shadowOffsetX="0" shadowOffsetY="2" shadowBlur="4" shadowOpacity="160" blurEnabled="0" blurRadius="4" transform="matrix(1,0,0,1,449,339)" pers-center="0,0" pers-size="0,0" pers-start="0,0" pers-end="0,0" locked="0" mesh="" flag=""/>
            <path id="shapePath26" d="M442,339 C442,335.134 445.134,332 449,332 C452.866,332 456,335.134 456,339 C456,342.866 452.866,346 449,346 C445.134,346 442,342.866 442,339 Z" style="stroke:#323232;stroke-opacity:1;stroke-width:1;stroke-linejoin:miter;stroke-miterlimit:2;stroke-linecap:round;fill-rule:evenodd;fill:#1bdc16;fill-opacity:1;"/>
        </g>
        <g id="Shape27">
            <desc shapeID="27" type="0" basicInfo-basicType="4" basicInfo-roundedRectRadius="12" basicInfo-polygonSides="6" basicInfo-starPoints="5" bounding="rect(-7,-7,14,14)" text="" font-familyName="Helvetica" font-pixelSize="20" font-bold="0" font-underline="0" font-alignment="1" strokeStyle="0" markerStart="0" markerEnd="0" shadowEnabled="0" shadowOffsetX="0" shadowOffsetY="2" shadowBlur="4" shadowOpacity="160" blurEnabled="0" blurRadius="4" transform="matrix(1,0,0,1,357,345)" pers-center="0,0" pers-size="0,0" pers-start="0,0" pers-end="0,0" locked="0" mesh="" flag=""/>
            <path id="shapePath27" d="M350,345 C350,341.134 353.134,338 357,338 C360.866,338 364,341.134 364,345 C364,348.866 360.866,352 357,352 C353.134,352 350,348.866 350,345 Z" style="stroke:#323232;stroke-opacity:1;stroke-width:1;stroke-linejoin:miter;stroke-miterlimit:2;stroke-linecap:round;fill-rule:evenodd;fill:#1bdc16;fill-opacity:1;"/>
        </g>
        <g id="Shape28">
            <desc shapeID="28" type="0" basicInfo-basicType="4" basicInfo-roundedRectRadius="12" basicInfo-polygonSides="6" basicInfo-starPoints="5" bounding="rect(-7,-7,14,14)" text="" font-familyName="Helvetica" font-pixelSize="20" font-bold="0" font-underline="0" font-alignment="1" strokeStyle="0" markerStart="0" markerEnd="0" shadowEnabled="0" shadowOffsetX="0" shadowOffsetY="2" shadowBlur="4" shadowOpacity="160" blurEnabled="0" blurRadius="4" transform="matrix(1,0,0,1,614,330)" pers-center="0,0" pers-size="0,0" pers-start="0,0" pers-end="0,0" locked="0" mesh="" flag=""/>
            <path id="shapePath28" d="M607,330 C607,326.134 610.134,323 614,323 C617.866,323 621,326.134 621,330 C621,333.866 617.866,337 614,337 C610.134,337 607,333.866 607,330 Z" style="stroke:#323232;stroke-opacity:1;stroke-width:1;stroke-linejoin:miter;stroke-miterlimit:2;stroke-linecap:round;fill-rule:evenodd;fill:#1bdc16;fill-opacity:1;"/>
        </g>
        <g id="Shape29">
            <desc shapeID="29" type="0" basicInfo-basicType="4" basicInfo-roundedRectRadius="12" basicInfo-polygonSides="6" basicInfo-starPoints="5" bounding="rect(-7,-7,14,14)" text="" font-familyName="Helvetica" font-pixelSize="20" font-bold="0" font-underline="0" font-alignment="1" strokeStyle="0" markerStart="0" markerEnd="0" shadowEnabled="0" shadowOffsetX="0" shadowOffsetY="2" shadowBlur="4" shadowOpacity="160" blurEnabled="0" blurRadius="4" transform="matrix(1,0,0,1,255.365,372)" pers-center="0,0" pers-size="0,0" pers-start="0,0" pers-end="0,0" locked="0" mesh="" flag=""/>
            <path id="shapePath29" d="M248.365,372 C248.365,368.134 251.499,365 255.365,365 C259.231,365 262.365,368.134 262.365,372 C262.365,375.866 259.231,379 255.365,379 C251.499,379 248.365,375.866 248.365,372 Z" style="stroke:#323232;stroke-opacity:1;stroke-width:1;stroke-linejoin:miter;stroke-miterlimit:2;stroke-linecap:round;fill-rule:evenodd;fill:#dc1a22;fill-opacity:1;"/>
        </g>
        <g id="Shape30">
            <desc shapeID="30" type="0" basicInfo-basicType="0" basicInfo-roundedRectRadius="12" basicInfo-polygonSides="6" basicInfo-starPoints="5" bounding="rect(-20.9233,-18.9945,41.8465,37.989)" text="" font-familyName="Helvetica" font-pixelSize="20" font-bold="0" font-underline="0" font-alignment="1" strokeStyle="0" markerStart="0" markerEnd="0" shadowEnabled="0" shadowOffsetX="0" shadowOffsetY="2" shadowBlur="4" shadowOpacity="160" blurEnabled="0" blurRadius="4" transform="matrix(0.863566,0,0,1,101,153)" pers-center="0,0" pers-size="0,0" pers-start="0,0" pers-end="0,0" locked="0" mesh="" flag=""/>
            <path id="shapePath30" d="M101,134.005 L106.584,146.51 L119.069,148.517 L110.035,158.251 L112.167,171.995 L101,165.506 L89.8331,171.995 L91.9652,158.251 L82.9314,148.516 L95.416,146.51 L101,134.005 Z" style="stroke:#323232;stroke-opacity:1;stroke-width:5.5;stroke-linejoin:miter;stroke-miterlimit:2;stroke-linecap:round;fill-rule:evenodd;fill:#969696;fill-opacity:1;"/>
        </g>
        <g id="Shape31">
            <desc shapeID="31" type="0" basicInfo-basicType="0" basicInfo-roundedRectRadius="12" basicInfo-polygonSides="6" basicInfo-starPoints="5" bounding="rect(-77.182,-29.1875,154.364,58.3749)" text="" font-familyName="Helvetica" font-pixelSize="20" font-bold="0" font-underline="0" font-alignment="1" strokeStyle="1" markerStart="0" markerEnd="1" shadowEnabled="0" shadowOffsetX="0" shadowOffsetY="2" shadowBlur="4" shadowOpacity="160" blurEnabled="0" blurRadius="4" transform="matrix(1,0,0,1,178.182,123.813)" pers-center="0,0" pers-size="0,0" pers-start="0,0" pers-end="0,0" locked="0" mesh="" flag=""/>
            <path id="shapePath31" d="M101,153 C101,153 255.365,94.6251 255.365,94.6251 " style="stroke:#e9181f;stroke-opacity:1;stroke-width:5;stroke-linejoin:miter;stroke-miterlimit:2;stroke-linecap:round;fill:none;"/>
            <path id="markerPath31" d="M225.025,127.481 L264.718,91.0879 L210.876,90.0667 L225.025,127.481 Z" style="stroke:none;fill-rule:evenodd;fill:#e9181f;fill-opacity:1;"/>
        </g>
        <g id="Shape32">
            <desc shapeID="32" type="2" basicInfo-basicType="0" basicInfo-roundedRectRadius="12" basicInfo-polygonSides="6" basicInfo-starPoints="5" bounding="rect(-79.5,-25.5,159,51)" text="Different assumed depths" font-familyName="Helvetica" font-pixelSize="20" font-bold="0" font-underline="0" font-alignment="1" strokeStyle="0" markerStart="0" markerEnd="0" shadowEnabled="0" shadowOffsetX="0" shadowOffsetY="2" shadowBlur="4" shadowOpacity="160" blurEnabled="0" blurRadius="4" transform="matrix(1,0,0,1,97.1071,55.502)" pers-center="0,0" pers-size="0,0" pers-start="0,0" pers-end="0,0" locked="0" mesh="" flag=""/>
            <path id="shapePath32" d="M66.5602,48.7324 C67.2178,48.7324 67.7582,48.6641 68.1813,48.5274 C68.9366,48.2734 69.555,47.7852 70.0368,47.0625 C70.4209,46.4831 70.6976,45.7409 70.8669,44.8359 C70.9645,44.2956 71.0134,43.7943 71.0134,43.332 C71.0134,41.5547 70.6602,40.1745 69.9538,39.1914 C69.2474,38.2083 68.1097,37.7168 66.5407,37.7168 L63.0935,37.7168 L63.0935,48.7324 L66.5602,48.7324 M61.1403,36.0469 L66.9509,36.0469 C68.9235,36.0469 70.4535,36.7467 71.5407,38.1465 C72.5108,39.4095 72.9958,41.0274 72.9958,43 C72.9958,44.5234 72.7093,45.9004 72.1364,47.1309 C71.1273,49.3053 69.3923,50.3926 66.9313,50.3926 L61.1403,50.3926 L61.1403,36.0469 M75.2556,39.9824 L77.0427,39.9824 L77.0427,50.3926 L75.2556,50.3926 L75.2556,39.9824 M75.2556,36.0469 L77.0427,36.0469 L77.0427,38.0391 L75.2556,38.0391 L75.2556,36.0469 M80.5134,36.7402 C80.9235,36.1413 81.7145,35.8418 82.8864,35.8418 C82.9971,35.8418 83.111,35.8451 83.2282,35.8516 C83.3454,35.8581 83.4789,35.8678 83.6286,35.8809 L83.6286,37.4824 C83.4463,37.4694 83.3145,37.4613 83.2331,37.458 C83.1517,37.4548 83.0752,37.4531 83.0036,37.4531 C82.4698,37.4531 82.1507,37.5915 82.0466,37.8682 C81.9424,38.1449 81.8903,38.8496 81.8903,39.9824 L83.6286,39.9824 L83.6286,41.3691 L81.8708,41.3691 L81.8708,50.3926 L80.1325,50.3926 L80.1325,41.3691 L78.6774,41.3691 L78.6774,39.9824 L80.1325,39.9824 L80.1325,38.3418 C80.1586,37.6126 80.2855,37.0788 80.5134,36.7402 M85.7165,36.7402 C86.1267,36.1413 86.9177,35.8418 88.0895,35.8418 C88.2002,35.8418 88.3142,35.8451 88.4313,35.8516 C88.5485,35.8581 88.682,35.8678 88.8317,35.8809 L88.8317,37.4824 C88.6494,37.4694 88.5176,37.4613 88.4362,37.458 C88.3548,37.4548 88.2784,37.4531 88.2067,37.4531 C87.6729,37.4531 87.3539,37.5915 87.2497,37.8682 C87.1455,38.1449 87.0935,38.8496 87.0935,39.9824 L88.8317,39.9824 L88.8317,41.3691 L87.0739,41.3691 L87.0739,50.3926 L85.3356,50.3926 L85.3356,41.3691 L83.8806,41.3691 L83.8806,39.9824 L85.3356,39.9824 L85.3356,38.3418 C85.3617,37.6126 85.4886,37.0788 85.7165,36.7402 M96.9567,40.2217 C97.6534,40.57 98.1839,41.0208 98.5485,41.5742 C98.9001,42.1016 99.1345,42.7168 99.2517,43.4199 C99.3558,43.9017 99.4079,44.6699 99.4079,45.7246 L91.7419,45.7246 C91.7744,46.7858 92.0251,47.6371 92.4938,48.2783 C92.9626,48.9196 93.6885,49.2402 94.6716,49.2402 C95.5895,49.2402 96.322,48.9375 96.8688,48.332 C97.1813,47.9805 97.4027,47.5736 97.5329,47.1113 L99.2614,47.1113 C99.2159,47.4954 99.0645,47.9235 98.8073,48.3955 C98.5502,48.8675 98.2621,49.2533 97.9431,49.5527 C97.4092,50.0736 96.7484,50.4251 95.9606,50.6074 C95.5375,50.7116 95.0589,50.7637 94.5251,50.7637 C93.223,50.7637 92.1195,50.29 91.2145,49.3428 C90.3096,48.3955 89.8571,47.069 89.8571,45.3633 C89.8571,43.6836 90.3129,42.3197 91.2243,41.2715 C92.1358,40.2233 93.3272,39.6992 94.7985,39.6992 C95.5407,39.6992 96.2601,39.8734 96.9567,40.2217 M97.6013,44.3281 C97.5296,43.5664 97.3636,42.9577 97.1032,42.502 C96.6214,41.6556 95.8174,41.2324 94.6911,41.2324 C93.8838,41.2324 93.2067,41.5238 92.6599,42.1065 C92.113,42.6891 91.8233,43.4297 91.7907,44.3281 L97.6013,44.3281 M101.601,39.9336 L103.271,39.9336 L103.271,41.7402 C103.408,41.3887 103.743,40.9606 104.277,40.4561 C104.811,39.9515 105.426,39.6992 106.123,39.6992 C106.155,39.6992 106.211,39.7025 106.289,39.709 C106.367,39.7155 106.5,39.7285 106.689,39.7481 L106.689,41.6035 C106.585,41.584 106.489,41.571 106.401,41.5645 C106.313,41.5579 106.217,41.5547 106.113,41.5547 C105.228,41.5547 104.547,41.8395 104.072,42.4092 C103.597,42.9788 103.359,43.6348 103.359,44.377 L103.359,50.3926 L101.601,50.3926 L101.601,39.9336 M114.722,40.2217 C115.419,40.57 115.95,41.0208 116.314,41.5742 C116.666,42.1016 116.9,42.7168 117.017,43.4199 C117.121,43.9017 117.174,44.6699 117.174,45.7246 L109.508,45.7246 C109.54,46.7858 109.791,47.6371 110.259,48.2783 C110.728,48.9196 111.454,49.2402 112.437,49.2402 C113.355,49.2402 114.088,48.9375 114.634,48.332 C114.947,47.9805 115.168,47.5736 115.299,47.1113 L117.027,47.1113 C116.981,47.4954 116.83,47.9235 116.573,48.3955 C116.316,48.8675 116.028,49.2533 115.709,49.5527 C115.175,50.0736 114.514,50.4251 113.726,50.6074 C113.303,50.7116 112.825,50.7637 112.291,50.7637 C110.989,50.7637 109.885,50.29 108.98,49.3428 C108.075,48.3955 107.623,47.069 107.623,45.3633 C107.623,43.6836 108.078,42.3197 108.99,41.2715 C109.901,40.2233 111.093,39.6992 112.564,39.6992 C113.306,39.6992 114.026,39.8734 114.722,40.2217 M115.367,44.3281 C115.295,43.5664 115.129,42.9577 114.869,42.502 C114.387,41.6556 113.583,41.2324 112.457,41.2324 C111.649,41.2324 110.972,41.5238 110.425,42.1065 C109.879,42.6891 109.589,43.4297 109.556,44.3281 L115.367,44.3281 M119.318,39.9336 L120.988,39.9336 L120.988,41.418 C121.483,40.806 122.007,40.3665 122.56,40.0996 C123.114,39.8327 123.729,39.6992 124.406,39.6992 C125.89,39.6992 126.893,40.2168 127.414,41.252 C127.7,41.8184 127.843,42.6289 127.843,43.6836 L127.843,50.3926 L126.056,50.3926 L126.056,43.8008 C126.056,43.1628 125.962,42.6484 125.773,42.2578 C125.461,41.6068 124.894,41.2813 124.074,41.2813 C123.657,41.2813 123.315,41.3236 123.049,41.4082 C122.567,41.5514 122.144,41.8379 121.779,42.2676 C121.486,42.6126 121.296,42.9691 121.208,43.3369 C121.12,43.7048 121.076,44.2305 121.076,44.9141 L121.076,50.3926 L119.318,50.3926 L119.318,39.9336 M130.779,37.0137 L132.556,37.0137 L132.556,39.9336 L134.226,39.9336 L134.226,41.3691 L132.556,41.3691 L132.556,48.1953 C132.556,48.5599 132.68,48.804 132.927,48.9277 C133.064,48.9994 133.292,49.0352 133.611,49.0352 C133.696,49.0352 133.787,49.0335 133.884,49.0303 C133.982,49.027 134.096,49.0189 134.226,49.0059 L134.226,50.3926 C134.024,50.4512 133.814,50.4935 133.596,50.5195 C133.378,50.5456 133.142,50.5586 132.888,50.5586 C132.068,50.5586 131.511,50.3486 131.218,49.9287 C130.925,49.5088 130.779,48.9636 130.779,48.293 L130.779,41.3691 L129.363,41.3691 L129.363,39.9336 L130.779,39.9336 L130.779,37.0137 M26.988,68.8106 C27.3591,69.1035 27.7985,69.25 28.3063,69.25 C28.9248,69.25 29.5238,69.1068 30.1032,68.8203 C31.0798,68.3451 31.5681,67.5671 31.5681,66.4863 L31.5681,65.0703 C31.3532,65.207 31.0765,65.321 30.738,65.4121 C30.3994,65.5033 30.0674,65.5684 29.7419,65.6074 L28.6774,65.7441 C28.0394,65.8288 27.5609,65.9622 27.2419,66.1445 C26.7015,66.4505 26.4313,66.9388 26.4313,67.6094 C26.4313,68.1172 26.6169,68.5176 26.988,68.8106 M30.6892,64.0547 C31.0928,64.0026 31.363,63.8333 31.4997,63.5469 C31.5778,63.3906 31.6169,63.166 31.6169,62.8731 C31.6169,62.2741 31.4037,61.8395 30.9772,61.5693 C30.5508,61.2992 29.9405,61.1641 29.1462,61.1641 C28.2282,61.1641 27.5772,61.4115 27.1931,61.9063 C26.9782,62.1797 26.8382,62.5866 26.7731,63.127 L25.1325,63.127 C25.1651,61.8379 25.5834,60.9411 26.3874,60.4365 C27.1914,59.932 28.1241,59.6797 29.1852,59.6797 C30.4157,59.6797 31.4151,59.9141 32.1833,60.3828 C32.945,60.8516 33.3259,61.5807 33.3259,62.5703 L33.3259,68.5957 C33.3259,68.778 33.3633,68.9245 33.4382,69.0352 C33.5131,69.1458 33.6709,69.2012 33.9118,69.2012 C33.9899,69.2012 34.0778,69.1963 34.1755,69.1865 C34.2731,69.1768 34.3773,69.1621 34.488,69.1426 L34.488,70.4414 C34.2145,70.5195 34.0062,70.5684 33.863,70.5879 C33.7198,70.6074 33.5244,70.6172 33.277,70.6172 C32.6716,70.6172 32.2321,70.4024 31.9587,69.9727 C31.8155,69.7448 31.7145,69.4225 31.656,69.0059 C31.2979,69.4746 30.7836,69.8815 30.113,70.2266 C29.4424,70.5716 28.7035,70.7441 27.8962,70.7441 C26.9261,70.7441 26.1335,70.4496 25.5183,69.8604 C24.903,69.2712 24.5954,68.5339 24.5954,67.6484 C24.5954,66.6784 24.8981,65.9264 25.5036,65.3926 C26.1091,64.8587 26.9034,64.53 27.8864,64.4063 L30.6892,64.0547 M37.238,67.1113 C37.2901,67.6973 37.4366,68.1465 37.6774,68.459 C38.1201,69.0254 38.8884,69.3086 39.9821,69.3086 C40.6332,69.3086 41.2061,69.167 41.7009,68.8838 C42.1957,68.6006 42.4431,68.1628 42.4431,67.5703 C42.4431,67.1211 42.2445,66.7793 41.8474,66.5449 C41.5935,66.4017 41.0922,66.2357 40.3435,66.0469 L38.947,65.6953 C38.055,65.474 37.3975,65.2266 36.9743,64.9531 C36.2191,64.4779 35.8415,63.8203 35.8415,62.9805 C35.8415,61.9909 36.1979,61.1901 36.9108,60.5781 C37.6237,59.9662 38.5824,59.6602 39.7868,59.6602 C41.3623,59.6602 42.4984,60.1224 43.195,61.0469 C43.6312,61.6328 43.8428,62.2643 43.8298,62.9414 L42.1696,62.9414 C42.1371,62.5443 41.9971,62.1829 41.7497,61.8574 C41.3461,61.3952 40.6462,61.1641 39.6501,61.1641 C38.986,61.1641 38.4831,61.291 38.1413,61.5449 C37.7995,61.7988 37.6286,62.1341 37.6286,62.5508 C37.6286,63.0065 37.8532,63.3711 38.3024,63.6445 C38.5629,63.8073 38.947,63.9505 39.4548,64.0742 L40.6169,64.3574 C41.8799,64.6634 42.7263,64.9596 43.156,65.2461 C43.8395,65.6953 44.1813,66.4017 44.1813,67.3652 C44.1813,68.2962 43.8282,69.1003 43.1218,69.7774 C42.4154,70.4544 41.3395,70.793 39.8942,70.793 C38.3382,70.793 37.2364,70.4398 36.5886,69.7334 C35.9408,69.027 35.5941,68.153 35.5485,67.1113 L37.238,67.1113 M47.238,67.1113 C47.2901,67.6973 47.4366,68.1465 47.6774,68.459 C48.1201,69.0254 48.8884,69.3086 49.9821,69.3086 C50.6332,69.3086 51.2061,69.167 51.7009,68.8838 C52.1957,68.6006 52.4431,68.1628 52.4431,67.5703 C52.4431,67.1211 52.2445,66.7793 51.8474,66.5449 C51.5935,66.4017 51.0922,66.2357 50.3435,66.0469 L48.947,65.6953 C48.055,65.474 47.3975,65.2266 46.9743,64.9531 C46.2191,64.4779 45.8415,63.8203 45.8415,62.9805 C45.8415,61.9909 46.1979,61.1901 46.9108,60.5781 C47.6237,59.9662 48.5824,59.6602 49.7868,59.6602 C51.3623,59.6602 52.4984,60.1224 53.195,61.0469 C53.6312,61.6328 53.8428,62.2643 53.8298,62.9414 L52.1696,62.9414 C52.1371,62.5443 51.9971,62.1829 51.7497,61.8574 C51.3461,61.3952 50.6462,61.1641 49.6501,61.1641 C48.986,61.1641 48.4831,61.291 48.1413,61.5449 C47.7995,61.7988 47.6286,62.1341 47.6286,62.5508 C47.6286,63.0065 47.8532,63.3711 48.3024,63.6445 C48.5629,63.8073 48.947,63.9505 49.4548,64.0742 L50.6169,64.3574 C51.8799,64.6634 52.7263,64.9596 53.156,65.2461 C53.8395,65.6953 54.1813,66.4017 54.1813,67.3652 C54.1813,68.2962 53.8282,69.1003 53.1218,69.7774 C52.4154,70.4544 51.3395,70.793 49.8942,70.793 C48.3382,70.793 47.2364,70.4398 46.5886,69.7334 C45.9408,69.027 45.5941,68.153 45.5485,67.1113 L47.238,67.1113 M57.9509,59.9336 L57.9509,66.877 C57.9509,67.4108 58.0355,67.847 58.2048,68.1856 C58.5173,68.8106 59.1,69.1231 59.9528,69.1231 C61.1768,69.1231 62.0101,68.5762 62.4528,67.4824 C62.6937,66.8965 62.8142,66.0925 62.8142,65.0703 L62.8142,59.9336 L64.572,59.9336 L64.572,70.3926 L62.9118,70.3926 L62.9313,68.8496 C62.7035,69.2467 62.4203,69.582 62.0817,69.8555 C61.4112,70.4024 60.5974,70.6758 59.6403,70.6758 C58.1494,70.6758 57.1338,70.1777 56.5935,69.1816 C56.3005,68.6478 56.154,67.9349 56.154,67.043 L56.154,59.9336 L57.9509,59.9336 M67.3024,59.9336 L69.0407,59.9336 L69.0407,61.418 C69.4574,60.9037 69.835,60.5293 70.1735,60.2949 C70.753,59.8978 71.4105,59.6992 72.1462,59.6992 C72.9795,59.6992 73.6501,59.9043 74.1579,60.3145 C74.4444,60.5488 74.7048,60.8939 74.9392,61.3496 C75.3298,60.7897 75.7888,60.3747 76.3161,60.1045 C76.8435,59.8343 77.4359,59.6992 78.0935,59.6992 C79.4997,59.6992 80.4567,60.207 80.9645,61.2227 C81.238,61.7695 81.3747,62.5052 81.3747,63.4297 L81.3747,70.3926 L79.5485,70.3926 L79.5485,63.127 C79.5485,62.4303 79.3744,61.9518 79.0261,61.6914 C78.6778,61.431 78.253,61.3008 77.7517,61.3008 C77.0616,61.3008 76.4675,61.5319 75.9694,61.9941 C75.4714,62.4564 75.2224,63.2279 75.2224,64.3086 L75.2224,70.3926 L73.4352,70.3926 L73.4352,63.5664 C73.4352,62.8568 73.3506,62.3392 73.1813,62.0137 C72.9144,61.5254 72.4164,61.2813 71.6872,61.2813 C71.0231,61.2813 70.4193,61.5384 69.8757,62.0527 C69.3321,62.5671 69.0602,63.4981 69.0602,64.8457 L69.0602,70.3926 L67.3024,70.3926 L67.3024,59.9336 M90.4724,60.2217 C91.169,60.57 91.6996,61.0208 92.0642,61.5742 C92.4157,62.1016 92.6501,62.7168 92.7673,63.4199 C92.8714,63.9017 92.9235,64.6699 92.9235,65.7246 L85.2575,65.7246 C85.2901,66.7858 85.5407,67.6371 86.0095,68.2783 C86.4782,68.9196 87.2041,69.2402 88.1872,69.2402 C89.1052,69.2402 89.8376,68.9375 90.3845,68.332 C90.697,67.9805 90.9183,67.5736 91.0485,67.1113 L92.777,67.1113 C92.7315,67.4955 92.5801,67.9235 92.3229,68.3955 C92.0658,68.8675 91.7777,69.2533 91.4587,69.5527 C90.9248,70.0736 90.264,70.4251 89.4763,70.6074 C89.0531,70.7116 88.5746,70.7637 88.0407,70.7637 C86.7386,70.7637 85.6351,70.29 84.7302,69.3428 C83.8252,68.3955 83.3727,67.069 83.3727,65.3633 C83.3727,63.6836 83.8285,62.3197 84.7399,61.2715 C85.6514,60.2233 86.8428,59.6992 88.3142,59.6992 C89.0563,59.6992 89.7757,59.8734 90.4724,60.2217 M91.1169,64.3281 C91.0453,63.5664 90.8793,62.9577 90.6188,62.502 C90.1371,61.6556 89.333,61.2324 88.2067,61.2324 C87.3994,61.2324 86.7224,61.5238 86.1755,62.1065 C85.6286,62.6891 85.3389,63.4297 85.3063,64.3281 L91.1169,64.3281 M96.8942,68.0977 C97.3695,68.8529 98.1312,69.2305 99.1794,69.2305 C99.9932,69.2305 100.662,68.8805 101.186,68.1807 C101.71,67.4808 101.972,66.4766 101.972,65.168 C101.972,63.8464 101.702,62.8682 101.162,62.2334 C100.621,61.5986 99.9541,61.2813 99.1599,61.2813 C98.2744,61.2813 97.5567,61.6198 97.0065,62.2969 C96.4564,62.974 96.1813,63.9701 96.1813,65.2852 C96.1813,66.405 96.419,67.3425 96.8942,68.0977 M100.84,60.2559 C101.152,60.4512 101.507,60.793 101.904,61.2813 L101.904,55.9981 L103.593,55.9981 L103.593,70.3926 L102.011,70.3926 L102.011,68.9375 C101.601,69.582 101.116,70.0475 100.556,70.334 C99.9964,70.6205 99.3552,70.7637 98.6325,70.7637 C97.4671,70.7637 96.458,70.2738 95.6052,69.294 C94.7523,68.3141 94.3259,67.0104 94.3259,65.3828 C94.3259,63.8594 94.7149,62.5394 95.4929,61.4229 C96.2709,60.3063 97.3825,59.7481 98.8278,59.7481 C99.6286,59.7481 100.299,59.9173 100.84,60.2559 M113.55,68.0977 C114.026,68.8529 114.787,69.2305 115.836,69.2305 C116.649,69.2305 117.318,68.8805 117.842,68.1807 C118.367,67.4808 118.629,66.4766 118.629,65.168 C118.629,63.8464 118.358,62.8682 117.818,62.2334 C117.278,61.5986 116.61,61.2813 115.816,61.2813 C114.931,61.2813 114.213,61.6198 113.663,62.2969 C113.113,62.974 112.838,63.9701 112.838,65.2852 C112.838,66.405 113.075,67.3425 113.55,68.0977 M117.496,60.2559 C117.808,60.4512 118.163,60.793 118.56,61.2813 L118.56,55.9981 L120.25,55.9981 L120.25,70.3926 L118.668,70.3926 L118.668,68.9375 C118.258,69.582 117.772,70.0475 117.213,70.334 C116.653,70.6205 116.011,70.7637 115.289,70.7637 C114.123,70.7637 113.114,70.2738 112.261,69.294 C111.409,68.3141 110.982,67.0104 110.982,65.3828 C110.982,63.8594 111.371,62.5394 112.149,61.4229 C112.927,60.3063 114.039,59.7481 115.484,59.7481 C116.285,59.7481 116.955,59.9173 117.496,60.2559 M129.347,60.2217 C130.044,60.57 130.575,61.0208 130.939,61.5742 C131.291,62.1016 131.525,62.7168 131.642,63.4199 C131.746,63.9017 131.799,64.6699 131.799,65.7246 L124.133,65.7246 C124.165,66.7858 124.416,67.6371 124.884,68.2783 C125.353,68.9196 126.079,69.2402 127.062,69.2402 C127.98,69.2402 128.713,68.9375 129.259,68.332 C129.572,67.9805 129.793,67.5736 129.924,67.1113 L131.652,67.1113 C131.606,67.4955 131.455,67.9235 131.198,68.3955 C130.941,68.8675 130.653,69.2533 130.334,69.5527 C129.8,70.0736 129.139,70.4251 128.351,70.6074 C127.928,70.7116 127.45,70.7637 126.916,70.7637 C125.614,70.7637 124.51,70.29 123.605,69.3428 C122.7,68.3955 122.248,67.069 122.248,65.3633 C122.248,63.6836 122.703,62.3197 123.615,61.2715 C124.526,60.2233 125.718,59.6992 127.189,59.6992 C127.931,59.6992 128.651,59.8734 129.347,60.2217 M129.992,64.3281 C129.92,63.5664 129.754,62.9577 129.494,62.502 C129.012,61.6556 128.208,61.2324 127.082,61.2324 C126.274,61.2324 125.597,61.5238 125.05,62.1065 C124.504,62.6891 124.214,63.4297 124.181,64.3281 L129.992,64.3281 M140.403,68.1807 C140.947,67.4938 141.218,66.4668 141.218,65.0996 C141.218,64.2663 141.098,63.5501 140.857,62.9512 C140.401,61.7988 139.568,61.2227 138.357,61.2227 C137.14,61.2227 136.306,61.8314 135.857,63.0488 C135.616,63.6999 135.496,64.5267 135.496,65.5293 C135.496,66.3366 135.616,67.0234 135.857,67.5899 C136.313,68.6706 137.146,69.2109 138.357,69.2109 C139.177,69.2109 139.859,68.8675 140.403,68.1807 M133.806,59.9824 L135.515,59.9824 L135.515,61.3691 C135.867,60.8939 136.251,60.5261 136.668,60.2656 C137.26,59.875 137.957,59.6797 138.758,59.6797 C139.942,59.6797 140.948,60.1338 141.775,61.042 C142.602,61.9502 143.015,63.2474 143.015,64.9336 C143.015,67.2122 142.42,68.8399 141.228,69.8164 C140.473,70.4349 139.594,70.7441 138.591,70.7441 C137.804,70.7441 137.143,70.5716 136.609,70.2266 C136.297,70.0313 135.948,69.696 135.564,69.2207 L135.564,74.5625 L133.806,74.5625 L133.806,59.9824 M145.404,57.0137 L147.181,57.0137 L147.181,59.9336 L148.851,59.9336 L148.851,61.3691 L147.181,61.3691 L147.181,68.1953 C147.181,68.5599 147.305,68.804 147.552,68.9277 C147.689,68.9994 147.917,69.0352 148.236,69.0352 C148.321,69.0352 148.412,69.0335 148.509,69.0303 C148.607,69.027 148.721,69.0189 148.851,69.0059 L148.851,70.3926 C148.649,70.4512 148.439,70.4935 148.221,70.5195 C148.003,70.5456 147.767,70.5586 147.513,70.5586 C146.693,70.5586 146.136,70.3486 145.843,69.9287 C145.55,69.5088 145.404,68.9635 145.404,68.293 L145.404,61.3691 L143.988,61.3691 L143.988,59.9336 L145.404,59.9336 L145.404,57.0137 M150.599,55.9981 L152.357,55.9981 L152.357,61.3496 C152.774,60.8223 153.148,60.4512 153.48,60.2363 C154.047,59.8652 154.753,59.6797 155.599,59.6797 C157.116,59.6797 158.145,60.2103 158.685,61.2715 C158.978,61.8509 159.125,62.655 159.125,63.6836 L159.125,70.3926 L157.318,70.3926 L157.318,63.8008 C157.318,63.0326 157.22,62.4694 157.025,62.1113 C156.706,61.5384 156.107,61.252 155.228,61.252 C154.499,61.252 153.838,61.5026 153.246,62.0039 C152.653,62.5052 152.357,63.4525 152.357,64.8457 L152.357,70.3926 L150.599,70.3926 L150.599,55.9981 M162.754,67.1113 C162.806,67.6973 162.952,68.1465 163.193,68.459 C163.636,69.0254 164.404,69.3086 165.498,69.3086 C166.149,69.3086 166.722,69.167 167.216,68.8838 C167.711,68.6006 167.959,68.1628 167.959,67.5703 C167.959,67.1211 167.76,66.7793 167.363,66.5449 C167.109,66.4017 166.608,66.2357 165.859,66.0469 L164.463,65.6953 C163.571,65.474 162.913,65.2266 162.49,64.9531 C161.735,64.4779 161.357,63.8203 161.357,62.9805 C161.357,61.9909 161.714,61.1901 162.426,60.5781 C163.139,59.9662 164.098,59.6602 165.302,59.6602 C166.878,59.6602 168.014,60.1224 168.711,61.0469 C169.147,61.6328 169.358,62.2643 169.345,62.9414 L167.685,62.9414 C167.653,62.5443 167.513,62.1829 167.265,61.8574 C166.862,61.3952 166.162,61.1641 165.166,61.1641 C164.502,61.1641 163.999,61.291 163.657,61.5449 C163.315,61.7988 163.144,62.1341 163.144,62.5508 C163.144,63.0065 163.369,63.3711 163.818,63.6445 C164.078,63.8073 164.463,63.9505 164.97,64.0742 L166.133,64.3574 C167.396,64.6634 168.242,64.9596 168.672,65.2461 C169.355,65.6953 169.697,66.4017 169.697,67.3652 C169.697,68.2962 169.344,69.1003 168.637,69.7774 C167.931,70.4544 166.855,70.793 165.41,70.793 C163.854,70.793 162.752,70.4398 162.104,69.7334 C161.456,69.027 161.11,68.153 161.064,67.1113 L162.754,67.1113 Z" style="stroke:none;fill-rule:nonzero;fill:#000000;fill-opacity:1;"/>
        </g>
        <g id="Shape33">
            <desc shapeID="33" type="2" basicInfo-basicType="0" basicInfo-roundedRectRadius="12" basicInfo-polygonSides="6" basicInfo-starPoints="5" bounding="rect(-199.246,-24,398.492,48)" text="Greater depth = negative Pg residual" font-familyName="Helvetica" font-pixelSize="20" font-bold="0" font-underline="0" font-alignment="1" strokeStyle="0" markerStart="0" markerEnd="0" shadowEnabled="0" shadowOffsetX="0" shadowOffsetY="2" shadowBlur="4" shadowOpacity="160" blurEnabled="0" blurRadius="4" transform="matrix(1,0,0,1,432.754,374.256)" pers-center="0,0" pers-size="0,0" pers-start="0,0" pers-end="0,0" locked="0" mesh="" flag=""/>
            <path id="shapePath33" d="M280.443,365.711 C281.869,366.46 282.742,367.771 283.061,369.646 L281.137,369.646 C280.902,368.598 280.417,367.835 279.682,367.356 C278.946,366.878 278.018,366.639 276.898,366.639 C275.57,366.639 274.452,367.137 273.544,368.133 C272.636,369.129 272.182,370.613 272.182,372.586 C272.182,374.292 272.556,375.68 273.305,376.751 C274.053,377.822 275.274,378.357 276.967,378.357 C278.262,378.357 279.335,377.981 280.185,377.229 C281.034,376.478 281.469,375.262 281.488,373.582 L276.996,373.582 L276.996,371.971 L283.295,371.971 L283.295,379.646 L282.045,379.646 L281.576,377.801 C280.919,378.523 280.336,379.025 279.828,379.305 C278.975,379.786 277.891,380.027 276.576,380.027 C274.877,380.027 273.415,379.477 272.191,378.377 C270.857,376.997 270.189,375.102 270.189,372.693 C270.189,370.291 270.841,368.38 272.143,366.961 C273.38,365.607 274.981,364.93 276.947,364.93 C278.295,364.93 279.46,365.19 280.443,365.711 M286.107,369.188 L287.777,369.188 L287.777,370.994 C287.914,370.643 288.249,370.215 288.783,369.71 C289.317,369.205 289.932,368.953 290.629,368.953 C290.661,368.953 290.717,368.956 290.795,368.963 C290.873,368.969 291.007,368.982 291.195,369.002 L291.195,370.857 C291.091,370.838 290.995,370.825 290.907,370.818 C290.819,370.812 290.723,370.809 290.619,370.809 C289.734,370.809 289.053,371.093 288.578,371.663 C288.103,372.233 287.865,372.889 287.865,373.631 L287.865,379.646 L286.107,379.646 L286.107,369.188 M299.229,369.476 C299.925,369.824 300.456,370.275 300.82,370.828 C301.172,371.355 301.406,371.971 301.523,372.674 C301.628,373.156 301.68,373.924 301.68,374.979 L294.014,374.979 C294.046,376.04 294.297,376.891 294.766,377.532 C295.234,378.173 295.96,378.494 296.943,378.494 C297.861,378.494 298.594,378.191 299.141,377.586 C299.453,377.234 299.674,376.827 299.805,376.365 L301.533,376.365 C301.488,376.749 301.336,377.177 301.079,377.649 C300.822,378.121 300.534,378.507 300.215,378.807 C299.681,379.327 299.02,379.679 298.232,379.861 C297.809,379.965 297.331,380.018 296.797,380.018 C295.495,380.018 294.391,379.544 293.486,378.597 C292.581,377.649 292.129,376.323 292.129,374.617 C292.129,372.938 292.585,371.574 293.496,370.525 C294.408,369.477 295.599,368.953 297.07,368.953 C297.813,368.953 298.532,369.127 299.229,369.476 M299.873,373.582 C299.801,372.82 299.635,372.212 299.375,371.756 C298.893,370.91 298.089,370.486 296.963,370.486 C296.156,370.486 295.479,370.778 294.932,371.36 C294.385,371.943 294.095,372.684 294.063,373.582 L299.873,373.582 M305.729,378.064 C306.1,378.357 306.539,378.504 307.047,378.504 C307.665,378.504 308.264,378.361 308.844,378.074 C309.82,377.599 310.309,376.821 310.309,375.74 L310.309,374.324 C310.094,374.461 309.817,374.575 309.479,374.666 C309.14,374.757 308.808,374.822 308.482,374.861 L307.418,374.998 C306.78,375.083 306.301,375.216 305.982,375.398 C305.442,375.704 305.172,376.193 305.172,376.863 C305.172,377.371 305.357,377.771 305.729,378.064 M309.43,373.309 C309.833,373.257 310.104,373.087 310.24,372.801 C310.318,372.645 310.357,372.42 310.357,372.127 C310.357,371.528 310.144,371.093 309.718,370.823 C309.291,370.553 308.681,370.418 307.887,370.418 C306.969,370.418 306.318,370.665 305.934,371.16 C305.719,371.434 305.579,371.84 305.514,372.381 L303.873,372.381 C303.906,371.092 304.324,370.195 305.128,369.69 C305.932,369.186 306.865,368.934 307.926,368.934 C309.156,368.934 310.156,369.168 310.924,369.637 C311.686,370.105 312.066,370.835 312.066,371.824 L312.066,377.85 C312.066,378.032 312.104,378.178 312.179,378.289 C312.254,378.4 312.411,378.455 312.652,378.455 C312.73,378.455 312.818,378.45 312.916,378.44 C313.014,378.431 313.118,378.416 313.229,378.396 L313.229,379.695 C312.955,379.773 312.747,379.822 312.604,379.842 C312.46,379.861 312.265,379.871 312.018,379.871 C311.412,379.871 310.973,379.656 310.699,379.227 C310.556,378.999 310.455,378.676 310.397,378.26 C310.038,378.729 309.524,379.135 308.854,379.48 C308.183,379.826 307.444,379.998 306.637,379.998 C305.667,379.998 304.874,379.703 304.259,379.114 C303.644,378.525 303.336,377.788 303.336,376.902 C303.336,375.932 303.639,375.18 304.244,374.646 C304.85,374.113 305.644,373.784 306.627,373.66 L309.43,373.309 M315.285,366.268 L317.063,366.268 L317.063,369.188 L318.732,369.188 L318.732,370.623 L317.063,370.623 L317.063,377.449 C317.063,377.814 317.186,378.058 317.434,378.182 C317.57,378.253 317.798,378.289 318.117,378.289 C318.202,378.289 318.293,378.287 318.391,378.284 C318.488,378.281 318.602,378.273 318.732,378.26 L318.732,379.646 C318.531,379.705 318.321,379.747 318.103,379.773 C317.884,379.799 317.648,379.812 317.395,379.812 C316.574,379.812 316.018,379.603 315.725,379.183 C315.432,378.763 315.285,378.217 315.285,377.547 L315.285,370.623 L313.869,370.623 L313.869,369.188 L315.285,369.188 L315.285,366.268 M326.994,369.476 C327.691,369.824 328.221,370.275 328.586,370.828 C328.938,371.355 329.172,371.971 329.289,372.674 C329.393,373.156 329.445,373.924 329.445,374.979 L321.779,374.979 C321.812,376.04 322.063,376.891 322.531,377.532 C323,378.173 323.726,378.494 324.709,378.494 C325.627,378.494 326.359,378.191 326.906,377.586 C327.219,377.234 327.44,376.827 327.57,376.365 L329.299,376.365 C329.253,376.749 329.102,377.177 328.845,377.649 C328.588,378.121 328.299,378.507 327.98,378.807 C327.447,379.327 326.786,379.679 325.998,379.861 C325.575,379.965 325.096,380.018 324.563,380.018 C323.26,380.018 322.157,379.544 321.252,378.597 C320.347,377.649 319.895,376.323 319.895,374.617 C319.895,372.938 320.35,371.574 321.262,370.525 C322.173,369.477 323.365,368.953 324.836,368.953 C325.578,368.953 326.298,369.127 326.994,369.476 M327.639,373.582 C327.567,372.82 327.401,372.212 327.141,371.756 C326.659,370.91 325.855,370.486 324.729,370.486 C323.921,370.486 323.244,370.778 322.697,371.36 C322.15,371.943 321.861,372.684 321.828,373.582 L327.639,373.582 M331.639,369.188 L333.309,369.188 L333.309,370.994 C333.445,370.643 333.781,370.215 334.314,369.71 C334.848,369.205 335.464,368.953 336.16,368.953 C336.193,368.953 336.248,368.956 336.326,368.963 C336.404,368.969 336.538,368.982 336.727,369.002 L336.727,370.857 C336.622,370.838 336.526,370.825 336.439,370.818 C336.351,370.812 336.255,370.809 336.15,370.809 C335.265,370.809 334.585,371.093 334.109,371.663 C333.634,372.233 333.397,372.889 333.397,373.631 L333.397,379.646 L331.639,379.646 L331.639,369.188 M345.619,377.352 C346.094,378.107 346.856,378.484 347.904,378.484 C348.718,378.484 349.387,378.134 349.911,377.435 C350.435,376.735 350.697,375.73 350.697,374.422 C350.697,373.1 350.427,372.122 349.887,371.487 C349.346,370.853 348.679,370.535 347.885,370.535 C346.999,370.535 346.282,370.874 345.731,371.551 C345.181,372.228 344.906,373.224 344.906,374.539 C344.906,375.659 345.144,376.596 345.619,377.352 M349.564,369.51 C349.877,369.705 350.232,370.047 350.629,370.535 L350.629,365.252 L352.318,365.252 L352.318,379.646 L350.736,379.646 L350.736,378.191 C350.326,378.836 349.841,379.301 349.281,379.588 C348.721,379.874 348.08,380.018 347.357,380.018 C346.192,380.018 345.183,379.528 344.33,378.548 C343.477,377.568 343.051,376.264 343.051,374.637 C343.051,373.113 343.44,371.793 344.218,370.677 C344.996,369.56 346.107,369.002 347.553,369.002 C348.354,369.002 349.024,369.171 349.564,369.51 M361.416,369.476 C362.113,369.824 362.643,370.275 363.008,370.828 C363.359,371.355 363.594,371.971 363.711,372.674 C363.815,373.156 363.867,373.924 363.867,374.979 L356.201,374.979 C356.234,376.04 356.484,376.891 356.953,377.532 C357.422,378.173 358.148,378.494 359.131,378.494 C360.049,378.494 360.781,378.191 361.328,377.586 C361.641,377.234 361.862,376.827 361.992,376.365 L363.721,376.365 C363.675,376.749 363.524,377.177 363.267,377.649 C363.009,378.121 362.721,378.507 362.402,378.807 C361.869,379.327 361.208,379.679 360.42,379.861 C359.997,379.965 359.518,380.018 358.984,380.018 C357.682,380.018 356.579,379.544 355.674,378.597 C354.769,377.649 354.316,376.323 354.316,374.617 C354.316,372.938 354.772,371.574 355.684,370.525 C356.595,369.477 357.786,368.953 359.258,368.953 C360,368.953 360.719,369.127 361.416,369.476 M362.061,373.582 C361.989,372.82 361.823,372.212 361.563,371.756 C361.081,370.91 360.277,370.486 359.15,370.486 C358.343,370.486 357.666,370.778 357.119,371.36 C356.572,371.943 356.283,372.684 356.25,373.582 L362.061,373.582 M372.472,377.435 C373.015,376.748 373.287,375.721 373.287,374.354 C373.287,373.52 373.167,372.804 372.926,372.205 C372.47,371.053 371.637,370.477 370.426,370.477 C369.208,370.477 368.375,371.085 367.926,372.303 C367.685,372.954 367.564,373.781 367.564,374.783 C367.564,375.59 367.685,376.277 367.926,376.844 C368.382,377.924 369.215,378.465 370.426,378.465 C371.246,378.465 371.928,378.121 372.472,377.435 M365.875,369.236 L367.584,369.236 L367.584,370.623 C367.936,370.148 368.32,369.78 368.736,369.52 C369.329,369.129 370.025,368.934 370.826,368.934 C372.011,368.934 373.017,369.388 373.844,370.296 C374.671,371.204 375.084,372.501 375.084,374.188 C375.084,376.466 374.488,378.094 373.297,379.07 C372.542,379.689 371.663,379.998 370.66,379.998 C369.872,379.998 369.212,379.826 368.678,379.48 C368.365,379.285 368.017,378.95 367.633,378.475 L367.633,383.816 L365.875,383.816 L365.875,369.236 M377.473,366.268 L379.25,366.268 L379.25,369.188 L380.92,369.188 L380.92,370.623 L379.25,370.623 L379.25,377.449 C379.25,377.814 379.374,378.058 379.621,378.182 C379.758,378.253 379.986,378.289 380.305,378.289 C380.389,378.289 380.48,378.287 380.578,378.284 C380.676,378.281 380.79,378.273 380.92,378.26 L380.92,379.646 C380.718,379.705 380.508,379.747 380.29,379.773 C380.072,379.799 379.836,379.812 379.582,379.812 C378.762,379.812 378.205,379.603 377.912,379.183 C377.619,378.763 377.473,378.217 377.473,377.547 L377.473,370.623 L376.057,370.623 L376.057,369.188 L377.473,369.188 L377.473,366.268 M382.668,365.252 L384.426,365.252 L384.426,370.604 C384.842,370.076 385.217,369.705 385.549,369.49 C386.115,369.119 386.822,368.934 387.668,368.934 C389.185,368.934 390.214,369.464 390.754,370.525 C391.047,371.105 391.193,371.909 391.193,372.938 L391.193,379.646 L389.387,379.646 L389.387,373.055 C389.387,372.286 389.289,371.723 389.094,371.365 C388.775,370.792 388.176,370.506 387.297,370.506 C386.568,370.506 385.907,370.757 385.314,371.258 C384.722,371.759 384.426,372.706 384.426,374.1 L384.426,379.646 L382.668,379.646 L382.668,365.252 M409.119,371.619 L409.119,373.26 L398.934,373.26 L398.934,371.619 L409.119,371.619 M409.119,375.809 L409.119,377.479 L398.934,377.479 L398.934,375.809 L409.119,375.809 M416.543,369.188 L418.213,369.188 L418.213,370.672 C418.708,370.06 419.232,369.62 419.785,369.354 C420.339,369.087 420.954,368.953 421.631,368.953 C423.115,368.953 424.118,369.471 424.639,370.506 C424.925,371.072 425.068,371.883 425.068,372.938 L425.068,379.646 L423.281,379.646 L423.281,373.055 C423.281,372.417 423.187,371.902 422.998,371.512 C422.686,370.861 422.119,370.535 421.299,370.535 C420.882,370.535 420.54,370.577 420.273,370.662 C419.792,370.805 419.369,371.092 419.004,371.521 C418.711,371.867 418.521,372.223 418.433,372.591 C418.345,372.959 418.301,373.484 418.301,374.168 L418.301,379.646 L416.543,379.646 L416.543,369.188 M434.166,369.476 C434.863,369.824 435.393,370.275 435.758,370.828 C436.109,371.355 436.344,371.971 436.461,372.674 C436.565,373.156 436.617,373.924 436.617,374.979 L428.951,374.979 C428.984,376.04 429.234,376.891 429.703,377.532 C430.172,378.173 430.898,378.494 431.881,378.494 C432.799,378.494 433.531,378.191 434.078,377.586 C434.391,377.234 434.612,376.827 434.742,376.365 L436.471,376.365 C436.425,376.749 436.274,377.177 436.017,377.649 C435.759,378.121 435.471,378.507 435.152,378.807 C434.619,379.327 433.958,379.679 433.17,379.861 C432.747,379.965 432.268,380.018 431.734,380.018 C430.432,380.018 429.329,379.544 428.424,378.597 C427.519,377.649 427.066,376.323 427.066,374.617 C427.066,372.938 427.522,371.574 428.434,370.525 C429.345,369.477 430.536,368.953 432.008,368.953 C432.75,368.953 433.469,369.127 434.166,369.476 M434.811,373.582 C434.739,372.82 434.573,372.212 434.313,371.756 C433.831,370.91 433.027,370.486 431.9,370.486 C431.093,370.486 430.416,370.778 429.869,371.36 C429.322,371.943 429.033,372.684 429,373.582 L434.811,373.582 M444.602,369.607 C444.934,369.835 445.272,370.167 445.617,370.604 L445.617,369.285 L447.238,369.285 L447.238,378.797 C447.238,380.125 447.043,381.173 446.652,381.941 C445.923,383.361 444.546,384.07 442.522,384.07 C441.395,384.07 440.448,383.818 439.68,383.313 C438.911,382.809 438.482,382.02 438.391,380.945 L440.178,380.945 C440.262,381.414 440.432,381.775 440.686,382.029 C441.083,382.42 441.708,382.615 442.561,382.615 C443.908,382.615 444.79,382.14 445.207,381.189 C445.454,380.63 445.568,379.63 445.549,378.191 C445.197,378.725 444.774,379.122 444.279,379.383 C443.785,379.643 443.13,379.773 442.316,379.773 C441.184,379.773 440.192,379.371 439.343,378.567 C438.493,377.763 438.068,376.434 438.068,374.578 C438.068,372.827 438.496,371.46 439.353,370.477 C440.209,369.493 441.242,369.002 442.453,369.002 C443.273,369.002 443.99,369.204 444.602,369.607 M444.816,371.492 C444.283,370.867 443.602,370.555 442.775,370.555 C441.538,370.555 440.692,371.134 440.236,372.293 C439.995,372.911 439.875,373.722 439.875,374.725 C439.875,375.903 440.114,376.8 440.593,377.415 C441.071,378.03 441.714,378.338 442.522,378.338 C443.785,378.338 444.673,377.768 445.188,376.629 C445.474,375.984 445.617,375.232 445.617,374.373 C445.617,373.077 445.35,372.117 444.816,371.492 M451.775,378.064 C452.147,378.357 452.586,378.504 453.094,378.504 C453.712,378.504 454.311,378.361 454.891,378.074 C455.867,377.599 456.355,376.821 456.355,375.74 L456.355,374.324 C456.141,374.461 455.864,374.575 455.525,374.666 C455.187,374.757 454.855,374.822 454.529,374.861 L453.465,374.998 C452.827,375.083 452.348,375.216 452.029,375.398 C451.489,375.704 451.219,376.193 451.219,376.863 C451.219,377.371 451.404,377.771 451.775,378.064 M455.477,373.309 C455.88,373.257 456.15,373.087 456.287,372.801 C456.365,372.645 456.404,372.42 456.404,372.127 C456.404,371.528 456.191,371.093 455.765,370.823 C455.338,370.553 454.728,370.418 453.934,370.418 C453.016,370.418 452.365,370.665 451.98,371.16 C451.766,371.434 451.626,371.84 451.561,372.381 L449.92,372.381 C449.953,371.092 450.371,370.195 451.175,369.69 C451.979,369.186 452.911,368.934 453.973,368.934 C455.203,368.934 456.203,369.168 456.971,369.637 C457.732,370.105 458.113,370.835 458.113,371.824 L458.113,377.85 C458.113,378.032 458.151,378.178 458.226,378.289 C458.3,378.4 458.458,378.455 458.699,378.455 C458.777,378.455 458.865,378.45 458.963,378.44 C459.061,378.431 459.165,378.416 459.275,378.396 L459.275,379.695 C459.002,379.773 458.794,379.822 458.65,379.842 C458.507,379.861 458.312,379.871 458.064,379.871 C457.459,379.871 457.02,379.656 456.746,379.227 C456.603,378.999 456.502,378.676 456.443,378.26 C456.085,378.729 455.571,379.135 454.9,379.48 C454.23,379.826 453.491,379.998 452.684,379.998 C451.714,379.998 450.921,379.703 450.306,379.114 C449.69,378.525 449.383,377.788 449.383,376.902 C449.383,375.932 449.686,375.18 450.291,374.646 C450.897,374.113 451.691,373.784 452.674,373.66 L455.477,373.309 M461.332,366.268 L463.109,366.268 L463.109,369.188 L464.779,369.188 L464.779,370.623 L463.109,370.623 L463.109,377.449 C463.109,377.814 463.233,378.058 463.48,378.182 C463.617,378.253 463.845,378.289 464.164,378.289 C464.249,378.289 464.34,378.287 464.438,378.284 C464.535,378.281 464.649,378.273 464.779,378.26 L464.779,379.646 C464.578,379.705 464.368,379.747 464.149,379.773 C463.931,379.799 463.695,379.812 463.441,379.812 C462.621,379.812 462.064,379.603 461.772,379.183 C461.479,378.763 461.332,378.217 461.332,377.547 L461.332,370.623 L459.916,370.623 L459.916,369.188 L461.332,369.188 L461.332,366.268 M466.527,369.236 L468.314,369.236 L468.314,379.646 L466.527,379.646 L466.527,369.236 M466.527,365.301 L468.314,365.301 L468.314,367.293 L466.527,367.293 L466.527,365.301 M471.824,369.188 L474.617,377.703 L477.537,369.188 L479.461,369.188 L475.516,379.646 L473.641,379.646 L469.783,369.188 L471.824,369.188 M487.479,369.476 C488.175,369.824 488.706,370.275 489.07,370.828 C489.422,371.355 489.656,371.971 489.773,372.674 C489.878,373.156 489.93,373.924 489.93,374.979 L482.264,374.979 C482.296,376.04 482.547,376.891 483.016,377.532 C483.484,378.173 484.21,378.494 485.193,378.494 C486.111,378.494 486.844,378.191 487.391,377.586 C487.703,377.234 487.924,376.827 488.055,376.365 L489.783,376.365 C489.738,376.749 489.586,377.177 489.329,377.649 C489.072,378.121 488.784,378.507 488.465,378.807 C487.931,379.327 487.27,379.679 486.482,379.861 C486.059,379.965 485.581,380.018 485.047,380.018 C483.745,380.018 482.641,379.544 481.736,378.597 C480.831,377.649 480.379,376.323 480.379,374.617 C480.379,372.938 480.835,371.574 481.746,370.525 C482.658,369.477 483.849,368.953 485.32,368.953 C486.063,368.953 486.782,369.127 487.479,369.476 M488.123,373.582 C488.051,372.82 487.885,372.212 487.625,371.756 C487.143,370.91 486.339,370.486 485.213,370.486 C484.406,370.486 483.729,370.778 483.182,371.36 C482.635,371.943 482.345,372.684 482.313,373.582 L488.123,373.582 M498.041,365.301 L504.496,365.301 C505.772,365.301 506.801,365.66 507.582,366.38 C508.363,367.099 508.754,368.11 508.754,369.412 C508.754,370.532 508.406,371.507 507.709,372.337 C507.012,373.167 505.941,373.582 504.496,373.582 L499.984,373.582 L499.984,379.646 L498.041,379.646 L498.041,365.301 M505.619,367.273 C505.189,367.072 504.6,366.971 503.852,366.971 L499.984,366.971 L499.984,371.941 L503.852,371.941 C504.724,371.941 505.432,371.756 505.976,371.385 C506.519,371.014 506.791,370.359 506.791,369.422 C506.791,368.367 506.4,367.651 505.619,367.273 M516.789,369.607 C517.121,369.835 517.46,370.167 517.805,370.604 L517.805,369.285 L519.426,369.285 L519.426,378.797 C519.426,380.125 519.23,381.173 518.84,381.941 C518.111,383.361 516.734,384.07 514.709,384.07 C513.583,384.07 512.635,383.818 511.867,383.313 C511.099,382.809 510.669,382.02 510.578,380.945 L512.365,380.945 C512.45,381.414 512.619,381.775 512.873,382.029 C513.27,382.42 513.895,382.615 514.748,382.615 C516.096,382.615 516.978,382.14 517.395,381.189 C517.642,380.63 517.756,379.63 517.736,378.191 C517.385,378.725 516.962,379.122 516.467,379.383 C515.972,379.643 515.318,379.773 514.504,379.773 C513.371,379.773 512.38,379.371 511.53,378.567 C510.681,377.763 510.256,376.434 510.256,374.578 C510.256,372.827 510.684,371.46 511.54,370.477 C512.396,369.493 513.43,369.002 514.641,369.002 C515.461,369.002 516.177,369.204 516.789,369.607 M517.004,371.492 C516.47,370.867 515.79,370.555 514.963,370.555 C513.726,370.555 512.88,371.134 512.424,372.293 C512.183,372.911 512.062,373.722 512.062,374.725 C512.062,375.903 512.302,376.8 512.78,377.415 C513.259,378.03 513.902,378.338 514.709,378.338 C515.972,378.338 516.861,377.768 517.375,376.629 C517.661,375.984 517.805,375.232 517.805,374.373 C517.805,373.077 517.538,372.117 517.004,371.492 M527.654,369.188 L529.324,369.188 L529.324,370.994 C529.461,370.643 529.796,370.215 530.33,369.71 C530.864,369.205 531.479,368.953 532.176,368.953 C532.208,368.953 532.264,368.956 532.342,368.963 C532.42,368.969 532.553,368.982 532.742,369.002 L532.742,370.857 C532.638,370.838 532.542,370.825 532.454,370.818 C532.366,370.812 532.27,370.809 532.166,370.809 C531.281,370.809 530.6,371.093 530.125,371.663 C529.65,372.233 529.412,372.889 529.412,373.631 L529.412,379.646 L527.654,379.646 L527.654,369.188 M540.775,369.476 C541.472,369.824 542.003,370.275 542.367,370.828 C542.719,371.355 542.953,371.971 543.07,372.674 C543.174,373.156 543.227,373.924 543.227,374.979 L535.561,374.979 C535.593,376.04 535.844,376.891 536.312,377.532 C536.781,378.173 537.507,378.494 538.49,378.494 C539.408,378.494 540.141,378.191 540.688,377.586 C541,377.234 541.221,376.827 541.352,376.365 L543.08,376.365 C543.035,376.749 542.883,377.177 542.626,377.649 C542.369,378.121 542.081,378.507 541.762,378.807 C541.228,379.327 540.567,379.679 539.779,379.861 C539.356,379.965 538.878,380.018 538.344,380.018 C537.042,380.018 535.938,379.544 535.033,378.597 C534.128,377.649 533.676,376.323 533.676,374.617 C533.676,372.938 534.132,371.574 535.043,370.525 C535.954,369.477 537.146,368.953 538.617,368.953 C539.359,368.953 540.079,369.127 540.775,369.476 M541.42,373.582 C541.348,372.82 541.182,372.212 540.922,371.756 C540.44,370.91 539.636,370.486 538.51,370.486 C537.703,370.486 537.025,370.778 536.479,371.36 C535.932,371.943 535.642,372.684 535.609,373.582 L541.42,373.582 M546.416,376.365 C546.468,376.951 546.615,377.4 546.855,377.713 C547.298,378.279 548.066,378.562 549.16,378.562 C549.811,378.562 550.384,378.421 550.879,378.138 C551.374,377.854 551.621,377.417 551.621,376.824 C551.621,376.375 551.423,376.033 551.025,375.799 C550.771,375.656 550.27,375.49 549.521,375.301 L548.125,374.949 C547.233,374.728 546.576,374.48 546.152,374.207 C545.397,373.732 545.02,373.074 545.02,372.234 C545.02,371.245 545.376,370.444 546.089,369.832 C546.802,369.22 547.76,368.914 548.965,368.914 C550.54,368.914 551.676,369.376 552.373,370.301 C552.809,370.887 553.021,371.518 553.008,372.195 L551.348,372.195 C551.315,371.798 551.175,371.437 550.928,371.111 C550.524,370.649 549.824,370.418 548.828,370.418 C548.164,370.418 547.661,370.545 547.319,370.799 C546.978,371.053 546.807,371.388 546.807,371.805 C546.807,372.26 547.031,372.625 547.48,372.898 C547.741,373.061 548.125,373.204 548.633,373.328 L549.795,373.611 C551.058,373.917 551.904,374.214 552.334,374.5 C553.018,374.949 553.359,375.656 553.359,376.619 C553.359,377.55 553.006,378.354 552.3,379.031 C551.593,379.708 550.518,380.047 549.072,380.047 C547.516,380.047 546.414,379.694 545.767,378.987 C545.119,378.281 544.772,377.407 544.727,376.365 L546.416,376.365 M555.371,369.236 L557.158,369.236 L557.158,379.646 L555.371,379.646 L555.371,369.236 M555.371,365.301 L557.158,365.301 L557.158,367.293 L555.371,367.293 L555.371,365.301 M561.635,377.352 C562.11,378.107 562.872,378.484 563.92,378.484 C564.734,378.484 565.403,378.134 565.927,377.435 C566.451,376.735 566.713,375.73 566.713,374.422 C566.713,373.1 566.443,372.122 565.902,371.487 C565.362,370.853 564.695,370.535 563.9,370.535 C563.015,370.535 562.297,370.874 561.747,371.551 C561.197,372.228 560.922,373.224 560.922,374.539 C560.922,375.659 561.16,376.596 561.635,377.352 M565.58,369.51 C565.893,369.705 566.247,370.047 566.645,370.535 L566.645,365.252 L568.334,365.252 L568.334,379.646 L566.752,379.646 L566.752,378.191 C566.342,378.836 565.857,379.301 565.297,379.588 C564.737,379.874 564.096,380.018 563.373,380.018 C562.208,380.018 561.199,379.528 560.346,378.548 C559.493,377.568 559.066,376.264 559.066,374.637 C559.066,373.113 559.455,371.793 560.233,370.677 C561.011,369.56 562.123,369.002 563.568,369.002 C564.369,369.002 565.04,369.171 565.58,369.51 M572.676,369.188 L572.676,376.131 C572.676,376.665 572.76,377.101 572.93,377.439 C573.242,378.064 573.825,378.377 574.678,378.377 C575.902,378.377 576.735,377.83 577.178,376.736 C577.419,376.15 577.539,375.346 577.539,374.324 L577.539,369.188 L579.297,369.188 L579.297,379.646 L577.637,379.646 L577.656,378.104 C577.428,378.501 577.145,378.836 576.807,379.109 C576.136,379.656 575.322,379.93 574.365,379.93 C572.874,379.93 571.859,379.432 571.318,378.436 C571.025,377.902 570.879,377.189 570.879,376.297 L570.879,369.188 L572.676,369.188 M583.932,378.064 C584.303,378.357 584.742,378.504 585.25,378.504 C585.869,378.504 586.467,378.361 587.047,378.074 C588.023,377.599 588.512,376.821 588.512,375.74 L588.512,374.324 C588.297,374.461 588.02,374.575 587.682,374.666 C587.343,374.757 587.011,374.822 586.686,374.861 L585.621,374.998 C584.983,375.083 584.505,375.216 584.186,375.398 C583.645,375.704 583.375,376.193 583.375,376.863 C583.375,377.371 583.561,377.771 583.932,378.064 M587.633,373.309 C588.036,373.257 588.307,373.087 588.443,372.801 C588.521,372.645 588.561,372.42 588.561,372.127 C588.561,371.528 588.347,371.093 587.921,370.823 C587.495,370.553 586.884,370.418 586.09,370.418 C585.172,370.418 584.521,370.665 584.137,371.16 C583.922,371.434 583.782,371.84 583.717,372.381 L582.076,372.381 C582.109,371.092 582.527,370.195 583.331,369.69 C584.135,369.186 585.068,368.934 586.129,368.934 C587.359,368.934 588.359,369.168 589.127,369.637 C589.889,370.105 590.27,370.835 590.27,371.824 L590.27,377.85 C590.27,378.032 590.307,378.178 590.382,378.289 C590.457,378.4 590.615,378.455 590.855,378.455 C590.934,378.455 591.021,378.45 591.119,378.44 C591.217,378.431 591.321,378.416 591.432,378.396 L591.432,379.695 C591.158,379.773 590.95,379.822 590.807,379.842 C590.663,379.861 590.468,379.871 590.221,379.871 C589.615,379.871 589.176,379.656 588.902,379.227 C588.759,378.999 588.658,378.676 588.6,378.26 C588.242,378.729 587.727,379.135 587.057,379.48 C586.386,379.826 585.647,379.998 584.84,379.998 C583.87,379.998 583.077,379.703 582.462,379.114 C581.847,378.525 581.539,377.788 581.539,376.902 C581.539,375.932 581.842,375.18 582.447,374.646 C583.053,374.113 583.847,373.784 584.83,373.66 L587.633,373.309 M593.186,365.301 L594.943,365.301 L594.943,379.646 L593.186,379.646 L593.186,365.301 Z" style="stroke:none;fill-rule:nonzero;fill:#000000;fill-opacity:1;"/>
        </g>
        <g id="Shape34">
            <desc shapeID="34" type="2" basicInfo-basicType="0" basicInfo-roundedRectRadius="12" basicInfo-polygonSides="6" basicInfo-starPoints="5" bounding="rect(-112.72,-24,225.44,48)" text="Greater depth = later OT" font-familyName="Helvetica" font-pixelSize="20" font-bold="0" font-underline="0" font-alignment="1" strokeStyle="0" markerStart="0" markerEnd="0" shadowEnabled="0" shadowOffsetX="0" shadowOffsetY="2" shadowBlur="4" shadowOpacity="160" blurEnabled="0" blurRadius="4" transform="matrix(1,0,0,1,225.733,163)" pers-center="0,0" pers-size="0,0" pers-start="0,0" pers-end="0,0" locked="0" mesh="" flag=""/>
            <path id="shapePath34" d="M127.86,154.455 C129.286,155.204 130.159,156.516 130.478,158.391 L128.554,158.391 C128.319,157.342 127.834,156.579 127.099,156.101 C126.363,155.622 125.435,155.383 124.315,155.383 C122.987,155.383 121.869,155.881 120.961,156.877 C120.053,157.873 119.599,159.357 119.599,161.33 C119.599,163.036 119.973,164.424 120.722,165.495 C121.47,166.566 122.691,167.102 124.384,167.102 C125.679,167.102 126.752,166.726 127.602,165.974 C128.451,165.222 128.886,164.006 128.905,162.326 L124.413,162.326 L124.413,160.715 L130.712,160.715 L130.712,168.391 L129.462,168.391 L128.993,166.545 C128.336,167.268 127.753,167.769 127.245,168.049 C126.392,168.531 125.308,168.771 123.993,168.771 C122.294,168.771 120.832,168.221 119.608,167.121 C118.274,165.741 117.606,163.846 117.606,161.438 C117.606,159.035 118.258,157.124 119.56,155.705 C120.797,154.351 122.398,153.674 124.364,153.674 C125.712,153.674 126.877,153.934 127.86,154.455 M133.524,157.932 L135.194,157.932 L135.194,159.738 C135.331,159.387 135.666,158.959 136.2,158.454 C136.734,157.95 137.349,157.697 138.046,157.697 C138.078,157.697 138.134,157.701 138.212,157.707 C138.29,157.714 138.424,157.727 138.612,157.746 L138.612,159.602 C138.508,159.582 138.412,159.569 138.324,159.562 C138.236,159.556 138.14,159.553 138.036,159.553 C137.151,159.553 136.47,159.838 135.995,160.407 C135.52,160.977 135.282,161.633 135.282,162.375 L135.282,168.391 L133.524,168.391 L133.524,157.932 M146.646,158.22 C147.342,158.568 147.873,159.019 148.237,159.572 C148.589,160.1 148.823,160.715 148.94,161.418 C149.045,161.9 149.097,162.668 149.097,163.723 L141.431,163.723 C141.463,164.784 141.714,165.635 142.183,166.276 C142.651,166.918 143.377,167.238 144.36,167.238 C145.278,167.238 146.011,166.936 146.558,166.33 C146.87,165.979 147.092,165.572 147.222,165.109 L148.95,165.109 C148.905,165.493 148.753,165.922 148.496,166.394 C148.239,166.866 147.951,167.251 147.632,167.551 C147.098,168.072 146.437,168.423 145.649,168.605 C145.226,168.71 144.748,168.762 144.214,168.762 C142.912,168.762 141.808,168.288 140.903,167.341 C139.998,166.394 139.546,165.067 139.546,163.361 C139.546,161.682 140.002,160.318 140.913,159.27 C141.825,158.221 143.016,157.697 144.487,157.697 C145.23,157.697 145.949,157.871 146.646,158.22 M147.29,162.326 C147.218,161.564 147.052,160.956 146.792,160.5 C146.31,159.654 145.506,159.23 144.38,159.23 C143.573,159.23 142.896,159.522 142.349,160.104 C141.802,160.687 141.512,161.428 141.48,162.326 L147.29,162.326 M153.146,166.809 C153.517,167.102 153.956,167.248 154.464,167.248 C155.082,167.248 155.681,167.105 156.261,166.818 C157.237,166.343 157.726,165.565 157.726,164.484 L157.726,163.068 C157.511,163.205 157.234,163.319 156.896,163.41 C156.557,163.501 156.225,163.566 155.899,163.605 L154.835,163.742 C154.197,163.827 153.718,163.96 153.399,164.143 C152.859,164.449 152.589,164.937 152.589,165.607 C152.589,166.115 152.774,166.516 153.146,166.809 M156.847,162.053 C157.25,162.001 157.521,161.831 157.657,161.545 C157.735,161.389 157.774,161.164 157.774,160.871 C157.774,160.272 157.561,159.838 157.135,159.567 C156.708,159.297 156.098,159.162 155.304,159.162 C154.386,159.162 153.735,159.41 153.351,159.904 C153.136,160.178 152.996,160.585 152.931,161.125 L151.29,161.125 C151.323,159.836 151.741,158.939 152.545,158.435 C153.349,157.93 154.282,157.678 155.343,157.678 C156.573,157.678 157.573,157.912 158.341,158.381 C159.103,158.85 159.483,159.579 159.483,160.568 L159.483,166.594 C159.483,166.776 159.521,166.923 159.596,167.033 C159.671,167.144 159.828,167.199 160.069,167.199 C160.148,167.199 160.235,167.194 160.333,167.185 C160.431,167.175 160.535,167.16 160.646,167.141 L160.646,168.439 C160.372,168.518 160.164,168.566 160.021,168.586 C159.877,168.605 159.682,168.615 159.435,168.615 C158.829,168.615 158.39,168.4 158.116,167.971 C157.973,167.743 157.872,167.421 157.814,167.004 C157.455,167.473 156.941,167.88 156.271,168.225 C155.6,168.57 154.861,168.742 154.054,168.742 C153.084,168.742 152.291,168.448 151.676,167.858 C151.061,167.269 150.753,166.532 150.753,165.646 C150.753,164.676 151.056,163.924 151.661,163.391 C152.267,162.857 153.061,162.528 154.044,162.404 L156.847,162.053 M162.702,155.012 L164.48,155.012 L164.48,157.932 L166.149,157.932 L166.149,159.367 L164.48,159.367 L164.48,166.193 C164.48,166.558 164.603,166.802 164.851,166.926 C164.987,166.997 165.215,167.033 165.534,167.033 C165.619,167.033 165.71,167.032 165.808,167.028 C165.905,167.025 166.019,167.017 166.149,167.004 L166.149,168.391 C165.948,168.449 165.738,168.492 165.52,168.518 C165.301,168.544 165.065,168.557 164.812,168.557 C163.991,168.557 163.435,168.347 163.142,167.927 C162.849,167.507 162.702,166.962 162.702,166.291 L162.702,159.367 L161.286,159.367 L161.286,157.932 L162.702,157.932 L162.702,155.012 M174.411,158.22 C175.108,158.568 175.638,159.019 176.003,159.572 C176.355,160.1 176.589,160.715 176.706,161.418 C176.81,161.9 176.862,162.668 176.862,163.723 L169.196,163.723 C169.229,164.784 169.48,165.635 169.948,166.276 C170.417,166.918 171.143,167.238 172.126,167.238 C173.044,167.238 173.776,166.936 174.323,166.33 C174.636,165.979 174.857,165.572 174.987,165.109 L176.716,165.109 C176.67,165.493 176.519,165.922 176.262,166.394 C176.005,166.866 175.717,167.251 175.398,167.551 C174.864,168.072 174.203,168.423 173.415,168.605 C172.992,168.71 172.513,168.762 171.98,168.762 C170.677,168.762 169.574,168.288 168.669,167.341 C167.764,166.394 167.312,165.067 167.312,163.361 C167.312,161.682 167.767,160.318 168.679,159.27 C169.59,158.221 170.782,157.697 172.253,157.697 C172.995,157.697 173.715,157.871 174.411,158.22 M175.056,162.326 C174.984,161.564 174.818,160.956 174.558,160.5 C174.076,159.654 173.272,159.23 172.146,159.23 C171.338,159.23 170.661,159.522 170.114,160.104 C169.567,160.687 169.278,161.428 169.245,162.326 L175.056,162.326 M179.056,157.932 L180.726,157.932 L180.726,159.738 C180.862,159.387 181.198,158.959 181.731,158.454 C182.265,157.95 182.881,157.697 183.577,157.697 C183.61,157.697 183.665,157.701 183.743,157.707 C183.821,157.714 183.955,157.727 184.144,157.746 L184.144,159.602 C184.039,159.582 183.943,159.569 183.856,159.562 C183.768,159.556 183.672,159.553 183.567,159.553 C182.682,159.553 182.002,159.838 181.526,160.407 C181.051,160.977 180.814,161.633 180.814,162.375 L180.814,168.391 L179.056,168.391 L179.056,157.932 M193.036,166.096 C193.511,166.851 194.273,167.229 195.321,167.229 C196.135,167.229 196.804,166.879 197.328,166.179 C197.852,165.479 198.114,164.475 198.114,163.166 C198.114,161.844 197.844,160.866 197.304,160.231 C196.763,159.597 196.096,159.279 195.302,159.279 C194.416,159.279 193.699,159.618 193.148,160.295 C192.598,160.972 192.323,161.968 192.323,163.283 C192.323,164.403 192.561,165.34 193.036,166.096 M196.981,158.254 C197.294,158.449 197.649,158.791 198.046,159.279 L198.046,153.996 L199.735,153.996 L199.735,168.391 L198.153,168.391 L198.153,166.936 C197.743,167.58 197.258,168.046 196.698,168.332 C196.138,168.618 195.497,168.762 194.774,168.762 C193.609,168.762 192.6,168.272 191.747,167.292 C190.894,166.312 190.468,165.008 190.468,163.381 C190.468,161.857 190.857,160.537 191.635,159.421 C192.413,158.304 193.524,157.746 194.97,157.746 C195.771,157.746 196.441,157.915 196.981,158.254 M208.833,158.22 C209.53,158.568 210.06,159.019 210.425,159.572 C210.776,160.1 211.011,160.715 211.128,161.418 C211.232,161.9 211.284,162.668 211.284,163.723 L203.618,163.723 C203.651,164.784 203.901,165.635 204.37,166.276 C204.839,166.918 205.565,167.238 206.548,167.238 C207.466,167.238 208.198,166.936 208.745,166.33 C209.058,165.979 209.279,165.572 209.409,165.109 L211.138,165.109 C211.092,165.493 210.941,165.922 210.684,166.394 C210.426,166.866 210.138,167.251 209.819,167.551 C209.286,168.072 208.625,168.423 207.837,168.605 C207.414,168.71 206.935,168.762 206.401,168.762 C205.099,168.762 203.996,168.288 203.091,167.341 C202.186,166.394 201.733,165.067 201.733,163.361 C201.733,161.682 202.189,160.318 203.101,159.27 C204.012,158.221 205.203,157.697 206.675,157.697 C207.417,157.697 208.136,157.871 208.833,158.22 M209.478,162.326 C209.406,161.564 209.24,160.956 208.98,160.5 C208.498,159.654 207.694,159.23 206.567,159.23 C205.76,159.23 205.083,159.522 204.536,160.104 C203.989,160.687 203.7,161.428 203.667,162.326 L209.478,162.326 M219.889,166.179 C220.432,165.492 220.704,164.465 220.704,163.098 C220.704,162.264 220.584,161.548 220.343,160.949 C219.887,159.797 219.054,159.221 217.843,159.221 C216.625,159.221 215.792,159.829 215.343,161.047 C215.102,161.698 214.981,162.525 214.981,163.527 C214.981,164.335 215.102,165.021 215.343,165.588 C215.799,166.669 216.632,167.209 217.843,167.209 C218.663,167.209 219.345,166.866 219.889,166.179 M213.292,157.98 L215.001,157.98 L215.001,159.367 C215.353,158.892 215.737,158.524 216.153,158.264 C216.746,157.873 217.442,157.678 218.243,157.678 C219.428,157.678 220.434,158.132 221.261,159.04 C222.088,159.948 222.501,161.245 222.501,162.932 C222.501,165.21 221.905,166.838 220.714,167.814 C219.959,168.433 219.08,168.742 218.077,168.742 C217.289,168.742 216.629,168.57 216.095,168.225 C215.782,168.029 215.434,167.694 215.05,167.219 L215.05,172.561 L213.292,172.561 L213.292,157.98 M224.89,155.012 L226.667,155.012 L226.667,157.932 L228.337,157.932 L228.337,159.367 L226.667,159.367 L226.667,166.193 C226.667,166.558 226.791,166.802 227.038,166.926 C227.175,166.997 227.403,167.033 227.722,167.033 C227.806,167.033 227.898,167.032 227.995,167.028 C228.093,167.025 228.207,167.017 228.337,167.004 L228.337,168.391 C228.135,168.449 227.925,168.492 227.707,168.518 C227.489,168.544 227.253,168.557 226.999,168.557 C226.179,168.557 225.622,168.347 225.329,167.927 C225.036,167.507 224.89,166.962 224.89,166.291 L224.89,159.367 L223.474,159.367 L223.474,157.932 L224.89,157.932 L224.89,155.012 M230.085,153.996 L231.843,153.996 L231.843,159.348 C232.259,158.82 232.634,158.449 232.966,158.234 C233.532,157.863 234.239,157.678 235.085,157.678 C236.602,157.678 237.631,158.208 238.171,159.27 C238.464,159.849 238.61,160.653 238.61,161.682 L238.61,168.391 L236.804,168.391 L236.804,161.799 C236.804,161.031 236.706,160.467 236.511,160.109 C236.192,159.536 235.593,159.25 234.714,159.25 C233.985,159.25 233.324,159.501 232.731,160.002 C232.139,160.503 231.843,161.451 231.843,162.844 L231.843,168.391 L230.085,168.391 L230.085,153.996 M256.536,160.363 L256.536,162.004 L246.351,162.004 L246.351,160.363 L256.536,160.363 M256.536,164.553 L256.536,166.223 L246.351,166.223 L246.351,164.553 L256.536,164.553 M264.009,154.045 L265.767,154.045 L265.767,168.391 L264.009,168.391 L264.009,154.045 M270.302,166.809 C270.673,167.102 271.112,167.248 271.62,167.248 C272.239,167.248 272.838,167.105 273.417,166.818 C274.394,166.343 274.882,165.565 274.882,164.484 L274.882,163.068 C274.667,163.205 274.39,163.319 274.052,163.41 C273.713,163.501 273.381,163.566 273.056,163.605 L271.991,163.742 C271.353,163.827 270.875,163.96 270.556,164.143 C270.015,164.449 269.745,164.937 269.745,165.607 C269.745,166.115 269.931,166.516 270.302,166.809 M274.003,162.053 C274.407,162.001 274.677,161.831 274.814,161.545 C274.892,161.389 274.931,161.164 274.931,160.871 C274.931,160.272 274.717,159.838 274.291,159.567 C273.865,159.297 273.254,159.162 272.46,159.162 C271.542,159.162 270.891,159.41 270.507,159.904 C270.292,160.178 270.152,160.585 270.087,161.125 L268.446,161.125 C268.479,159.836 268.897,158.939 269.701,158.435 C270.505,157.93 271.438,157.678 272.499,157.678 C273.73,157.678 274.729,157.912 275.497,158.381 C276.259,158.85 276.64,159.579 276.64,160.568 L276.64,166.594 C276.64,166.776 276.677,166.923 276.752,167.033 C276.827,167.144 276.985,167.199 277.226,167.199 C277.304,167.199 277.392,167.194 277.489,167.185 C277.587,167.175 277.691,167.16 277.802,167.141 L277.802,168.439 C277.528,168.518 277.32,168.566 277.177,168.586 C277.034,168.605 276.838,168.615 276.591,168.615 C275.985,168.615 275.546,168.4 275.273,167.971 C275.129,167.743 275.028,167.421 274.97,167.004 C274.612,167.473 274.097,167.88 273.427,168.225 C272.756,168.57 272.017,168.742 271.21,168.742 C270.24,168.742 269.447,168.448 268.832,167.858 C268.217,167.269 267.909,166.532 267.909,165.646 C267.909,164.676 268.212,163.924 268.817,163.391 C269.423,162.857 270.217,162.528 271.2,162.404 L274.003,162.053 M279.858,155.012 L281.636,155.012 L281.636,157.932 L283.306,157.932 L283.306,159.367 L281.636,159.367 L281.636,166.193 C281.636,166.558 281.759,166.802 282.007,166.926 C282.144,166.997 282.371,167.033 282.69,167.033 C282.775,167.033 282.866,167.032 282.964,167.028 C283.062,167.025 283.176,167.017 283.306,167.004 L283.306,168.391 C283.104,168.449 282.894,168.492 282.676,168.518 C282.458,168.544 282.222,168.557 281.968,168.557 C281.148,168.557 280.591,168.347 280.298,167.927 C280.005,167.507 279.858,166.962 279.858,166.291 L279.858,159.367 L278.442,159.367 L278.442,157.932 L279.858,157.932 L279.858,155.012 M291.567,158.22 C292.264,158.568 292.795,159.019 293.159,159.572 C293.511,160.1 293.745,160.715 293.862,161.418 C293.967,161.9 294.019,162.668 294.019,163.723 L286.353,163.723 C286.385,164.784 286.636,165.635 287.105,166.276 C287.573,166.918 288.299,167.238 289.282,167.238 C290.2,167.238 290.933,166.936 291.48,166.33 C291.792,165.979 292.013,165.572 292.144,165.109 L293.872,165.109 C293.827,165.493 293.675,165.922 293.418,166.394 C293.161,166.866 292.873,167.251 292.554,167.551 C292.02,168.072 291.359,168.423 290.571,168.605 C290.148,168.71 289.67,168.762 289.136,168.762 C287.834,168.762 286.73,168.288 285.825,167.341 C284.92,166.394 284.468,165.067 284.468,163.361 C284.468,161.682 284.924,160.318 285.835,159.27 C286.746,158.221 287.938,157.697 289.409,157.697 C290.151,157.697 290.871,157.871 291.567,158.22 M292.212,162.326 C292.14,161.564 291.974,160.956 291.714,160.5 C291.232,159.654 290.428,159.23 289.302,159.23 C288.495,159.23 287.817,159.522 287.271,160.104 C286.724,160.687 286.434,161.428 286.401,162.326 L292.212,162.326 M296.212,157.932 L297.882,157.932 L297.882,159.738 C298.019,159.387 298.354,158.959 298.888,158.454 C299.422,157.95 300.037,157.697 300.733,157.697 C300.766,157.697 300.821,157.701 300.899,157.707 C300.978,157.714 301.111,157.727 301.3,157.746 L301.3,159.602 C301.196,159.582 301.1,159.569 301.012,159.562 C300.924,159.556 300.828,159.553 300.724,159.553 C299.838,159.553 299.158,159.838 298.683,160.407 C298.207,160.977 297.97,161.633 297.97,162.375 L297.97,168.391 L296.212,168.391 L296.212,157.932 M320.417,156.096 C321.368,157.365 321.843,158.99 321.843,160.969 C321.843,163.111 321.299,164.891 320.212,166.311 C318.936,167.977 317.116,168.811 314.753,168.811 C312.546,168.811 310.811,168.081 309.548,166.623 C308.422,165.217 307.858,163.439 307.858,161.291 C307.858,159.351 308.34,157.691 309.304,156.311 C310.541,154.54 312.37,153.654 314.792,153.654 C317.325,153.654 319.2,154.468 320.417,156.096 M318.703,165.231 C319.468,164.004 319.851,162.593 319.851,160.998 C319.851,159.312 319.41,157.954 318.527,156.926 C317.645,155.897 316.439,155.383 314.909,155.383 C313.425,155.383 312.214,155.892 311.276,156.911 C310.339,157.93 309.87,159.432 309.87,161.418 C309.87,163.007 310.272,164.346 311.076,165.437 C311.88,166.527 313.184,167.072 314.987,167.072 C316.7,167.072 317.938,166.459 318.703,165.231 M334.587,154.045 L334.587,155.754 L329.753,155.754 L329.753,168.391 L327.78,168.391 L327.78,155.754 L322.946,155.754 L322.946,154.045 L334.587,154.045 Z" style="stroke:none;fill-rule:nonzero;fill:#000000;fill-opacity:1;"/>
        </g>
    </g>
</svg>
