<?xml version="1.0"?>
<svg version="1.1" xmlns="http://www.w3.org/2000/svg" xmlns:xlink="http://www.w3.org/1999/xlink" width="640" height="480">
    <desc iVinci="yes" version="4.6" gridStep="20" showGrid="no" snapToGrid="no" codePlatform="0"/>
    <g id="Layer1" name="Layer 1" opacity="1">
        <g id="Shape1">
            <desc shapeID="1" type="0" basicInfo-basicType="0" basicInfo-roundedRectRadius="12" basicInfo-polygonSides="6" basicInfo-starPoints="5" bounding="rect(-191.303,-50,382.608,100)" text="" font-familyName="Helvetica" font-pixelSize="20" font-bold="0" font-underline="0" font-alignment="1" strokeStyle="1" markerStart="0" markerEnd="1" shadowEnabled="0" shadowOffsetX="0" shadowOffsetY="2" shadowBlur="4" shadowOpacity="160" blurEnabled="0" blurRadius="4" transform="matrix(0.690806,0,0,2,227.497,200.5)" pers-center="0,0" pers-size="0,0" pers-start="0,0" pers-end="0,0" locked="0" mesh="" flag=""/>
            <path id="shapePath1" d="M95.3441,200.5 C95.3441,200.5 152.411,300.5 152.411,300.5 C152.411,300.5 290.572,300.5 290.572,300.5 C290.572,300.5 359.652,100.5 359.652,100.5 " style="stroke:#1cdf10;stroke-opacity:1;stroke-width:5.5;stroke-linejoin:miter;stroke-miterlimit:2;stroke-linecap:round;fill:none;"/>
            <path id="markerPath1" d="M366.082,149.271 L363.243,90.1027 L324.493,134.907 L366.082,149.271 Z" style="stroke:none;fill-rule:evenodd;fill:#1cdf10;fill-opacity:1;"/>
        </g>
        <g id="Shape2">
            <desc shapeID="2" type="0" basicInfo-basicType="5" basicInfo-roundedRectRadius="12" basicInfo-polygonSides="6" basicInfo-starPoints="5" bounding="rect(-28.125,-29.4451,56.2501,58.8902)" text="" font-familyName="Helvetica" font-pixelSize="20" font-bold="0" font-underline="0" font-alignment="1" strokeStyle="0" markerStart="0" markerEnd="0" shadowEnabled="0" shadowOffsetX="0" shadowOffsetY="2" shadowBlur="4" shadowOpacity="160" blurEnabled="0" blurRadius="4" transform="matrix(-1.35884e-06,0.606668,-0.434232,-2.69539e-06,118.6,77.5625)" pers-center="0,0" pers-size="0,0" pers-start="0,0" pers-end="0,0" locked="0" mesh="" flag=""/>
            <path id="shapePath2" d="M118.6,94.6251 L105.814,60.4999 L131.386,60.5003 L118.6,94.6251 Z" style="stroke:#323232;stroke-opacity:1;stroke-width:2;stroke-linejoin:miter;stroke-miterlimit:2;stroke-linecap:round;fill:none;"/>
        </g>
        <g id="Shape3">
            <desc shapeID="3" type="0" basicInfo-basicType="0" basicInfo-roundedRectRadius="12" basicInfo-polygonSides="6" basicInfo-starPoints="5" bounding="rect(-20.9233,-18.9945,41.8465,37.989)" text="" font-familyName="Helvetica" font-pixelSize="20" font-bold="0" font-underline="0" font-alignment="1" strokeStyle="0" markerStart="0" markerEnd="0" shadowEnabled="0" shadowOffsetX="0" shadowOffsetY="2" shadowBlur="4" shadowOpacity="160" blurEnabled="0" blurRadius="4" transform="matrix(0.863566,0,0,1,100.531,200.5)" pers-center="0,0" pers-size="0,0" pers-start="0,0" pers-end="0,0" locked="0" mesh="" flag=""/>
            <path id="shapePath3" d="M100.531,181.506 L106.115,194.011 L118.6,196.017 L109.566,205.751 L111.698,219.495 L100.531,213.006 L89.3645,219.495 L91.4966,205.751 L82.4628,196.016 L94.9474,194.011 L100.531,181.506 Z" style="stroke:#323232;stroke-opacity:1;stroke-width:5.5;stroke-linejoin:miter;stroke-miterlimit:2;stroke-linecap:round;fill-rule:evenodd;fill:#969696;fill-opacity:1;"/>
        </g>
        <g id="Shape4">
            <desc shapeID="4" type="0" basicInfo-basicType="5" basicInfo-roundedRectRadius="12" basicInfo-polygonSides="6" basicInfo-starPoints="5" bounding="rect(-28.125,-29.4439,56.2501,58.8879)" text="" font-familyName="Helvetica" font-pixelSize="20" font-bold="0" font-underline="0" font-alignment="1" strokeStyle="0" markerStart="0" markerEnd="0" shadowEnabled="0" shadowOffsetX="0" shadowOffsetY="2" shadowBlur="4" shadowOpacity="160" blurEnabled="0" blurRadius="4" transform="matrix(-1.35884e-06,0.606668,-0.434232,-2.69539e-06,322.839,77.5625)" pers-center="0,0" pers-size="0,0" pers-start="0,0" pers-end="0,0" locked="0" mesh="" flag=""/>
            <path id="shapePath4" d="M322.838,94.6251 L310.053,60.4999 L335.624,60.5003 L322.838,94.6251 Z" style="stroke:#323232;stroke-opacity:1;stroke-width:2;stroke-linejoin:miter;stroke-miterlimit:2;stroke-linecap:round;fill:none;"/>
        </g>
        <g id="Shape5">
            <desc shapeID="5" type="0" basicInfo-basicType="5" basicInfo-roundedRectRadius="12" basicInfo-polygonSides="6" basicInfo-starPoints="5" bounding="rect(-28.125,-29.4451,56.2501,58.8902)" text="" font-familyName="Helvetica" font-pixelSize="20" font-bold="0" font-underline="0" font-alignment="1" strokeStyle="0" markerStart="0" markerEnd="0" shadowEnabled="0" shadowOffsetX="0" shadowOffsetY="2" shadowBlur="4" shadowOpacity="160" blurEnabled="0" blurRadius="4" transform="matrix(-1.35884e-06,0.606668,-0.434232,-2.69539e-06,190.684,77.5625)" pers-center="0,0" pers-size="0,0" pers-start="0,0" pers-end="0,0" locked="0" mesh="" flag=""/>
            <path id="shapePath5" d="M190.684,94.6251 L177.898,60.4999 L203.47,60.5003 L190.684,94.6251 Z" style="stroke:#323232;stroke-opacity:1;stroke-width:2;stroke-linejoin:miter;stroke-miterlimit:2;stroke-linecap:round;fill:none;"/>
        </g>
        <g id="Shape6">
            <desc shapeID="6" type="0" basicInfo-basicType="0" basicInfo-roundedRectRadius="12" basicInfo-polygonSides="6" basicInfo-starPoints="5" bounding="rect(-260.5,-13.0394,521.001,26.0787)" text="" font-familyName="Helvetica" font-pixelSize="20" font-bold="0" font-underline="0" font-alignment="1" strokeStyle="0" markerStart="0" markerEnd="0" shadowEnabled="0" shadowOffsetX="0" shadowOffsetY="2" shadowBlur="4" shadowOpacity="160" blurEnabled="0" blurRadius="4" transform="matrix(0.6007,0,0,1,224.194,93.5394)" pers-center="0,0" pers-size="0,0" pers-start="0,0" pers-end="0,0" locked="0" mesh="" flag=""/>
            <path id="shapePath6" d="M67.7119,97.5 C91.9165,95.5364 116.637,94.2932 140.997,96.5 C144.129,98.5021 145.875,103.557 148.806,106.5 C158.07,106.898 168.175,106.105 175.237,96.5 C190.425,97.5104 205.968,94.3349 220.891,98.5 C244.301,82.8124 269.586,94.936 293.575,99.5 C319.11,82.1233 356.672,104.773 380.677,80.5 " style="stroke:#323232;stroke-opacity:1;stroke-width:2;stroke-linejoin:miter;stroke-miterlimit:2;stroke-linecap:round;fill:none;"/>
        </g>
        <g id="Shape7">
            <desc shapeID="7" type="0" basicInfo-basicType="0" basicInfo-roundedRectRadius="12" basicInfo-polygonSides="6" basicInfo-starPoints="5" bounding="rect(-285.5,-8.17999,571,16.3601)" text="" font-familyName="Helvetica" font-pixelSize="20" font-bold="0" font-underline="0" font-alignment="1" strokeStyle="0" markerStart="0" markerEnd="0" shadowEnabled="0" shadowOffsetX="0" shadowOffsetY="2" shadowBlur="4" shadowOpacity="160" blurEnabled="0" blurRadius="4" transform="matrix(0.6007,0,0,1,229,298.68)" pers-center="0,0" pers-size="0,0" pers-start="0,0" pers-end="0,0" locked="0" mesh="" flag=""/>
            <path id="shapePath7" d="M57.5,301.5 C68.6512,295.564 81.608,302.795 91.7399,296.5 C105.175,298.035 119.186,294.707 131.386,305.5 L243.717,290.5 C294.031,296.657 345.042,287.187 394.493,306.5 C398.582,307.984 398.583,304.665 400.5,300.5 " style="stroke:#323232;stroke-opacity:1;stroke-width:2;stroke-linejoin:miter;stroke-miterlimit:2;stroke-linecap:round;fill:none;"/>
        </g>
        <g id="Shape8">
            <desc shapeID="8" type="0" basicInfo-basicType="5" basicInfo-roundedRectRadius="12" basicInfo-polygonSides="6" basicInfo-starPoints="5" bounding="rect(-28.125,-29.4452,56.2501,58.8904)" text="" font-familyName="Helvetica" font-pixelSize="20" font-bold="0" font-underline="0" font-alignment="1" strokeStyle="0" markerStart="0" markerEnd="0" shadowEnabled="0" shadowOffsetX="0" shadowOffsetY="2" shadowBlur="4" shadowOpacity="160" blurEnabled="0" blurRadius="4" transform="matrix(-1.35884e-06,0.606668,-0.434232,-2.69539e-06,87.3639,77.5625)" pers-center="0,0" pers-size="0,0" pers-start="0,0" pers-end="0,0" locked="0" mesh="" flag=""/>
            <path id="shapePath8" d="M87.3638,94.6251 L74.5779,60.4999 L100.15,60.5003 L87.3638,94.6251 Z" style="stroke:#323232;stroke-opacity:1;stroke-width:2;stroke-linejoin:miter;stroke-miterlimit:2;stroke-linecap:round;fill:none;"/>
        </g>
        <g id="Shape9">
            <desc shapeID="9" type="0" basicInfo-basicType="5" basicInfo-roundedRectRadius="12" basicInfo-polygonSides="6" basicInfo-starPoints="5" bounding="rect(-28.125,-29.4439,56.2501,58.8878)" text="" font-familyName="Helvetica" font-pixelSize="20" font-bold="0" font-underline="0" font-alignment="1" strokeStyle="0" markerStart="0" markerEnd="0" shadowEnabled="0" shadowOffsetX="0" shadowOffsetY="2" shadowBlur="4" shadowOpacity="160" blurEnabled="0" blurRadius="4" transform="matrix(-1.35884e-06,0.606668,-0.434232,-2.69539e-06,358.88,77.5625)" pers-center="0,0" pers-size="0,0" pers-start="0,0" pers-end="0,0" locked="0" mesh="" flag=""/>
            <path id="shapePath9" d="M358.88,94.6251 L346.095,60.4999 L371.666,60.5003 L358.88,94.6251 Z" style="stroke:#323232;stroke-opacity:1;stroke-width:2;stroke-linejoin:miter;stroke-miterlimit:2;stroke-linecap:round;fill:none;"/>
        </g>
        <g id="Shape10">
            <desc shapeID="10" type="2" basicInfo-basicType="0" basicInfo-roundedRectRadius="12" basicInfo-polygonSides="6" basicInfo-starPoints="5" bounding="rect(-22,-17,44,34)" text="Pn" font-familyName="Helvetica" font-pixelSize="20" font-bold="0" font-underline="0" font-alignment="1" strokeStyle="0" markerStart="0" markerEnd="0" shadowEnabled="0" shadowOffsetX="0" shadowOffsetY="2" shadowBlur="4" shadowOpacity="160" blurEnabled="0" blurRadius="4" transform="matrix(1,0,0,1,344.794,213.557)" pers-center="0,0" pers-size="0,0" pers-start="0,0" pers-end="0,0" locked="0" mesh="" flag=""/>
            <path id="shapePath10" d="M334.284,204.602 L340.739,204.602 C342.015,204.602 343.044,204.962 343.825,205.681 C344.607,206.4 344.997,207.411 344.997,208.713 C344.997,209.833 344.649,210.808 343.952,211.638 C343.256,212.468 342.185,212.883 340.739,212.883 L336.228,212.883 L336.228,218.948 L334.284,218.948 L334.284,204.602 M341.862,206.575 C341.433,206.373 340.843,206.272 340.095,206.272 L336.228,206.272 L336.228,211.243 L340.095,211.243 C340.967,211.243 341.675,211.057 342.219,210.686 C342.762,210.315 343.034,209.661 343.034,208.723 C343.034,207.668 342.644,206.952 341.862,206.575 M347.192,208.489 L348.862,208.489 L348.862,209.973 C349.357,209.361 349.881,208.922 350.435,208.655 C350.988,208.388 351.603,208.254 352.28,208.254 C353.765,208.254 354.767,208.772 355.288,209.807 C355.575,210.373 355.718,211.184 355.718,212.239 L355.718,218.948 L353.931,218.948 L353.931,212.356 C353.931,211.718 353.836,211.203 353.648,210.813 C353.335,210.162 352.769,209.836 351.948,209.836 C351.532,209.836 351.19,209.879 350.923,209.963 C350.441,210.106 350.018,210.393 349.653,210.823 C349.36,211.168 349.17,211.524 349.082,211.892 C348.994,212.26 348.95,212.786 348.95,213.469 L348.95,218.948 L347.192,218.948 L347.192,208.489 Z" style="stroke:none;fill-rule:nonzero;fill:#000000;fill-opacity:1;"/>
        </g>
        <g id="Shape11">
            <desc shapeID="11" type="0" basicInfo-basicType="0" basicInfo-roundedRectRadius="12" basicInfo-polygonSides="6" basicInfo-starPoints="5" bounding="rect(-160,-50,320,100)" text="" font-familyName="Helvetica" font-pixelSize="20" font-bold="0" font-underline="0" font-alignment="1" strokeStyle="0" markerStart="0" markerEnd="0" shadowEnabled="0" shadowOffsetX="0" shadowOffsetY="2" shadowBlur="4" shadowOpacity="160" blurEnabled="0" blurRadius="4" transform="matrix(0.783049,0,0,1,222.434,370.5)" pers-center="0,0" pers-size="0,0" pers-start="0,0" pers-end="0,0" locked="0" mesh="" flag=""/>
            <path id="shapePath11" d="M97.1462,320.5 C97.1462,320.5 97.1462,420.5 97.1462,420.5 C97.1462,420.5 347.722,420.5 347.722,420.5 " style="stroke:#323232;stroke-opacity:1;stroke-width:2;stroke-linejoin:miter;stroke-miterlimit:2;stroke-linecap:round;fill:none;"/>
        </g>
        <g id="Shape12">
            <desc shapeID="12" type="0" basicInfo-basicType="0" basicInfo-roundedRectRadius="12" basicInfo-polygonSides="6" basicInfo-starPoints="5" bounding="rect(-266.752,-37,533.502,74)" text="" font-familyName="Helvetica" font-pixelSize="20" font-bold="0" font-underline="0" font-alignment="1" strokeStyle="0" markerStart="0" markerEnd="0" shadowEnabled="0" shadowOffsetX="0" shadowOffsetY="2" shadowBlur="4" shadowOpacity="160" blurEnabled="0" blurRadius="4" transform="matrix(0.6007,0,0,1,257.384,360.5)" pers-center="0,0" pers-size="0,0" pers-start="0,0" pers-end="0,0" locked="0" mesh="" flag=""/>
            <path id="shapePath12" d="M97.1462,397.5 C97.1462,397.5 417.621,323.5 417.621,323.5 " style="stroke:#323232;stroke-opacity:1;stroke-width:2;stroke-linejoin:miter;stroke-miterlimit:2;stroke-linecap:round;fill:none;"/>
        </g>
        <g id="Shape13">
            <desc shapeID="13" type="2" basicInfo-basicType="0" basicInfo-roundedRectRadius="12" basicInfo-polygonSides="6" basicInfo-starPoints="5" bounding="rect(-24.5,-17.5,49,35)" text="TT" font-familyName="Helvetica" font-pixelSize="20" font-bold="0" font-underline="0" font-alignment="1" strokeStyle="0" markerStart="0" markerEnd="0" shadowEnabled="0" shadowOffsetX="0" shadowOffsetY="2" shadowBlur="4" shadowOpacity="160" blurEnabled="0" blurRadius="4" transform="matrix(1,0,0,1,62.5371,369.955)" pers-center="0,0" pers-size="0,0" pers-start="0,0" pers-end="0,0" locked="0" mesh="" flag=""/>
            <path id="shapePath13" d="M62.2969,360.5 L62.2969,362.209 L57.4629,362.209 L57.4629,374.846 L55.4902,374.846 L55.4902,362.209 L50.6562,362.209 L50.6562,360.5 L62.2969,360.5 M74.5,360.5 L74.5,362.209 L69.666,362.209 L69.666,374.846 L67.6934,374.846 L67.6934,362.209 L62.8594,362.209 L62.8594,360.5 L74.5,360.5 Z" style="stroke:none;fill-rule:nonzero;fill:#000000;fill-opacity:1;"/>
        </g>
        <g id="Shape14">
            <desc shapeID="14" type="2" basicInfo-basicType="0" basicInfo-roundedRectRadius="12" basicInfo-polygonSides="6" basicInfo-starPoints="5" bounding="rect(-33.5,-18.5,67,37)" text="" font-familyName="Symbol" font-pixelSize="20" font-bold="0" font-underline="0" font-alignment="1" strokeStyle="0" markerStart="0" markerEnd="0" shadowEnabled="0" shadowOffsetX="0" shadowOffsetY="2" shadowBlur="4" shadowOpacity="160" blurEnabled="0" blurRadius="4" transform="matrix(1,0,0,1,329,449)" pers-center="0,0" pers-size="0,0" pers-start="0,0" pers-end="0,0" locked="0" mesh="" flag=""/>
            <path id="shapePath14" d="M329,449 Z" style="stroke:none;fill-rule:evenodd;fill:#000000;fill-opacity:1;"/>
        </g>
        <g id="Shape15">
            <desc shapeID="15" type="2" basicInfo-basicType="0" basicInfo-roundedRectRadius="12" basicInfo-polygonSides="6" basicInfo-starPoints="5" bounding="rect(-25.5,-15,51,30)" text="∆" font-familyName="Symbol" font-pixelSize="20" font-bold="0" font-underline="0" font-alignment="1" strokeStyle="0" markerStart="0" markerEnd="0" shadowEnabled="0" shadowOffsetX="0" shadowOffsetY="2" shadowBlur="4" shadowOpacity="160" blurEnabled="0" blurRadius="4" transform="matrix(1,0,0,1,344.975,442.672)" pers-center="0,0" pers-size="0,0" pers-start="0,0" pers-end="0,0" locked="0" mesh="" flag=""/>
            <path id="shapePath15" d="M338.454,449 L338.454,447.193 L343.971,434.547 L346.002,434.547 L351.5,447.193 L351.5,449 L338.454,449 M340.221,447.193 L349.284,447.193 L344.762,436.803 L340.221,447.193 Z" style="stroke:none;fill-rule:nonzero;fill:#000000;fill-opacity:1;"/>
        </g>
        <g id="Shape16">
            <desc shapeID="16" type="0" basicInfo-basicType="0" basicInfo-roundedRectRadius="12" basicInfo-polygonSides="6" basicInfo-starPoints="5" bounding="rect(-120.5,-7.0919,241,14.1837)" text="" font-familyName="Helvetica" font-pixelSize="20" font-bold="0" font-underline="0" font-alignment="1" strokeStyle="0" markerStart="0" markerEnd="0" shadowEnabled="0" shadowOffsetX="0" shadowOffsetY="2" shadowBlur="4" shadowOpacity="160" blurEnabled="0" blurRadius="4" transform="matrix(1,0,0,1,503,80.4082)" pers-center="0,0" pers-size="0,0" pers-start="0,0" pers-end="0,0" locked="0" mesh="" flag=""/>
            <path id="shapePath16" d="M382.5,81.5 C387.745,79.6329 397.396,82.525 399.5,75.5 C454.321,76.3939 510.746,66.1868 560.5,83.5 C574.018,82.3238 586.433,78.9174 601.5,80.5 C608.779,83.59 615.371,84.5673 623.5,87.5 " style="stroke:#323232;stroke-opacity:1;stroke-width:2;stroke-linejoin:miter;stroke-miterlimit:2;stroke-linecap:round;fill:none;"/>
        </g>
        <g id="Shape17">
            <desc shapeID="17" type="0" basicInfo-basicType="0" basicInfo-roundedRectRadius="12" basicInfo-polygonSides="6" basicInfo-starPoints="5" bounding="rect(-114,-4.23614,228,8.47228)" text="" font-familyName="Helvetica" font-pixelSize="20" font-bold="0" font-underline="0" font-alignment="1" strokeStyle="0" markerStart="0" markerEnd="0" shadowEnabled="0" shadowOffsetX="0" shadowOffsetY="2" shadowBlur="4" shadowOpacity="160" blurEnabled="0" blurRadius="4" transform="matrix(1,0,0,1,515.5,298.264)" pers-center="0,0" pers-size="0,0" pers-start="0,0" pers-end="0,0" locked="0" mesh="" flag=""/>
            <path id="shapePath17" d="M401.5,299.5 L604.5,302.5 C610.792,295.589 619.364,292.835 629.5,294.5 " style="stroke:#323232;stroke-opacity:1;stroke-width:2;stroke-linejoin:miter;stroke-miterlimit:2;stroke-linecap:round;fill:none;"/>
        </g>
        <g id="Shape18">
            <desc shapeID="18" type="0" basicInfo-basicType="0" basicInfo-roundedRectRadius="12" basicInfo-polygonSides="6" basicInfo-starPoints="5" bounding="rect(-133,-0.5,266,1)" text="" font-familyName="Helvetica" font-pixelSize="20" font-bold="0" font-underline="0" font-alignment="1" strokeStyle="0" markerStart="0" markerEnd="0" shadowEnabled="0" shadowOffsetX="0" shadowOffsetY="2" shadowBlur="4" shadowOpacity="160" blurEnabled="0" blurRadius="4" transform="matrix(1,0,0,1,484.5,420)" pers-center="0,0" pers-size="0,0" pers-start="0,0" pers-end="0,0" locked="0" mesh="" flag=""/>
            <path id="shapePath18" d="M351.5,420.5 C351.5,420.5 617.5,419.5 617.5,419.5 " style="stroke:#323232;stroke-opacity:1;stroke-width:2;stroke-linejoin:miter;stroke-miterlimit:2;stroke-linecap:round;fill:none;"/>
        </g>
        <g id="Shape19">
            <desc shapeID="19" type="0" basicInfo-basicType="0" basicInfo-roundedRectRadius="12" basicInfo-polygonSides="6" basicInfo-starPoints="5" bounding="rect(-196,-27.0001,392,54.0002)" text="" font-familyName="Helvetica" font-pixelSize="20" font-bold="0" font-underline="0" font-alignment="1" strokeStyle="0" markerStart="0" markerEnd="0" shadowEnabled="0" shadowOffsetX="0" shadowOffsetY="2" shadowBlur="4" shadowOpacity="160" blurEnabled="0" blurRadius="4" transform="matrix(0.840496,0,0,0.344628,437.5,338.695)" pers-center="0,0" pers-size="0,0" pers-start="0,0" pers-end="0,0" locked="0" mesh="" flag=""/>
            <path id="shapePath19" d="M272.763,348 C272.763,348 602.237,329.39 602.237,329.39 " style="stroke:#2aef18;stroke-opacity:1;stroke-width:3;stroke-linejoin:miter;stroke-miterlimit:2;stroke-linecap:round;fill:none;"/>
        </g>
        <g id="Shape20">
            <desc shapeID="20" type="0" basicInfo-basicType="0" basicInfo-roundedRectRadius="12" basicInfo-polygonSides="6" basicInfo-starPoints="5" bounding="rect(-76,-109.5,152,219)" text="" font-familyName="Helvetica" font-pixelSize="20" font-bold="0" font-underline="0" font-alignment="1" strokeStyle="1" markerStart="0" markerEnd="1" shadowEnabled="0" shadowOffsetX="0" shadowOffsetY="2" shadowBlur="4" shadowOpacity="160" blurEnabled="0" blurRadius="4" transform="matrix(1,0,0,1,376.5,190)" pers-center="0,0" pers-size="0,0" pers-start="0,0" pers-end="0,0" locked="0" mesh="" flag=""/>
            <path id="shapePath20" d="M300.5,299.5 C300.5,299.5 377.5,299.5 377.5,299.5 C377.5,299.5 452.5,80.5 452.5,80.5 " style="stroke:#29d914;stroke-opacity:1;stroke-width:5;stroke-linejoin:miter;stroke-miterlimit:2;stroke-linecap:round;fill:none;"/>
            <path id="markerPath20" d="M458.461,124.822 L455.74,71.0394 L420.619,111.863 L458.461,124.822 Z" style="stroke:none;fill-rule:evenodd;fill:#29d914;fill-opacity:1;"/>
        </g>
        <g id="Shape21">
            <desc shapeID="21" type="0" basicInfo-basicType="0" basicInfo-roundedRectRadius="12" basicInfo-polygonSides="6" basicInfo-starPoints="5" bounding="rect(-76,-109.5,152,219)" text="" font-familyName="Helvetica" font-pixelSize="20" font-bold="0" font-underline="0" font-alignment="1" strokeStyle="1" markerStart="0" markerEnd="1" shadowEnabled="0" shadowOffsetX="0" shadowOffsetY="2" shadowBlur="4" shadowOpacity="160" blurEnabled="0" blurRadius="4" transform="matrix(1,0,0,1,462,189.18)" pers-center="0,0" pers-size="0,0" pers-start="0,0" pers-end="0,0" locked="0" mesh="" flag=""/>
            <path id="shapePath21" d="M386,298.68 C386,298.68 463,298.68 463,298.68 C463,298.68 538,79.6801 538,79.6801 " style="stroke:#29d914;stroke-opacity:1;stroke-width:5;stroke-linejoin:miter;stroke-miterlimit:2;stroke-linecap:round;fill:none;"/>
            <path id="markerPath21" d="M543.961,124.002 L541.24,70.2195 L506.119,111.043 L543.961,124.002 Z" style="stroke:none;fill-rule:evenodd;fill:#29d914;fill-opacity:1;"/>
        </g>
        <g id="Shape22">
            <desc shapeID="22" type="0" basicInfo-basicType="0" basicInfo-roundedRectRadius="12" basicInfo-polygonSides="6" basicInfo-starPoints="5" bounding="rect(-73.5,-106,147,212)" text="" font-familyName="Helvetica" font-pixelSize="20" font-bold="0" font-underline="0" font-alignment="1" strokeStyle="1" markerStart="0" markerEnd="1" shadowEnabled="0" shadowOffsetX="0" shadowOffsetY="2" shadowBlur="4" shadowOpacity="160" blurEnabled="0" blurRadius="4" transform="matrix(1,0,0,1,539,193.5)" pers-center="0,0" pers-size="0,0" pers-start="0,0" pers-end="0,0" locked="0" mesh="" flag=""/>
            <path id="shapePath22" d="M465.5,299.5 C465.5,299.5 542.5,299.5 542.5,299.5 C542.5,299.5 612.5,87.5 612.5,87.5 " style="stroke:#29d914;stroke-opacity:1;stroke-width:5;stroke-linejoin:miter;stroke-miterlimit:2;stroke-linecap:round;fill:none;"/>
            <path id="markerPath22" d="M618.95,131.754 L615.635,78.0042 L580.967,119.212 L618.95,131.754 Z" style="stroke:none;fill-rule:evenodd;fill:#29d914;fill-opacity:1;"/>
        </g>
        <g id="Shape23">
            <desc shapeID="23" type="0" basicInfo-basicType="5" basicInfo-roundedRectRadius="12" basicInfo-polygonSides="6" basicInfo-starPoints="5" bounding="rect(-28.125,-29.4451,56.2501,58.8902)" text="" font-familyName="Helvetica" font-pixelSize="20" font-bold="0" font-underline="0" font-alignment="1" strokeStyle="0" markerStart="0" markerEnd="0" shadowEnabled="0" shadowOffsetX="0" shadowOffsetY="2" shadowBlur="4" shadowOpacity="160" blurEnabled="0" blurRadius="4" transform="matrix(-1.35884e-06,0.606668,-0.434232,-2.69539e-06,449.214,56.2537)" pers-center="0,0" pers-size="0,0" pers-start="0,0" pers-end="0,0" locked="0" mesh="" flag=""/>
            <path id="shapePath23" d="M449.214,73.3163 L436.428,39.1911 L462,39.1915 L449.214,73.3163 Z" style="stroke:#323232;stroke-opacity:1;stroke-width:2;stroke-linejoin:miter;stroke-miterlimit:2;stroke-linecap:round;fill:none;"/>
        </g>
        <g id="Shape24">
            <desc shapeID="24" type="0" basicInfo-basicType="5" basicInfo-roundedRectRadius="12" basicInfo-polygonSides="6" basicInfo-starPoints="5" bounding="rect(-28.125,-29.4451,56.2501,58.8903)" text="" font-familyName="Helvetica" font-pixelSize="20" font-bold="0" font-underline="0" font-alignment="1" strokeStyle="0" markerStart="0" markerEnd="0" shadowEnabled="0" shadowOffsetX="0" shadowOffsetY="2" shadowBlur="4" shadowOpacity="160" blurEnabled="0" blurRadius="4" transform="matrix(-1.35884e-06,0.606668,-0.434232,-2.69539e-06,538,56.2537)" pers-center="0,0" pers-size="0,0" pers-start="0,0" pers-end="0,0" locked="0" mesh="" flag=""/>
            <path id="shapePath24" d="M538,73.3163 L525.214,39.1911 L550.786,39.1915 L538,73.3163 Z" style="stroke:#323232;stroke-opacity:1;stroke-width:2;stroke-linejoin:miter;stroke-miterlimit:2;stroke-linecap:round;fill:none;"/>
        </g>
        <g id="Shape25">
            <desc shapeID="25" type="0" basicInfo-basicType="5" basicInfo-roundedRectRadius="12" basicInfo-polygonSides="6" basicInfo-starPoints="5" bounding="rect(-28.125,-29.4451,56.2501,58.8903)" text="" font-familyName="Helvetica" font-pixelSize="20" font-bold="0" font-underline="0" font-alignment="1" strokeStyle="0" markerStart="0" markerEnd="0" shadowEnabled="0" shadowOffsetX="0" shadowOffsetY="2" shadowBlur="4" shadowOpacity="160" blurEnabled="0" blurRadius="4" transform="matrix(-1.35884e-06,0.606668,-0.434232,-2.69539e-06,615.023,63.4374)" pers-center="0,0" pers-size="0,0" pers-start="0,0" pers-end="0,0" locked="0" mesh="" flag=""/>
            <path id="shapePath25" d="M615.023,80.5 L602.237,46.3748 L627.809,46.3752 L615.023,80.5 Z" style="stroke:#323232;stroke-opacity:1;stroke-width:2;stroke-linejoin:miter;stroke-miterlimit:2;stroke-linecap:round;fill:none;"/>
        </g>
        <g id="Shape26">
            <desc shapeID="26" type="2" basicInfo-basicType="0" basicInfo-roundedRectRadius="12" basicInfo-polygonSides="6" basicInfo-starPoints="5" bounding="rect(-22,-17,44,34)" text="Pn" font-familyName="Helvetica" font-pixelSize="20" font-bold="0" font-underline="0" font-alignment="1" strokeStyle="0" markerStart="0" markerEnd="0" shadowEnabled="0" shadowOffsetX="0" shadowOffsetY="2" shadowBlur="4" shadowOpacity="160" blurEnabled="0" blurRadius="4" transform="matrix(1,0,0,1,472.51,349.782)" pers-center="0,0" pers-size="0,0" pers-start="0,0" pers-end="0,0" locked="0" mesh="" flag=""/>
            <path id="shapePath26" d="M462,340.827 L468.455,340.827 C469.731,340.827 470.76,341.187 471.541,341.906 C472.323,342.625 472.713,343.636 472.713,344.938 C472.713,346.058 472.365,347.033 471.668,347.863 C470.972,348.693 469.901,349.108 468.455,349.108 L463.944,349.108 L463.944,355.173 L462,355.173 L462,340.827 M469.578,342.8 C469.149,342.598 468.559,342.497 467.811,342.497 L463.944,342.497 L463.944,347.468 L467.811,347.468 C468.683,347.468 469.391,347.282 469.935,346.911 C470.478,346.54 470.75,345.886 470.75,344.948 C470.75,343.893 470.36,343.177 469.578,342.8 M474.908,344.714 L476.578,344.714 L476.578,346.198 C477.073,345.586 477.597,345.147 478.151,344.88 C478.704,344.613 479.319,344.479 479.996,344.479 C481.481,344.479 482.483,344.997 483.004,346.032 C483.291,346.598 483.434,347.409 483.434,348.464 L483.434,355.173 L481.647,355.173 L481.647,348.581 C481.647,347.943 481.552,347.428 481.364,347.038 C481.051,346.387 480.485,346.061 479.664,346.061 C479.248,346.061 478.906,346.104 478.639,346.188 C478.157,346.331 477.734,346.618 477.369,347.048 C477.076,347.393 476.886,347.749 476.798,348.117 C476.71,348.485 476.666,349.011 476.666,349.694 L476.666,355.173 L474.908,355.173 L474.908,344.714 Z" style="stroke:none;fill-rule:nonzero;fill:#000000;fill-opacity:1;"/>
        </g>
        <g id="Shape27">
            <desc shapeID="27" type="0" basicInfo-basicType="0" basicInfo-roundedRectRadius="12" basicInfo-polygonSides="6" basicInfo-starPoints="5" bounding="rect(-0.5,-37.5,1,75)" text="" font-familyName="Helvetica" font-pixelSize="20" font-bold="0" font-underline="0" font-alignment="1" strokeStyle="4" markerStart="2" markerEnd="2" shadowEnabled="0" shadowOffsetX="0" shadowOffsetY="2" shadowBlur="4" shadowOpacity="160" blurEnabled="0" blurRadius="4" transform="matrix(1,0,0,1,517,375)" pers-center="0,0" pers-size="0,0" pers-start="0,0" pers-end="0,0" locked="0" mesh="" flag=""/>
            <path id="shapePath27" d="M517.5,337.5 C517.5,337.5 516.5,412.5 516.5,412.5 " style="stroke:#323232;stroke-opacity:1;stroke-width:2;stroke-linejoin:miter;stroke-miterlimit:2;stroke-linecap:round;fill-rule:evenodd;fill:#000000;fill-opacity:1;"/>
            <path id="markerPath27" d="M525.286,353.605 L517.553,333.5 L509.287,353.392 L517.376,346.832 L525.286,353.605 M508.714,396.395 L516.447,416.5 L524.713,396.608 L516.624,403.168 L508.714,396.395 Z" style="stroke:none;fill-rule:evenodd;fill:#323232;fill-opacity:1;"/>
        </g>
        <g id="Shape28">
            <desc shapeID="28" type="2" basicInfo-basicType="0" basicInfo-roundedRectRadius="12" basicInfo-polygonSides="6" basicInfo-starPoints="5" bounding="rect(-38.5,-12.5,77,25)" text="Moho depth" font-familyName="Helvetica" font-pixelSize="20" font-bold="0" font-underline="0" font-alignment="1" strokeStyle="0" markerStart="0" markerEnd="0" shadowEnabled="0" shadowOffsetX="0" shadowOffsetY="2" shadowBlur="4" shadowOpacity="160" blurEnabled="0" blurRadius="4" transform="matrix(1,0,0,1,557,378)" pers-center="0,0" pers-size="0,0" pers-start="0,0" pers-end="0,0" locked="0" mesh="" flag=""/>
            <path id="shapePath28" d="M533.49,358.545 L536.273,358.545 L540.395,370.674 L544.486,358.545 L547.24,358.545 L547.24,372.891 L545.395,372.891 L545.395,364.424 C545.395,364.131 545.401,363.646 545.414,362.969 C545.427,362.292 545.434,361.566 545.434,360.791 L541.342,372.891 L539.418,372.891 L535.297,360.791 L535.297,361.23 C535.297,361.582 535.305,362.118 535.321,362.837 C535.338,363.556 535.346,364.085 535.346,364.424 L535.346,372.891 L533.49,372.891 L533.49,358.545 M556.509,370.435 C556.942,369.552 557.158,368.571 557.158,367.49 C557.158,366.514 557.002,365.719 556.689,365.107 C556.195,364.144 555.342,363.662 554.131,363.662 C553.057,363.662 552.275,364.072 551.787,364.893 C551.299,365.713 551.055,366.702 551.055,367.861 C551.055,368.975 551.299,369.902 551.787,370.645 C552.275,371.387 553.05,371.758 554.111,371.758 C555.277,371.758 556.076,371.317 556.509,370.435 M557.598,363.477 C558.529,364.375 558.994,365.697 558.994,367.441 C558.994,369.128 558.584,370.521 557.764,371.621 C556.943,372.721 555.671,373.271 553.945,373.271 C552.507,373.271 551.364,372.785 550.518,371.812 C549.671,370.838 549.248,369.531 549.248,367.891 C549.248,366.133 549.694,364.733 550.586,363.691 C551.478,362.65 552.676,362.129 554.18,362.129 C555.527,362.129 556.667,362.578 557.598,363.477 M561.07,358.496 L562.828,358.496 L562.828,363.848 C563.245,363.32 563.619,362.949 563.951,362.734 C564.518,362.363 565.224,362.178 566.07,362.178 C567.587,362.178 568.616,362.708 569.156,363.77 C569.449,364.349 569.596,365.153 569.596,366.182 L569.596,372.891 L567.789,372.891 L567.789,366.299 C567.789,365.531 567.691,364.967 567.496,364.609 C567.177,364.036 566.578,363.75 565.699,363.75 C564.97,363.75 564.309,364.001 563.717,364.502 C563.124,365.003 562.828,365.951 562.828,367.344 L562.828,372.891 L561.07,372.891 L561.07,358.496 M578.728,370.435 C579.16,369.552 579.377,368.571 579.377,367.49 C579.377,366.514 579.221,365.719 578.908,365.107 C578.413,364.144 577.561,363.662 576.35,363.662 C575.275,363.662 574.494,364.072 574.006,364.893 C573.518,365.713 573.273,366.702 573.273,367.861 C573.273,368.975 573.518,369.902 574.006,370.645 C574.494,371.387 575.269,371.758 576.33,371.758 C577.495,371.758 578.295,371.317 578.728,370.435 M579.816,363.477 C580.747,364.375 581.213,365.697 581.213,367.441 C581.213,369.128 580.803,370.521 579.982,371.621 C579.162,372.721 577.889,373.271 576.164,373.271 C574.725,373.271 573.583,372.785 572.736,371.812 C571.89,370.838 571.467,369.531 571.467,367.891 C571.467,366.133 571.913,364.733 572.805,363.691 C573.697,362.65 574.895,362.129 576.398,362.129 C577.746,362.129 578.885,362.578 579.816,363.477 M535.131,390.596 C535.606,391.351 536.368,391.729 537.416,391.729 C538.23,391.729 538.899,391.379 539.423,390.679 C539.947,389.979 540.209,388.975 540.209,387.666 C540.209,386.344 539.939,385.366 539.398,384.731 C538.858,384.097 538.191,383.779 537.396,383.779 C536.511,383.779 535.793,384.118 535.243,384.795 C534.693,385.472 534.418,386.468 534.418,387.783 C534.418,388.903 534.656,389.84 535.131,390.596 M539.076,382.754 C539.389,382.949 539.743,383.291 540.141,383.779 L540.141,378.496 L541.83,378.496 L541.83,392.891 L540.248,392.891 L540.248,391.436 C539.838,392.08 539.353,392.546 538.793,392.832 C538.233,393.118 537.592,393.262 536.869,393.262 C535.704,393.262 534.695,392.772 533.842,391.792 C532.989,390.812 532.562,389.508 532.562,387.881 C532.562,386.357 532.951,385.037 533.729,383.921 C534.508,382.804 535.619,382.246 537.064,382.246 C537.865,382.246 538.536,382.415 539.076,382.754 M550.928,382.72 C551.624,383.068 552.155,383.519 552.52,384.072 C552.871,384.6 553.105,385.215 553.223,385.918 C553.327,386.4 553.379,387.168 553.379,388.223 L545.713,388.223 C545.745,389.284 545.996,390.135 546.465,390.776 C546.934,391.418 547.659,391.738 548.643,391.738 C549.561,391.738 550.293,391.436 550.84,390.83 C551.152,390.479 551.374,390.072 551.504,389.609 L553.232,389.609 C553.187,389.993 553.035,390.422 552.778,390.894 C552.521,391.366 552.233,391.751 551.914,392.051 C551.38,392.572 550.719,392.923 549.932,393.105 C549.508,393.21 549.03,393.262 548.496,393.262 C547.194,393.262 546.091,392.788 545.186,391.841 C544.281,390.894 543.828,389.567 543.828,387.861 C543.828,386.182 544.284,384.818 545.195,383.77 C546.107,382.721 547.298,382.197 548.77,382.197 C549.512,382.197 550.231,382.371 550.928,382.72 M551.572,386.826 C551.501,386.064 551.335,385.456 551.074,385 C550.592,384.154 549.788,383.73 548.662,383.73 C547.855,383.73 547.178,384.022 546.631,384.604 C546.084,385.187 545.794,385.928 545.762,386.826 L551.572,386.826 M561.983,390.679 C562.527,389.992 562.799,388.965 562.799,387.598 C562.799,386.764 562.678,386.048 562.438,385.449 C561.982,384.297 561.148,383.721 559.938,383.721 C558.72,383.721 557.887,384.329 557.438,385.547 C557.197,386.198 557.076,387.025 557.076,388.027 C557.076,388.835 557.197,389.521 557.438,390.088 C557.893,391.169 558.727,391.709 559.938,391.709 C560.758,391.709 561.44,391.366 561.983,390.679 M555.387,382.48 L557.096,382.48 L557.096,383.867 C557.447,383.392 557.831,383.024 558.248,382.764 C558.841,382.373 559.537,382.178 560.338,382.178 C561.523,382.178 562.529,382.632 563.355,383.54 C564.182,384.448 564.596,385.745 564.596,387.432 C564.596,389.71 564,391.338 562.809,392.314 C562.053,392.933 561.174,393.242 560.172,393.242 C559.384,393.242 558.723,393.07 558.189,392.725 C557.877,392.529 557.529,392.194 557.145,391.719 L557.145,397.061 L555.387,397.061 L555.387,382.48 M566.984,379.512 L568.762,379.512 L568.762,382.432 L570.432,382.432 L570.432,383.867 L568.762,383.867 L568.762,390.693 C568.762,391.058 568.885,391.302 569.133,391.426 C569.27,391.497 569.497,391.533 569.816,391.533 C569.901,391.533 569.992,391.532 570.09,391.528 C570.188,391.525 570.301,391.517 570.432,391.504 L570.432,392.891 C570.23,392.949 570.02,392.992 569.802,393.018 C569.584,393.044 569.348,393.057 569.094,393.057 C568.273,393.057 567.717,392.847 567.424,392.427 C567.131,392.007 566.984,391.462 566.984,390.791 L566.984,383.867 L565.568,383.867 L565.568,382.432 L566.984,382.432 L566.984,379.512 M572.18,378.496 L573.938,378.496 L573.938,383.848 C574.354,383.32 574.729,382.949 575.061,382.734 C575.627,382.363 576.333,382.178 577.18,382.178 C578.697,382.178 579.725,382.708 580.266,383.77 C580.559,384.349 580.705,385.153 580.705,386.182 L580.705,392.891 L578.898,392.891 L578.898,386.299 C578.898,385.531 578.801,384.967 578.605,384.609 C578.286,384.036 577.688,383.75 576.809,383.75 C576.079,383.75 575.419,384.001 574.826,384.502 C574.234,385.003 573.938,385.951 573.938,387.344 L573.938,392.891 L572.18,392.891 L572.18,378.496 Z" style="stroke:none;fill-rule:nonzero;fill:#000000;fill-opacity:1;"/>
        </g>
        <g id="Shape29">
            <desc shapeID="29" type="0" basicInfo-basicType="4" basicInfo-roundedRectRadius="12" basicInfo-polygonSides="6" basicInfo-starPoints="5" bounding="rect(-7,-7,14,14)" text="" font-familyName="Helvetica" font-pixelSize="20" font-bold="0" font-underline="0" font-alignment="1" strokeStyle="0" markerStart="0" markerEnd="0" shadowEnabled="0" shadowOffsetX="0" shadowOffsetY="2" shadowBlur="4" shadowOpacity="160" blurEnabled="0" blurRadius="4" transform="matrix(1,0,0,1,538.5,334.5)" pers-center="0,0" pers-size="0,0" pers-start="0,0" pers-end="0,0" locked="0" mesh="" flag=""/>
            <path id="shapePath29" d="M531.5,334.5 C531.5,330.634 534.634,327.5 538.5,327.5 C542.366,327.5 545.5,330.634 545.5,334.5 C545.5,338.366 542.366,341.5 538.5,341.5 C534.634,341.5 531.5,338.366 531.5,334.5 Z" style="stroke:#323232;stroke-opacity:1;stroke-width:1;stroke-linejoin:miter;stroke-miterlimit:2;stroke-linecap:round;fill-rule:evenodd;fill:#1bdc16;fill-opacity:1;"/>
        </g>
        <g id="Shape30">
            <desc shapeID="30" type="0" basicInfo-basicType="4" basicInfo-roundedRectRadius="12" basicInfo-polygonSides="6" basicInfo-starPoints="5" bounding="rect(-7,-7,14,14)" text="" font-familyName="Helvetica" font-pixelSize="20" font-bold="0" font-underline="0" font-alignment="1" strokeStyle="0" markerStart="0" markerEnd="0" shadowEnabled="0" shadowOffsetX="0" shadowOffsetY="2" shadowBlur="4" shadowOpacity="160" blurEnabled="0" blurRadius="4" transform="matrix(1,0,0,1,449,339)" pers-center="0,0" pers-size="0,0" pers-start="0,0" pers-end="0,0" locked="0" mesh="" flag=""/>
            <path id="shapePath30" d="M442,339 C442,335.134 445.134,332 449,332 C452.866,332 456,335.134 456,339 C456,342.866 452.866,346 449,346 C445.134,346 442,342.866 442,339 Z" style="stroke:#323232;stroke-opacity:1;stroke-width:1;stroke-linejoin:miter;stroke-miterlimit:2;stroke-linecap:round;fill-rule:evenodd;fill:#1bdc16;fill-opacity:1;"/>
        </g>
        <g id="Shape31">
            <desc shapeID="31" type="0" basicInfo-basicType="4" basicInfo-roundedRectRadius="12" basicInfo-polygonSides="6" basicInfo-starPoints="5" bounding="rect(-7,-7,14,14)" text="" font-familyName="Helvetica" font-pixelSize="20" font-bold="0" font-underline="0" font-alignment="1" strokeStyle="0" markerStart="0" markerEnd="0" shadowEnabled="0" shadowOffsetX="0" shadowOffsetY="2" shadowBlur="4" shadowOpacity="160" blurEnabled="0" blurRadius="4" transform="matrix(1,0,0,1,357,345)" pers-center="0,0" pers-size="0,0" pers-start="0,0" pers-end="0,0" locked="0" mesh="" flag=""/>
            <path id="shapePath31" d="M350,345 C350,341.134 353.134,338 357,338 C360.866,338 364,341.134 364,345 C364,348.866 360.866,352 357,352 C353.134,352 350,348.866 350,345 Z" style="stroke:#323232;stroke-opacity:1;stroke-width:1;stroke-linejoin:miter;stroke-miterlimit:2;stroke-linecap:round;fill-rule:evenodd;fill:#1bdc16;fill-opacity:1;"/>
        </g>
        <g id="Shape32">
            <desc shapeID="32" type="0" basicInfo-basicType="4" basicInfo-roundedRectRadius="12" basicInfo-polygonSides="6" basicInfo-starPoints="5" bounding="rect(-7,-7,14,14)" text="" font-familyName="Helvetica" font-pixelSize="20" font-bold="0" font-underline="0" font-alignment="1" strokeStyle="0" markerStart="0" markerEnd="0" shadowEnabled="0" shadowOffsetX="0" shadowOffsetY="2" shadowBlur="4" shadowOpacity="160" blurEnabled="0" blurRadius="4" transform="matrix(1,0,0,1,614,330)" pers-center="0,0" pers-size="0,0" pers-start="0,0" pers-end="0,0" locked="0" mesh="" flag=""/>
            <path id="shapePath32" d="M607,330 C607,326.134 610.134,323 614,323 C617.866,323 621,326.134 621,330 C621,333.866 617.866,337 614,337 C610.134,337 607,333.866 607,330 Z" style="stroke:#323232;stroke-opacity:1;stroke-width:1;stroke-linejoin:miter;stroke-miterlimit:2;stroke-linecap:round;fill-rule:evenodd;fill:#1bdc16;fill-opacity:1;"/>
        </g>
        <g id="Shape33">
            <desc shapeID="33" type="2" basicInfo-basicType="0" basicInfo-roundedRectRadius="12" basicInfo-polygonSides="6" basicInfo-starPoints="5" bounding="rect(-92.057,-37.5,184.114,75)" text="Fit Pn arrivals from control events to set Moho depth" font-familyName="Helvetica" font-pixelSize="20" font-bold="0" font-underline="0" font-alignment="1" strokeStyle="0" markerStart="0" markerEnd="0" shadowEnabled="0" shadowOffsetX="0" shadowOffsetY="2" shadowBlur="4" shadowOpacity="160" blurEnabled="0" blurRadius="4" transform="matrix(1,0,0,1,212.693,154)" pers-center="0,0" pers-size="0,0" pers-start="0,0" pers-end="0,0" locked="0" mesh="" flag=""/>
            <path id="shapePath33" d="M130.589,124.545 L140.541,124.545 L140.541,126.303 L132.533,126.303 L132.533,130.658 L139.574,130.658 L139.574,132.367 L132.533,132.367 L132.533,138.891 L130.589,138.891 L130.589,124.545 M142.373,128.48 L144.16,128.48 L144.16,138.891 L142.373,138.891 L142.373,128.48 M142.373,124.545 L144.16,124.545 L144.16,126.537 L142.373,126.537 L142.373,124.545 M147.162,125.512 L148.939,125.512 L148.939,128.432 L150.609,128.432 L150.609,129.867 L148.939,129.867 L148.939,136.693 C148.939,137.058 149.063,137.302 149.31,137.426 C149.447,137.497 149.675,137.533 149.994,137.533 C150.078,137.533 150.17,137.532 150.267,137.528 C150.365,137.525 150.479,137.517 150.609,137.504 L150.609,138.891 C150.407,138.949 150.197,138.992 149.979,139.018 C149.761,139.044 149.525,139.057 149.271,139.057 C148.451,139.057 147.894,138.847 147.601,138.427 C147.308,138.007 147.162,137.462 147.162,136.791 L147.162,129.867 L145.746,129.867 L145.746,128.432 L147.162,128.432 L147.162,125.512 M158.324,124.545 L164.779,124.545 C166.055,124.545 167.084,124.905 167.865,125.624 C168.646,126.343 169.037,127.354 169.037,128.656 C169.037,129.776 168.688,130.751 167.992,131.581 C167.295,132.411 166.224,132.826 164.779,132.826 L160.267,132.826 L160.267,138.891 L158.324,138.891 L158.324,124.545 M165.902,126.518 C165.472,126.316 164.883,126.215 164.134,126.215 L160.267,126.215 L160.267,131.186 L164.134,131.186 C165.007,131.186 165.715,131 166.258,130.629 C166.802,130.258 167.074,129.604 167.074,128.666 C167.074,127.611 166.683,126.895 165.902,126.518 M171.232,128.432 L172.902,128.432 L172.902,129.916 C173.397,129.304 173.921,128.865 174.474,128.598 C175.028,128.331 175.643,128.197 176.32,128.197 C177.804,128.197 178.807,128.715 179.328,129.75 C179.614,130.316 179.757,131.127 179.757,132.182 L179.757,138.891 L177.97,138.891 L177.97,132.299 C177.97,131.661 177.876,131.146 177.687,130.756 C177.375,130.105 176.808,129.779 175.988,129.779 C175.571,129.779 175.229,129.822 174.963,129.906 C174.481,130.049 174.058,130.336 173.693,130.766 C173.4,131.111 173.21,131.467 173.122,131.835 C173.034,132.203 172.99,132.729 172.99,133.412 L172.99,138.891 L171.232,138.891 L171.232,128.432 M189.793,137.309 C190.164,137.602 190.603,137.748 191.111,137.748 C191.729,137.748 192.328,137.605 192.908,137.318 C193.884,136.843 194.373,136.065 194.373,134.984 L194.373,133.568 C194.158,133.705 193.881,133.819 193.543,133.91 C193.204,134.001 192.872,134.066 192.547,134.105 L191.482,134.242 C190.844,134.327 190.366,134.46 190.047,134.643 C189.506,134.949 189.236,135.437 189.236,136.107 C189.236,136.615 189.422,137.016 189.793,137.309 M193.494,132.553 C193.897,132.501 194.168,132.331 194.304,132.045 C194.382,131.889 194.422,131.664 194.422,131.371 C194.422,130.772 194.208,130.338 193.782,130.067 C193.355,129.797 192.745,129.662 191.951,129.662 C191.033,129.662 190.382,129.91 189.998,130.404 C189.783,130.678 189.643,131.085 189.578,131.625 L187.937,131.625 C187.97,130.336 188.388,129.439 189.192,128.935 C189.996,128.43 190.929,128.178 191.99,128.178 C193.22,128.178 194.22,128.412 194.988,128.881 C195.75,129.35 196.13,130.079 196.13,131.068 L196.13,137.094 C196.13,137.276 196.168,137.423 196.243,137.533 C196.318,137.644 196.476,137.699 196.716,137.699 C196.795,137.699 196.882,137.694 196.98,137.685 C197.078,137.675 197.182,137.66 197.293,137.641 L197.293,138.939 C197.019,139.018 196.811,139.066 196.668,139.086 C196.524,139.105 196.329,139.115 196.082,139.115 C195.476,139.115 195.037,138.9 194.763,138.471 C194.62,138.243 194.519,137.921 194.461,137.504 C194.102,137.973 193.588,138.38 192.918,138.725 C192.247,139.07 191.508,139.242 190.701,139.242 C189.731,139.242 188.938,138.948 188.323,138.358 C187.708,137.769 187.4,137.032 187.4,136.146 C187.4,135.176 187.703,134.424 188.308,133.891 C188.914,133.357 189.708,133.028 190.691,132.904 L193.494,132.553 M199.047,128.432 L200.716,128.432 L200.716,130.238 C200.853,129.887 201.188,129.459 201.722,128.954 C202.256,128.45 202.871,128.197 203.568,128.197 C203.601,128.197 203.656,128.201 203.734,128.207 C203.812,128.214 203.946,128.227 204.134,128.246 L204.134,130.102 C204.03,130.082 203.934,130.069 203.846,130.062 C203.758,130.056 203.662,130.053 203.558,130.053 C202.673,130.053 201.992,130.338 201.517,130.907 C201.042,131.477 200.804,132.133 200.804,132.875 L200.804,138.891 L199.047,138.891 L199.047,128.432 M205.703,128.432 L207.373,128.432 L207.373,130.238 C207.509,129.887 207.845,129.459 208.379,128.954 C208.912,128.45 209.528,128.197 210.224,128.197 C210.257,128.197 210.312,128.201 210.39,128.207 C210.468,128.214 210.602,128.227 210.791,128.246 L210.791,130.102 C210.686,130.082 210.59,130.069 210.503,130.062 C210.415,130.056 210.319,130.053 210.214,130.053 C209.329,130.053 208.649,130.338 208.173,130.907 C207.698,131.477 207.461,132.133 207.461,132.875 L207.461,138.891 L205.703,138.891 L205.703,128.432 M212.31,128.48 L214.097,128.48 L214.097,138.891 L212.31,138.891 L212.31,128.48 M212.31,124.545 L214.097,124.545 L214.097,126.537 L212.31,126.537 L212.31,124.545 M217.607,128.432 L220.4,136.947 L223.32,128.432 L225.244,128.432 L221.298,138.891 L219.423,138.891 L215.566,128.432 L217.607,128.432 M228.652,137.309 C229.023,137.602 229.463,137.748 229.97,137.748 C230.589,137.748 231.188,137.605 231.767,137.318 C232.744,136.843 233.232,136.065 233.232,134.984 L233.232,133.568 C233.017,133.705 232.741,133.819 232.402,133.91 C232.063,134.001 231.731,134.066 231.406,134.105 L230.341,134.242 C229.703,134.327 229.225,134.46 228.906,134.643 C228.366,134.949 228.095,135.437 228.095,136.107 C228.095,136.615 228.281,137.016 228.652,137.309 M232.353,132.553 C232.757,132.501 233.027,132.331 233.164,132.045 C233.242,131.889 233.281,131.664 233.281,131.371 C233.281,130.772 233.068,130.338 232.641,130.067 C232.215,129.797 231.604,129.662 230.81,129.662 C229.892,129.662 229.241,129.91 228.857,130.404 C228.642,130.678 228.502,131.085 228.437,131.625 L226.797,131.625 C226.829,130.336 227.247,129.439 228.051,128.935 C228.855,128.43 229.788,128.178 230.849,128.178 C232.08,128.178 233.079,128.412 233.847,128.881 C234.609,129.35 234.99,130.079 234.99,131.068 L234.99,137.094 C234.99,137.276 235.027,137.423 235.102,137.533 C235.177,137.644 235.335,137.699 235.576,137.699 C235.654,137.699 235.742,137.694 235.839,137.685 C235.937,137.675 236.041,137.66 236.152,137.641 L236.152,138.939 C235.879,139.018 235.67,139.066 235.527,139.086 C235.384,139.105 235.188,139.115 234.941,139.115 C234.336,139.115 233.896,138.9 233.623,138.471 C233.479,138.243 233.379,137.921 233.32,137.504 C232.962,137.973 232.448,138.38 231.777,138.725 C231.106,139.07 230.367,139.242 229.56,139.242 C228.59,139.242 227.797,138.948 227.182,138.358 C226.567,137.769 226.259,137.032 226.259,136.146 C226.259,135.176 226.562,134.424 227.168,133.891 C227.773,133.357 228.567,133.028 229.55,132.904 L232.353,132.553 M237.906,124.545 L239.664,124.545 L239.664,138.891 L237.906,138.891 L237.906,124.545 M243.339,135.609 C243.392,136.195 243.538,136.645 243.779,136.957 C244.222,137.523 244.99,137.807 246.084,137.807 C246.735,137.807 247.308,137.665 247.802,137.382 C248.297,137.099 248.545,136.661 248.545,136.068 C248.545,135.619 248.346,135.277 247.949,135.043 C247.695,134.9 247.194,134.734 246.445,134.545 L245.048,134.193 C244.157,133.972 243.499,133.725 243.076,133.451 C242.321,132.976 241.943,132.318 241.943,131.479 C241.943,130.489 242.299,129.688 243.012,129.076 C243.725,128.464 244.684,128.158 245.888,128.158 C247.464,128.158 248.6,128.62 249.297,129.545 C249.733,130.131 249.944,130.762 249.931,131.439 L248.271,131.439 C248.239,131.042 248.099,130.681 247.851,130.355 C247.448,129.893 246.748,129.662 245.752,129.662 C245.088,129.662 244.585,129.789 244.243,130.043 C243.901,130.297 243.73,130.632 243.73,131.049 C243.73,131.505 243.955,131.869 244.404,132.143 C244.664,132.305 245.048,132.449 245.556,132.572 L246.718,132.855 C247.981,133.161 248.828,133.458 249.257,133.744 C249.941,134.193 250.283,134.9 250.283,135.863 C250.283,136.794 249.93,137.598 249.223,138.275 C248.517,138.952 247.441,139.291 245.996,139.291 C244.44,139.291 243.338,138.938 242.69,138.231 C242.042,137.525 241.696,136.651 241.65,135.609 L243.339,135.609 M258.662,125.238 C259.072,124.639 259.863,124.34 261.035,124.34 C261.145,124.34 261.259,124.343 261.377,124.35 C261.494,124.356 261.627,124.366 261.777,124.379 L261.777,125.98 C261.595,125.967 261.463,125.959 261.381,125.956 C261.3,125.953 261.224,125.951 261.152,125.951 C260.618,125.951 260.299,126.09 260.195,126.366 C260.091,126.643 260.039,127.348 260.039,128.48 L261.777,128.48 L261.777,129.867 L260.019,129.867 L260.019,138.891 L258.281,138.891 L258.281,129.867 L256.826,129.867 L256.826,128.48 L258.281,128.48 L258.281,126.84 C258.307,126.111 258.434,125.577 258.662,125.238 M263.437,128.432 L265.107,128.432 L265.107,130.238 C265.244,129.887 265.579,129.459 266.113,128.954 C266.647,128.45 267.262,128.197 267.959,128.197 C267.991,128.197 268.047,128.201 268.125,128.207 C268.203,128.214 268.336,128.227 268.525,128.246 L268.525,130.102 C268.421,130.082 268.325,130.069 268.237,130.062 C268.149,130.056 268.053,130.053 267.949,130.053 C267.063,130.053 266.383,130.338 265.908,130.907 C265.433,131.477 265.195,132.133 265.195,132.875 L265.195,138.891 L263.437,138.891 L263.437,128.432 M276.592,136.435 C277.025,135.552 277.242,134.571 277.242,133.49 C277.242,132.514 277.086,131.719 276.773,131.107 C276.278,130.144 275.425,129.662 274.214,129.662 C273.14,129.662 272.359,130.072 271.871,130.893 C271.382,131.713 271.138,132.702 271.138,133.861 C271.138,134.975 271.382,135.902 271.871,136.645 C272.359,137.387 273.134,137.758 274.195,137.758 C275.36,137.758 276.159,137.317 276.592,136.435 M277.681,129.477 C278.612,130.375 279.078,131.697 279.078,133.441 C279.078,135.128 278.668,136.521 277.847,137.621 C277.027,138.721 275.754,139.271 274.029,139.271 C272.59,139.271 271.448,138.785 270.601,137.812 C269.755,136.838 269.332,135.531 269.332,133.891 C269.332,132.133 269.778,130.733 270.67,129.691 C271.561,128.65 272.759,128.129 274.263,128.129 C275.611,128.129 276.75,128.578 277.681,129.477 M281.154,128.432 L282.892,128.432 L282.892,129.916 C283.309,129.402 283.686,129.027 284.025,128.793 C284.604,128.396 285.262,128.197 285.998,128.197 C286.831,128.197 287.502,128.402 288.009,128.812 C288.296,129.047 288.556,129.392 288.791,129.848 C289.181,129.288 289.64,128.873 290.168,128.603 C290.695,128.332 291.287,128.197 291.945,128.197 C293.351,128.197 294.308,128.705 294.816,129.721 C295.089,130.268 295.226,131.003 295.226,131.928 L295.226,138.891 L293.4,138.891 L293.4,131.625 C293.4,130.928 293.226,130.45 292.878,130.189 C292.529,129.929 292.104,129.799 291.603,129.799 C290.913,129.799 290.319,130.03 289.821,130.492 C289.323,130.954 289.074,131.726 289.074,132.807 L289.074,138.891 L287.287,138.891 L287.287,132.064 C287.287,131.355 287.202,130.837 287.033,130.512 C286.766,130.023 286.268,129.779 285.539,129.779 C284.875,129.779 284.271,130.036 283.727,130.551 C283.184,131.065 282.912,131.996 282.912,133.344 L282.912,138.891 L281.154,138.891 L281.154,128.432 M131.501,148.988 C132.24,149.561 132.684,150.548 132.834,151.947 L131.125,151.947 C131.02,151.303 130.783,150.767 130.412,150.341 C130.041,149.914 129.445,149.701 128.625,149.701 C127.505,149.701 126.704,150.248 126.222,151.342 C125.91,152.051 125.754,152.927 125.754,153.969 C125.754,155.017 125.975,155.899 126.418,156.615 C126.86,157.331 127.557,157.689 128.507,157.689 C129.237,157.689 129.814,157.466 130.241,157.021 C130.667,156.575 130.962,155.964 131.125,155.189 L132.834,155.189 C132.638,156.576 132.15,157.59 131.369,158.231 C130.588,158.873 129.588,159.193 128.371,159.193 C127.004,159.193 125.913,158.694 125.099,157.694 C124.285,156.695 123.879,155.447 123.879,153.949 C123.879,152.113 124.325,150.684 125.216,149.662 C126.108,148.64 127.244,148.129 128.625,148.129 C129.803,148.129 130.762,148.415 131.501,148.988 M141.139,156.435 C141.572,155.552 141.789,154.571 141.789,153.49 C141.789,152.514 141.632,151.719 141.32,151.107 C140.825,150.144 139.972,149.662 138.761,149.662 C137.687,149.662 136.906,150.072 136.418,150.893 C135.929,151.713 135.685,152.702 135.685,153.861 C135.685,154.975 135.929,155.902 136.418,156.645 C136.906,157.387 137.681,157.758 138.742,157.758 C139.907,157.758 140.706,157.317 141.139,156.435 M142.228,149.477 C143.159,150.375 143.625,151.697 143.625,153.441 C143.625,155.128 143.214,156.521 142.394,157.621 C141.574,158.721 140.301,159.271 138.576,159.271 C137.137,159.271 135.994,158.785 135.148,157.812 C134.302,156.838 133.879,155.531 133.879,153.891 C133.879,152.133 134.324,150.733 135.216,149.691 C136.108,148.65 137.306,148.129 138.81,148.129 C140.158,148.129 141.297,148.578 142.228,149.477 M145.701,148.432 L147.371,148.432 L147.371,149.916 C147.866,149.304 148.39,148.865 148.943,148.598 C149.496,148.331 150.112,148.197 150.789,148.197 C152.273,148.197 153.276,148.715 153.797,149.75 C154.083,150.316 154.226,151.127 154.226,152.182 L154.226,158.891 L152.439,158.891 L152.439,152.299 C152.439,151.661 152.345,151.146 152.156,150.756 C151.843,150.105 151.277,149.779 150.457,149.779 C150.04,149.779 149.698,149.822 149.431,149.906 C148.95,150.049 148.526,150.336 148.162,150.766 C147.869,151.111 147.678,151.467 147.59,151.835 C147.503,152.203 147.459,152.729 147.459,153.412 L147.459,158.891 L145.701,158.891 L145.701,148.432 M157.162,145.512 L158.939,145.512 L158.939,148.432 L160.609,148.432 L160.609,149.867 L158.939,149.867 L158.939,156.693 C158.939,157.058 159.063,157.302 159.31,157.426 C159.447,157.497 159.675,157.533 159.994,157.533 C160.078,157.533 160.17,157.532 160.267,157.528 C160.365,157.525 160.479,157.517 160.609,157.504 L160.609,158.891 C160.407,158.949 160.197,158.992 159.979,159.018 C159.761,159.044 159.525,159.057 159.271,159.057 C158.451,159.057 157.894,158.847 157.601,158.427 C157.308,158.007 157.162,157.462 157.162,156.791 L157.162,149.867 L155.746,149.867 L155.746,148.432 L157.162,148.432 L157.162,145.512 M162.406,148.432 L164.076,148.432 L164.076,150.238 C164.213,149.887 164.548,149.459 165.082,148.954 C165.616,148.45 166.231,148.197 166.927,148.197 C166.96,148.197 167.015,148.201 167.093,148.207 C167.172,148.214 167.305,148.227 167.494,148.246 L167.494,150.102 C167.39,150.082 167.294,150.069 167.206,150.062 C167.118,150.056 167.022,150.053 166.918,150.053 C166.032,150.053 165.352,150.338 164.877,150.907 C164.401,151.477 164.164,152.133 164.164,152.875 L164.164,158.891 L162.406,158.891 L162.406,148.432 M175.561,156.435 C175.994,155.552 176.211,154.571 176.211,153.49 C176.211,152.514 176.054,151.719 175.742,151.107 C175.247,150.144 174.394,149.662 173.183,149.662 C172.109,149.662 171.328,150.072 170.839,150.893 C170.351,151.713 170.107,152.702 170.107,153.861 C170.107,154.975 170.351,155.902 170.839,156.645 C171.328,157.387 172.102,157.758 173.164,157.758 C174.329,157.758 175.128,157.317 175.561,156.435 M176.65,149.477 C177.581,150.375 178.047,151.697 178.047,153.441 C178.047,155.128 177.636,156.521 176.816,157.621 C175.996,158.721 174.723,159.271 172.998,159.271 C171.559,159.271 170.416,158.785 169.57,157.812 C168.724,156.838 168.3,155.531 168.3,153.891 C168.3,152.133 168.746,150.733 169.638,149.691 C170.53,148.65 171.728,148.129 173.232,148.129 C174.58,148.129 175.719,148.578 176.65,149.477 M180.172,144.545 L181.929,144.545 L181.929,158.891 L180.172,158.891 L180.172,144.545 M196.621,148.72 C197.317,149.068 197.848,149.519 198.213,150.072 C198.564,150.6 198.798,151.215 198.916,151.918 C199.02,152.4 199.072,153.168 199.072,154.223 L191.406,154.223 C191.438,155.284 191.689,156.135 192.158,156.776 C192.627,157.418 193.352,157.738 194.336,157.738 C195.254,157.738 195.986,157.436 196.533,156.83 C196.845,156.479 197.067,156.072 197.197,155.609 L198.925,155.609 C198.88,155.993 198.728,156.422 198.471,156.894 C198.214,157.366 197.926,157.751 197.607,158.051 C197.073,158.572 196.412,158.923 195.625,159.105 C195.201,159.21 194.723,159.262 194.189,159.262 C192.887,159.262 191.783,158.788 190.879,157.841 C189.974,156.894 189.521,155.567 189.521,153.861 C189.521,152.182 189.977,150.818 190.888,149.77 C191.8,148.721 192.991,148.197 194.463,148.197 C195.205,148.197 195.924,148.371 196.621,148.72 M197.265,152.826 C197.194,152.064 197.028,151.456 196.767,151 C196.285,150.154 195.481,149.73 194.355,149.73 C193.548,149.73 192.871,150.022 192.324,150.604 C191.777,151.187 191.487,151.928 191.455,152.826 L197.265,152.826 M202.076,148.432 L204.869,156.947 L207.789,148.432 L209.713,148.432 L205.767,158.891 L203.892,158.891 L200.035,148.432 L202.076,148.432 M217.73,148.72 C218.427,149.068 218.957,149.519 219.322,150.072 C219.673,150.6 219.908,151.215 220.025,151.918 C220.129,152.4 220.181,153.168 220.181,154.223 L212.515,154.223 C212.548,155.284 212.798,156.135 213.267,156.776 C213.736,157.418 214.462,157.738 215.445,157.738 C216.363,157.738 217.095,157.436 217.642,156.83 C217.955,156.479 218.176,156.072 218.306,155.609 L220.035,155.609 C219.989,155.993 219.838,156.422 219.581,156.894 C219.324,157.366 219.035,157.751 218.716,158.051 C218.183,158.572 217.522,158.923 216.734,159.105 C216.311,159.21 215.832,159.262 215.298,159.262 C213.996,159.262 212.893,158.788 211.988,157.841 C211.083,156.894 210.63,155.567 210.63,153.861 C210.63,152.182 211.086,150.818 211.998,149.77 C212.909,148.721 214.101,148.197 215.572,148.197 C216.314,148.197 217.033,148.371 217.73,148.72 M218.375,152.826 C218.303,152.064 218.137,151.456 217.877,151 C217.395,150.154 216.591,149.73 215.464,149.73 C214.657,149.73 213.98,150.022 213.433,150.604 C212.886,151.187 212.597,151.928 212.564,152.826 L218.375,152.826 M222.326,148.432 L223.996,148.432 L223.996,149.916 C224.491,149.304 225.015,148.865 225.568,148.598 C226.121,148.331 226.737,148.197 227.414,148.197 C228.898,148.197 229.901,148.715 230.422,149.75 C230.708,150.316 230.851,151.127 230.851,152.182 L230.851,158.891 L229.064,158.891 L229.064,152.299 C229.064,151.661 228.97,151.146 228.781,150.756 C228.468,150.105 227.902,149.779 227.082,149.779 C226.665,149.779 226.323,149.822 226.056,149.906 C225.575,150.049 225.151,150.336 224.787,150.766 C224.494,151.111 224.303,151.467 224.215,151.835 C224.128,152.203 224.084,152.729 224.084,153.412 L224.084,158.891 L222.326,158.891 L222.326,148.432 M233.787,145.512 L235.564,145.512 L235.564,148.432 L237.234,148.432 L237.234,149.867 L235.564,149.867 L235.564,156.693 C235.564,157.058 235.688,157.302 235.935,157.426 C236.072,157.497 236.3,157.533 236.619,157.533 C236.703,157.533 236.795,157.532 236.892,157.528 C236.99,157.525 237.104,157.517 237.234,157.504 L237.234,158.891 C237.032,158.949 236.822,158.992 236.604,159.018 C236.386,159.044 236.15,159.057 235.896,159.057 C235.076,159.057 234.519,158.847 234.226,158.427 C233.933,158.007 233.787,157.462 233.787,156.791 L233.787,149.867 L232.371,149.867 L232.371,148.432 L233.787,148.432 L233.787,145.512 M240.027,155.609 C240.079,156.195 240.226,156.645 240.466,156.957 C240.909,157.523 241.677,157.807 242.771,157.807 C243.422,157.807 243.995,157.665 244.49,157.382 C244.985,157.099 245.232,156.661 245.232,156.068 C245.232,155.619 245.033,155.277 244.636,155.043 C244.382,154.9 243.881,154.734 243.132,154.545 L241.736,154.193 C240.844,153.972 240.186,153.725 239.763,153.451 C239.008,152.976 238.63,152.318 238.63,151.479 C238.63,150.489 238.987,149.688 239.7,149.076 C240.413,148.464 241.371,148.158 242.576,148.158 C244.151,148.158 245.287,148.62 245.984,149.545 C246.42,150.131 246.632,150.762 246.619,151.439 L244.959,151.439 C244.926,151.042 244.786,150.681 244.539,150.355 C244.135,149.893 243.435,149.662 242.439,149.662 C241.775,149.662 241.272,149.789 240.93,150.043 C240.589,150.297 240.418,150.632 240.418,151.049 C240.418,151.505 240.642,151.869 241.091,152.143 C241.352,152.305 241.736,152.449 242.244,152.572 L243.406,152.855 C244.669,153.161 245.515,153.458 245.945,153.744 C246.629,154.193 246.97,154.9 246.97,155.863 C246.97,156.794 246.617,157.598 245.911,158.275 C245.204,158.952 244.129,159.291 242.683,159.291 C241.127,159.291 240.025,158.938 239.378,158.231 C238.73,157.525 238.383,156.651 238.338,155.609 L240.027,155.609 M254.88,145.512 L256.658,145.512 L256.658,148.432 L258.328,148.432 L258.328,149.867 L256.658,149.867 L256.658,156.693 C256.658,157.058 256.782,157.302 257.029,157.426 C257.166,157.497 257.394,157.533 257.713,157.533 C257.797,157.533 257.888,157.532 257.986,157.528 C258.084,157.525 258.198,157.517 258.328,157.504 L258.328,158.891 C258.126,158.949 257.916,158.992 257.698,159.018 C257.48,159.044 257.244,159.057 256.99,159.057 C256.17,159.057 255.613,158.847 255.32,158.427 C255.027,158.007 254.88,157.462 254.88,156.791 L254.88,149.867 L253.464,149.867 L253.464,148.432 L254.88,148.432 L254.88,145.512 M266.624,156.435 C267.057,155.552 267.273,154.571 267.273,153.49 C267.273,152.514 267.117,151.719 266.804,151.107 C266.31,150.144 265.457,149.662 264.246,149.662 C263.172,149.662 262.39,150.072 261.902,150.893 C261.414,151.713 261.17,152.702 261.17,153.861 C261.17,154.975 261.414,155.902 261.902,156.645 C262.39,157.387 263.165,157.758 264.226,157.758 C265.392,157.758 266.191,157.317 266.624,156.435 M267.713,149.477 C268.644,150.375 269.109,151.697 269.109,153.441 C269.109,155.128 268.699,156.521 267.879,157.621 C267.058,158.721 265.785,159.271 264.06,159.271 C262.621,159.271 261.479,158.785 260.632,157.812 C259.786,156.838 259.363,155.531 259.363,153.891 C259.363,152.133 259.809,150.733 260.701,149.691 C261.593,148.65 262.791,148.129 264.295,148.129 C265.642,148.129 266.782,148.578 267.713,149.477 M277.777,155.609 C277.829,156.195 277.976,156.645 278.216,156.957 C278.659,157.523 279.427,157.807 280.521,157.807 C281.172,157.807 281.745,157.665 282.24,157.382 C282.735,157.099 282.982,156.661 282.982,156.068 C282.982,155.619 282.783,155.277 282.386,155.043 C282.132,154.9 281.631,154.734 280.882,154.545 L279.486,154.193 C278.594,153.972 277.936,153.725 277.513,153.451 C276.758,152.976 276.38,152.318 276.38,151.479 C276.38,150.489 276.737,149.688 277.45,149.076 C278.163,148.464 279.121,148.158 280.326,148.158 C281.901,148.158 283.037,148.62 283.734,149.545 C284.17,150.131 284.382,150.762 284.369,151.439 L282.709,151.439 C282.676,151.042 282.536,150.681 282.289,150.355 C281.885,149.893 281.185,149.662 280.189,149.662 C279.525,149.662 279.022,149.789 278.68,150.043 C278.339,150.297 278.168,150.632 278.168,151.049 C278.168,151.505 278.392,151.869 278.841,152.143 C279.102,152.305 279.486,152.449 279.994,152.572 L281.156,152.855 C282.419,153.161 283.265,153.458 283.695,153.744 C284.379,154.193 284.72,154.9 284.72,155.863 C284.72,156.794 284.367,157.598 283.661,158.275 C282.954,158.952 281.879,159.291 280.433,159.291 C278.877,159.291 277.775,158.938 277.128,158.231 C276.48,157.525 276.133,156.651 276.088,155.609 L277.777,155.609 M293.246,148.72 C293.942,149.068 294.473,149.519 294.838,150.072 C295.189,150.6 295.423,151.215 295.541,151.918 C295.645,152.4 295.697,153.168 295.697,154.223 L288.031,154.223 C288.063,155.284 288.314,156.135 288.783,156.776 C289.252,157.418 289.978,157.738 290.961,157.738 C291.879,157.738 292.611,157.436 293.158,156.83 C293.47,156.479 293.692,156.072 293.822,155.609 L295.55,155.609 C295.505,155.993 295.353,156.422 295.096,156.894 C294.839,157.366 294.551,157.751 294.232,158.051 C293.698,158.572 293.037,158.923 292.25,159.105 C291.826,159.21 291.348,159.262 290.814,159.262 C289.512,159.262 288.408,158.788 287.504,157.841 C286.599,156.894 286.146,155.567 286.146,153.861 C286.146,152.182 286.602,150.818 287.513,149.77 C288.425,148.721 289.616,148.197 291.088,148.197 C291.83,148.197 292.549,148.371 293.246,148.72 M293.89,152.826 C293.819,152.064 293.653,151.456 293.392,151 C292.91,150.154 292.106,149.73 290.98,149.73 C290.173,149.73 289.496,150.022 288.949,150.604 C288.402,151.187 288.112,151.928 288.08,152.826 L293.89,152.826 M298.193,145.512 L299.97,145.512 L299.97,148.432 L301.64,148.432 L301.64,149.867 L299.97,149.867 L299.97,156.693 C299.97,157.058 300.094,157.302 300.341,157.426 C300.478,157.497 300.706,157.533 301.025,157.533 C301.11,157.533 301.201,157.532 301.298,157.528 C301.396,157.525 301.51,157.517 301.64,157.504 L301.64,158.891 C301.438,158.949 301.228,158.992 301.01,159.018 C300.792,159.044 300.556,159.057 300.302,159.057 C299.482,159.057 298.925,158.847 298.632,158.427 C298.339,158.007 298.193,157.462 298.193,156.791 L298.193,149.867 L296.777,149.867 L296.777,148.432 L298.193,148.432 L298.193,145.512 M161.418,164.545 L164.201,164.545 L168.322,176.674 L172.414,164.545 L175.168,164.545 L175.168,178.891 L173.322,178.891 L173.322,170.424 C173.322,170.131 173.328,169.646 173.341,168.969 C173.354,168.292 173.361,167.566 173.361,166.791 L169.269,178.891 L167.345,178.891 L163.224,166.791 L163.224,167.23 C163.224,167.582 163.232,168.118 163.249,168.837 C163.265,169.556 163.273,170.085 163.273,170.424 L163.273,178.891 L161.418,178.891 L161.418,164.545 M184.436,176.435 C184.869,175.552 185.086,174.571 185.086,173.49 C185.086,172.514 184.929,171.719 184.617,171.107 C184.122,170.144 183.269,169.662 182.058,169.662 C180.984,169.662 180.203,170.072 179.714,170.893 C179.226,171.713 178.982,172.702 178.982,173.861 C178.982,174.975 179.226,175.902 179.714,176.645 C180.203,177.387 180.977,177.758 182.039,177.758 C183.204,177.758 184.003,177.317 184.436,176.435 M185.525,169.477 C186.456,170.375 186.922,171.697 186.922,173.441 C186.922,175.128 186.511,176.521 185.691,177.621 C184.871,178.721 183.598,179.271 181.873,179.271 C180.434,179.271 179.291,178.785 178.445,177.812 C177.599,176.838 177.175,175.531 177.175,173.891 C177.175,172.133 177.621,170.733 178.513,169.691 C179.405,168.65 180.603,168.129 182.107,168.129 C183.455,168.129 184.594,168.578 185.525,169.477 M188.998,164.496 L190.755,164.496 L190.755,169.848 C191.172,169.32 191.547,168.949 191.879,168.734 C192.445,168.363 193.151,168.178 193.998,168.178 C195.515,168.178 196.543,168.708 197.084,169.77 C197.377,170.349 197.523,171.153 197.523,172.182 L197.523,178.891 L195.716,178.891 L195.716,172.299 C195.716,171.531 195.619,170.967 195.423,170.609 C195.104,170.036 194.505,169.75 193.627,169.75 C192.897,169.75 192.237,170.001 191.644,170.502 C191.052,171.003 190.755,171.951 190.755,173.344 L190.755,178.891 L188.998,178.891 L188.998,164.496 M206.655,176.435 C207.088,175.552 207.304,174.571 207.304,173.49 C207.304,172.514 207.148,171.719 206.836,171.107 C206.341,170.144 205.488,169.662 204.277,169.662 C203.203,169.662 202.422,170.072 201.933,170.893 C201.445,171.713 201.201,172.702 201.201,173.861 C201.201,174.975 201.445,175.902 201.933,176.645 C202.422,177.387 203.196,177.758 204.257,177.758 C205.423,177.758 206.222,177.317 206.655,176.435 M207.744,169.477 C208.675,170.375 209.14,171.697 209.14,173.441 C209.14,175.128 208.73,176.521 207.91,177.621 C207.089,178.721 205.817,179.271 204.091,179.271 C202.653,179.271 201.51,178.785 200.664,177.812 C199.817,176.838 199.394,175.531 199.394,173.891 C199.394,172.133 199.84,170.733 200.732,169.691 C201.624,168.65 202.822,168.129 204.326,168.129 C205.673,168.129 206.813,168.578 207.744,169.477 M218.589,176.596 C219.065,177.351 219.826,177.729 220.875,177.729 C221.688,177.729 222.357,177.379 222.881,176.679 C223.406,175.979 223.668,174.975 223.668,173.666 C223.668,172.344 223.397,171.366 222.857,170.731 C222.317,170.097 221.649,169.779 220.855,169.779 C219.97,169.779 219.252,170.118 218.702,170.795 C218.152,171.472 217.877,172.468 217.877,173.783 C217.877,174.903 218.114,175.84 218.589,176.596 M222.535,168.754 C222.847,168.949 223.202,169.291 223.599,169.779 L223.599,164.496 L225.289,164.496 L225.289,178.891 L223.707,178.891 L223.707,177.436 C223.297,178.08 222.811,178.546 222.252,178.832 C221.692,179.118 221.05,179.262 220.328,179.262 C219.162,179.262 218.153,178.772 217.3,177.792 C216.448,176.812 216.021,175.508 216.021,173.881 C216.021,172.357 216.41,171.037 217.188,169.921 C217.966,168.804 219.078,168.246 220.523,168.246 C221.324,168.246 221.994,168.415 222.535,168.754 M234.386,168.72 C235.083,169.068 235.614,169.519 235.978,170.072 C236.33,170.6 236.564,171.215 236.681,171.918 C236.785,172.4 236.838,173.168 236.838,174.223 L229.172,174.223 C229.204,175.284 229.455,176.135 229.923,176.776 C230.392,177.418 231.118,177.738 232.101,177.738 C233.019,177.738 233.752,177.436 234.298,176.83 C234.611,176.479 234.832,176.072 234.963,175.609 L236.691,175.609 C236.645,175.993 236.494,176.422 236.237,176.894 C235.98,177.366 235.692,177.751 235.373,178.051 C234.839,178.572 234.178,178.923 233.39,179.105 C232.967,179.21 232.489,179.262 231.955,179.262 C230.653,179.262 229.549,178.788 228.644,177.841 C227.739,176.894 227.287,175.567 227.287,173.861 C227.287,172.182 227.742,170.818 228.654,169.77 C229.565,168.721 230.757,168.197 232.228,168.197 C232.97,168.197 233.69,168.371 234.386,168.72 M235.031,172.826 C234.959,172.064 234.793,171.456 234.533,171 C234.051,170.154 233.247,169.73 232.121,169.73 C231.313,169.73 230.636,170.022 230.089,170.604 C229.543,171.187 229.253,171.928 229.22,172.826 L235.031,172.826 M245.442,176.679 C245.986,175.992 246.257,174.965 246.257,173.598 C246.257,172.764 246.137,172.048 245.896,171.449 C245.44,170.297 244.607,169.721 243.396,169.721 C242.179,169.721 241.345,170.329 240.896,171.547 C240.655,172.198 240.535,173.025 240.535,174.027 C240.535,174.835 240.655,175.521 240.896,176.088 C241.352,177.169 242.185,177.709 243.396,177.709 C244.216,177.709 244.898,177.366 245.442,176.679 M238.845,168.48 L240.554,168.48 L240.554,169.867 C240.906,169.392 241.29,169.024 241.707,168.764 C242.299,168.373 242.996,168.178 243.797,168.178 C244.981,168.178 245.987,168.632 246.814,169.54 C247.641,170.448 248.054,171.745 248.054,173.432 C248.054,175.71 247.459,177.338 246.267,178.314 C245.512,178.933 244.633,179.242 243.63,179.242 C242.843,179.242 242.182,179.07 241.648,178.725 C241.336,178.529 240.987,178.194 240.603,177.719 L240.603,183.061 L238.845,183.061 L238.845,168.48 M250.443,165.512 L252.22,165.512 L252.22,168.432 L253.89,168.432 L253.89,169.867 L252.22,169.867 L252.22,176.693 C252.22,177.058 252.344,177.302 252.591,177.426 C252.728,177.497 252.956,177.533 253.275,177.533 C253.36,177.533 253.451,177.532 253.548,177.528 C253.646,177.525 253.76,177.517 253.89,177.504 L253.89,178.891 C253.688,178.949 253.478,178.992 253.26,179.018 C253.042,179.044 252.806,179.057 252.552,179.057 C251.732,179.057 251.175,178.847 250.882,178.427 C250.589,178.007 250.443,177.462 250.443,176.791 L250.443,169.867 L249.027,169.867 L249.027,168.432 L250.443,168.432 L250.443,165.512 M255.638,164.496 L257.396,164.496 L257.396,169.848 C257.813,169.32 258.187,168.949 258.519,168.734 C259.086,168.363 259.792,168.178 260.638,168.178 C262.155,168.178 263.184,168.708 263.724,169.77 C264.017,170.349 264.164,171.153 264.164,172.182 L264.164,178.891 L262.357,178.891 L262.357,172.299 C262.357,171.531 262.259,170.967 262.064,170.609 C261.745,170.036 261.146,169.75 260.267,169.75 C259.538,169.75 258.877,170.001 258.285,170.502 C257.692,171.003 257.396,171.951 257.396,173.344 L257.396,178.891 L255.638,178.891 L255.638,164.496 Z" style="stroke:none;fill-rule:nonzero;fill:#000000;fill-opacity:1;"/>
        </g>
    </g>
</svg>
